<?xml version="1.0" encoding="utf-8" standalone="no"?>
<!DOCTYPE svg PUBLIC "-//W3C//DTD SVG 1.1//EN"
  "http://www.w3.org/Graphics/SVG/1.1/DTD/svg11.dtd">
<svg xmlns:xlink="http://www.w3.org/1999/xlink" width="701.907494pt" height="340.2pt" viewBox="0 0 701.907494 340.2" xmlns="http://www.w3.org/2000/svg" version="1.1">
 <metadata>
  <rdf:RDF xmlns:dc="http://purl.org/dc/elements/1.1/" xmlns:cc="http://creativecommons.org/ns#" xmlns:rdf="http://www.w3.org/1999/02/22-rdf-syntax-ns#">
   <cc:Work>
    <dc:type rdf:resource="http://purl.org/dc/dcmitype/StillImage"/>
    <dc:date>2026-03-03T14:04:47.183107</dc:date>
    <dc:format>image/svg+xml</dc:format>
    <dc:creator>
     <cc:Agent>
      <dc:title>Matplotlib v3.10.7, https://matplotlib.org/</dc:title>
     </cc:Agent>
    </dc:creator>
   </cc:Work>
  </rdf:RDF>
 </metadata>
 <defs>
  <style type="text/css">*{stroke-linejoin: round; stroke-linecap: butt}</style>
 </defs>
 <g id="figure_1">
  <g id="patch_1">
   <path d="M 0 340.2 
L 701.907494 340.2 
L 701.907494 0 
L 0 0 
z
" style="fill: #ffffff"/>
  </g>
  <g id="axes_1">
   <g id="patch_2">
    <path d="M 61.37142 131.611266 
C 50.728376 144.295151 43.250864 159.328891 39.557226 175.469286 
C 35.863589 191.609681 36.058527 208.399217 40.12592 224.449502 
C 44.193312 240.499786 52.017866 255.355858 62.952537 267.789212 
C 73.887209 280.222565 87.622044 289.880765 103.021257 295.965135 
C 118.42047 302.049506 135.047553 304.387581 151.527551 302.786016 
C 168.007548 301.184451 183.873317 295.688644 197.812855 286.753064 
C 211.752393 277.817484 223.370571 265.695419 231.706636 251.389289 
C 240.042702 237.08316 244.86036 220.998488 245.761222 204.465377 
L 141.42 198.78 
z
" style="fill: #2e86ab"/>
   </g>
   <g id="patch_3">
    <path d="M 245.761223 204.465389 
C 246.718373 186.899318 243.224265 169.372693 235.604071 153.516599 
C 227.983878 137.660505 216.481568 123.982556 202.167519 113.755576 
L 141.42 198.78 
z
" style="fill: #a23b72"/>
   </g>
   <g id="patch_4">
    <path d="M 202.167519 113.755576 
C 195.2411 108.806845 187.735843 104.722989 179.818765 101.594876 
C 171.901686 98.466763 163.631944 96.317769 155.193564 95.19572 
L 141.42 198.78 
z
" style="fill: #f18f01"/>
   </g>
   <g id="patch_5">
    <path d="M 155.193564 95.19572 
C 137.754936 92.876907 120.009877 94.998963 103.609758 101.364399 
C 87.209641 107.729834 72.679484 118.134866 61.371476 131.611201 
L 141.42 198.78 
z
" style="fill: #c73e1d"/>
   </g>
   <g id="matplotlib.axis_1"/>
   <g id="matplotlib.axis_2"/>
   <g id="text_1">
    <!-- Real -->
    <g transform="translate(78.832989 303.128088) scale(0.09 -0.09)">
     <defs>
      <path id="DejaVuSerif-52" d="M 3066 2316 
Q 3284 2256 3442 2114 
Q 3600 1972 3725 1716 
L 4403 331 
L 4972 331 
L 4972 0 
L 3872 0 
L 3144 1484 
Q 2934 1916 2759 2042 
Q 2584 2169 2278 2169 
L 1581 2169 
L 1581 331 
L 2241 331 
L 2241 0 
L 353 0 
L 353 331 
L 947 331 
L 947 4331 
L 353 4331 
L 353 4666 
L 2719 4666 
Q 3400 4666 3770 4341 
Q 4141 4016 4141 3419 
Q 4141 2938 3870 2661 
Q 3600 2384 3066 2316 
z
M 1581 2503 
L 2503 2503 
Q 2975 2503 3200 2726 
Q 3425 2950 3425 3419 
Q 3425 3888 3200 4109 
Q 2975 4331 2503 4331 
L 1581 4331 
L 1581 2503 
z
" transform="scale(0.015625)"/>
      <path id="DejaVuSerif-65" d="M 3469 1600 
L 991 1600 
L 991 1575 
Q 991 903 1244 561 
Q 1497 219 1991 219 
Q 2369 219 2611 417 
Q 2853 616 2950 1006 
L 3413 1006 
Q 3275 459 2904 184 
Q 2534 -91 1931 -91 
Q 1203 -91 761 389 
Q 319 869 319 1663 
Q 319 2450 753 2931 
Q 1188 3413 1894 3413 
Q 2647 3413 3050 2948 
Q 3453 2484 3469 1600 
z
M 2791 1931 
Q 2772 2513 2545 2808 
Q 2319 3103 1894 3103 
Q 1497 3103 1269 2806 
Q 1041 2509 991 1931 
L 2791 1931 
z
" transform="scale(0.015625)"/>
      <path id="DejaVuSerif-61" d="M 2547 1044 
L 2547 1747 
L 1806 1747 
Q 1378 1747 1168 1562 
Q 959 1378 959 997 
Q 959 650 1171 447 
Q 1384 244 1747 244 
Q 2106 244 2326 466 
Q 2547 688 2547 1044 
z
M 3122 2075 
L 3122 331 
L 3634 331 
L 3634 0 
L 2547 0 
L 2547 359 
Q 2356 128 2106 18 
Q 1856 -91 1522 -91 
Q 969 -91 644 203 
Q 319 497 319 997 
Q 319 1513 691 1797 
Q 1063 2081 1741 2081 
L 2547 2081 
L 2547 2309 
Q 2547 2688 2317 2895 
Q 2088 3103 1672 3103 
Q 1328 3103 1125 2947 
Q 922 2791 872 2484 
L 575 2484 
L 575 3156 
Q 875 3284 1158 3348 
Q 1441 3413 1709 3413 
Q 2400 3413 2761 3070 
Q 3122 2728 3122 2075 
z
" transform="scale(0.015625)"/>
      <path id="DejaVuSerif-6c" d="M 1313 331 
L 1856 331 
L 1856 0 
L 184 0 
L 184 331 
L 738 331 
L 738 4531 
L 184 4531 
L 184 4863 
L 1313 4863 
L 1313 331 
z
" transform="scale(0.015625)"/>
     </defs>
     <use xlink:href="#DejaVuSerif-52"/>
     <use xlink:href="#DejaVuSerif-65" transform="translate(75.292969 0)"/>
     <use xlink:href="#DejaVuSerif-61" transform="translate(134.472656 0)"/>
     <use xlink:href="#DejaVuSerif-6c" transform="translate(194.091797 0)"/>
    </g>
    <!-- (69,855) -->
    <g transform="translate(60.667051 313.206119) scale(0.09 -0.09)">
     <defs>
      <path id="DejaVuSerif-28" d="M 2041 -997 
Q 1281 -656 893 83 
Q 506 822 506 1931 
Q 506 3044 893 3783 
Q 1281 4522 2041 4863 
L 2041 4556 
Q 1559 4225 1350 3623 
Q 1141 3022 1141 1931 
Q 1141 844 1350 242 
Q 1559 -359 2041 -691 
L 2041 -997 
z
" transform="scale(0.015625)"/>
      <path id="DejaVuSerif-36" d="M 2094 219 
Q 2534 219 2771 542 
Q 3009 866 3009 1472 
Q 3009 2078 2771 2401 
Q 2534 2725 2094 2725 
Q 1647 2725 1412 2412 
Q 1178 2100 1178 1509 
Q 1178 888 1415 553 
Q 1653 219 2094 219 
z
M 1075 2569 
Q 1288 2803 1556 2918 
Q 1825 3034 2163 3034 
Q 2859 3034 3264 2615 
Q 3669 2197 3669 1472 
Q 3669 763 3233 336 
Q 2797 -91 2069 -91 
Q 1278 -91 853 498 
Q 428 1088 428 2181 
Q 428 3406 931 4078 
Q 1434 4750 2350 4750 
Q 2597 4750 2869 4703 
Q 3141 4656 3425 4563 
L 3425 3794 
L 3072 3794 
Q 3034 4109 2831 4275 
Q 2628 4441 2284 4441 
Q 1678 4441 1381 3981 
Q 1084 3522 1075 2569 
z
" transform="scale(0.015625)"/>
      <path id="DejaVuSerif-39" d="M 2994 2091 
Q 2784 1856 2512 1740 
Q 2241 1625 1900 1625 
Q 1206 1625 804 2044 
Q 403 2463 403 3188 
Q 403 3897 839 4323 
Q 1275 4750 2003 4750 
Q 2794 4750 3217 4161 
Q 3641 3572 3641 2478 
Q 3641 1253 3137 581 
Q 2634 -91 1722 -91 
Q 1475 -91 1203 -44 
Q 931 3 647 97 
L 647 872 
L 997 872 
Q 1038 556 1241 387 
Q 1444 219 1784 219 
Q 2391 219 2687 676 
Q 2984 1134 2994 2091 
z
M 1978 4441 
Q 1534 4441 1298 4117 
Q 1063 3794 1063 3188 
Q 1063 2581 1298 2256 
Q 1534 1931 1978 1931 
Q 2422 1931 2658 2245 
Q 2894 2559 2894 3150 
Q 2894 3772 2656 4106 
Q 2419 4441 1978 4441 
z
" transform="scale(0.015625)"/>
      <path id="DejaVuSerif-2c" d="M 231 -622 
Q 525 -406 662 -114 
Q 800 178 800 594 
L 800 709 
L 1416 709 
Q 1391 175 1164 -208 
Q 938 -591 481 -872 
L 231 -622 
z
" transform="scale(0.015625)"/>
      <path id="DejaVuSerif-38" d="M 2981 1275 
Q 2981 1775 2732 2051 
Q 2484 2328 2034 2328 
Q 1584 2328 1336 2051 
Q 1088 1775 1088 1275 
Q 1088 772 1336 495 
Q 1584 219 2034 219 
Q 2484 219 2732 495 
Q 2981 772 2981 1275 
z
M 2853 3541 
Q 2853 3966 2637 4203 
Q 2422 4441 2034 4441 
Q 1650 4441 1433 4203 
Q 1216 3966 1216 3541 
Q 1216 3113 1433 2875 
Q 1650 2638 2034 2638 
Q 2422 2638 2637 2875 
Q 2853 3113 2853 3541 
z
M 2516 2484 
Q 3047 2413 3344 2092 
Q 3641 1772 3641 1275 
Q 3641 619 3225 264 
Q 2809 -91 2034 -91 
Q 1263 -91 845 264 
Q 428 619 428 1275 
Q 428 1772 725 2092 
Q 1022 2413 1556 2484 
Q 1084 2569 832 2842 
Q 581 3116 581 3541 
Q 581 4103 968 4426 
Q 1356 4750 2034 4750 
Q 2713 4750 3100 4426 
Q 3488 4103 3488 3541 
Q 3488 3116 3236 2842 
Q 2984 2569 2516 2484 
z
" transform="scale(0.015625)"/>
      <path id="DejaVuSerif-35" d="M 3219 4666 
L 3219 4153 
L 1081 4153 
L 1081 2816 
Q 1244 2928 1461 2984 
Q 1678 3041 1947 3041 
Q 2703 3041 3140 2622 
Q 3578 2203 3578 1478 
Q 3578 738 3136 323 
Q 2694 -91 1894 -91 
Q 1572 -91 1234 -12 
Q 897 66 544 225 
L 544 1131 
L 897 1131 
Q 925 688 1179 453 
Q 1434 219 1894 219 
Q 2388 219 2653 544 
Q 2919 869 2919 1478 
Q 2919 2084 2655 2407 
Q 2391 2731 1894 2731 
Q 1613 2731 1398 2631 
Q 1184 2531 1019 2322 
L 750 2322 
L 750 4666 
L 3219 4666 
z
" transform="scale(0.015625)"/>
      <path id="DejaVuSerif-29" d="M 453 -997 
L 453 -691 
Q 934 -359 1145 242 
Q 1356 844 1356 1931 
Q 1356 3022 1145 3623 
Q 934 4225 453 4556 
L 453 4863 
Q 1216 4522 1603 3783 
Q 1991 3044 1991 1931 
Q 1991 822 1603 83 
Q 1216 -656 453 -997 
z
" transform="scale(0.015625)"/>
     </defs>
     <use xlink:href="#DejaVuSerif-28"/>
     <use xlink:href="#DejaVuSerif-36" transform="translate(39.013672 0)"/>
     <use xlink:href="#DejaVuSerif-39" transform="translate(102.636719 0)"/>
     <use xlink:href="#DejaVuSerif-2c" transform="translate(166.259766 0)"/>
     <use xlink:href="#DejaVuSerif-38" transform="translate(198.046875 0)"/>
     <use xlink:href="#DejaVuSerif-35" transform="translate(261.669922 0)"/>
     <use xlink:href="#DejaVuSerif-35" transform="translate(325.292969 0)"/>
     <use xlink:href="#DejaVuSerif-29" transform="translate(388.916016 0)"/>
    </g>
   </g>
   <g id="text_2">
    <!-- 60% -->
    <g transform="translate(108.378825 259.574528) scale(0.09 -0.09)">
     <defs>
      <path id="DejaVuSerif-30" d="M 2034 219 
Q 2513 219 2750 744 
Q 2988 1269 2988 2328 
Q 2988 3391 2750 3916 
Q 2513 4441 2034 4441 
Q 1556 4441 1318 3916 
Q 1081 3391 1081 2328 
Q 1081 1269 1318 744 
Q 1556 219 2034 219 
z
M 2034 -91 
Q 1275 -91 848 546 
Q 422 1184 422 2328 
Q 422 3475 848 4112 
Q 1275 4750 2034 4750 
Q 2797 4750 3222 4112 
Q 3647 3475 3647 2328 
Q 3647 1184 3222 546 
Q 2797 -91 2034 -91 
z
" transform="scale(0.015625)"/>
      <path id="DejaVuSerif-25" d="M 1434 4459 
Q 1159 4459 1004 4200 
Q 850 3941 850 3475 
Q 850 3016 1008 2753 
Q 1166 2491 1434 2491 
Q 1700 2491 1854 2752 
Q 2009 3013 2009 3475 
Q 2009 3938 1854 4198 
Q 1700 4459 1434 4459 
z
M 4653 2169 
Q 4381 2169 4226 1906 
Q 4072 1644 4072 1178 
Q 4072 719 4228 458 
Q 4384 197 4653 197 
Q 4922 197 5075 458 
Q 5228 719 5228 1178 
Q 5228 1641 5073 1905 
Q 4919 2169 4653 2169 
z
M 4653 2450 
Q 5147 2450 5437 2106 
Q 5728 1763 5728 1178 
Q 5728 594 5436 251 
Q 5144 -91 4653 -91 
Q 4153 -91 3862 251 
Q 3572 594 3572 1178 
Q 3572 1766 3864 2108 
Q 4156 2450 4653 2450 
z
M 4263 4750 
L 4738 4750 
L 1819 -91 
L 1344 -91 
L 4263 4750 
z
M 1428 4750 
Q 1922 4750 2215 4408 
Q 2509 4066 2509 3481 
Q 2509 2891 2217 2550 
Q 1925 2209 1428 2209 
Q 931 2209 642 2551 
Q 353 2894 353 3481 
Q 353 4063 643 4406 
Q 934 4750 1428 4750 
z
" transform="scale(0.015625)"/>
     </defs>
     <use xlink:href="#DejaVuSerif-36"/>
     <use xlink:href="#DejaVuSerif-30" transform="translate(63.623047 0)"/>
     <use xlink:href="#DejaVuSerif-25" transform="translate(127.246094 0)"/>
    </g>
   </g>
   <g id="text_3">
    <!-- Real→Conv -->
    <g transform="translate(245.022499 146.434732) scale(0.09 -0.09)">
     <defs>
      <path id="DejaVuSerif-2192" d="M 366 2322 
L 4391 2322 
L 3788 3375 
L 3822 3375 
L 5125 2084 
L 5125 2053 
L 3822 763 
L 3788 763 
L 4391 1816 
L 366 1816 
L 366 2322 
z
" transform="scale(0.015625)"/>
      <path id="DejaVuSerif-43" d="M 4513 1234 
Q 4306 581 3820 245 
Q 3334 -91 2591 -91 
Q 2134 -91 1743 65 
Q 1353 222 1050 525 
Q 700 875 529 1320 
Q 359 1766 359 2328 
Q 359 3416 987 4083 
Q 1616 4750 2644 4750 
Q 3025 4750 3456 4650 
Q 3888 4550 4384 4347 
L 4384 3272 
L 4031 3272 
Q 3916 3859 3567 4137 
Q 3219 4416 2591 4416 
Q 1844 4416 1459 3886 
Q 1075 3356 1075 2328 
Q 1075 1303 1459 773 
Q 1844 244 2591 244 
Q 3113 244 3450 492 
Q 3788 741 3938 1234 
L 4513 1234 
z
" transform="scale(0.015625)"/>
      <path id="DejaVuSerif-6f" d="M 1925 219 
Q 2388 219 2623 584 
Q 2859 950 2859 1663 
Q 2859 2375 2623 2739 
Q 2388 3103 1925 3103 
Q 1463 3103 1227 2739 
Q 991 2375 991 1663 
Q 991 950 1228 584 
Q 1466 219 1925 219 
z
M 1925 -91 
Q 1200 -91 759 389 
Q 319 869 319 1663 
Q 319 2456 758 2934 
Q 1197 3413 1925 3413 
Q 2653 3413 3092 2934 
Q 3531 2456 3531 1663 
Q 3531 869 3092 389 
Q 2653 -91 1925 -91 
z
" transform="scale(0.015625)"/>
      <path id="DejaVuSerif-6e" d="M 263 0 
L 263 331 
L 781 331 
L 781 2988 
L 231 2988 
L 231 3322 
L 1356 3322 
L 1356 2731 
Q 1516 3069 1770 3241 
Q 2025 3413 2363 3413 
Q 2913 3413 3172 3097 
Q 3431 2781 3431 2113 
L 3431 331 
L 3944 331 
L 3944 0 
L 2356 0 
L 2356 331 
L 2853 331 
L 2853 1931 
Q 2853 2541 2703 2767 
Q 2553 2994 2175 2994 
Q 1775 2994 1565 2701 
Q 1356 2409 1356 1850 
L 1356 331 
L 1856 331 
L 1856 0 
L 263 0 
z
" transform="scale(0.015625)"/>
      <path id="DejaVuSerif-76" d="M 1581 0 
L 359 2988 
L -19 2988 
L -19 3322 
L 1509 3322 
L 1509 2988 
L 978 2988 
L 1913 703 
L 2847 2988 
L 2350 2988 
L 2350 3322 
L 3597 3322 
L 3597 2988 
L 3225 2988 
L 2003 0 
L 1581 0 
z
" transform="scale(0.015625)"/>
     </defs>
     <use xlink:href="#DejaVuSerif-52"/>
     <use xlink:href="#DejaVuSerif-65" transform="translate(75.292969 0)"/>
     <use xlink:href="#DejaVuSerif-61" transform="translate(134.472656 0)"/>
     <use xlink:href="#DejaVuSerif-6c" transform="translate(194.091797 0)"/>
     <use xlink:href="#DejaVuSerif-2192" transform="translate(226.074219 0)"/>
     <use xlink:href="#DejaVuSerif-43" transform="translate(309.863281 0)"/>
     <use xlink:href="#DejaVuSerif-6f" transform="translate(386.376953 0)"/>
     <use xlink:href="#DejaVuSerif-6e" transform="translate(446.582031 0)"/>
     <use xlink:href="#DejaVuSerif-76" transform="translate(510.986328 0)"/>
    </g>
    <!-- (~18,544) -->
    <g transform="translate(245.022499 156.512763) scale(0.09 -0.09)">
     <defs>
      <path id="DejaVuSerif-7e" d="M 4684 2522 
L 4684 2059 
Q 4372 1784 4090 1653 
Q 3809 1522 3519 1522 
Q 3219 1522 2675 1728 
L 2644 1741 
Q 2609 1753 2541 1781 
Q 2081 1959 1784 1959 
Q 1497 1959 1226 1845 
Q 956 1731 678 1491 
L 678 1966 
Q 991 2238 1270 2364 
Q 1550 2491 1844 2491 
Q 2144 2491 2688 2284 
L 2719 2272 
Q 2753 2259 2816 2234 
Q 3269 2053 3572 2053 
Q 3859 2053 4134 2168 
Q 4409 2284 4684 2522 
z
" transform="scale(0.015625)"/>
      <path id="DejaVuSerif-31" d="M 909 0 
L 909 331 
L 1722 331 
L 1722 4213 
L 781 3603 
L 781 4013 
L 1919 4750 
L 2350 4750 
L 2350 331 
L 3163 331 
L 3163 0 
L 909 0 
z
" transform="scale(0.015625)"/>
      <path id="DejaVuSerif-34" d="M 2234 1581 
L 2234 4063 
L 641 1581 
L 2234 1581 
z
M 3609 0 
L 1484 0 
L 1484 331 
L 2234 331 
L 2234 1247 
L 197 1247 
L 197 1588 
L 2241 4750 
L 2859 4750 
L 2859 1581 
L 3750 1581 
L 3750 1247 
L 2859 1247 
L 2859 331 
L 3609 331 
L 3609 0 
z
" transform="scale(0.015625)"/>
     </defs>
     <use xlink:href="#DejaVuSerif-28"/>
     <use xlink:href="#DejaVuSerif-7e" transform="translate(39.013672 0)"/>
     <use xlink:href="#DejaVuSerif-31" transform="translate(122.802734 0)"/>
     <use xlink:href="#DejaVuSerif-38" transform="translate(186.425781 0)"/>
     <use xlink:href="#DejaVuSerif-2c" transform="translate(250.048828 0)"/>
     <use xlink:href="#DejaVuSerif-35" transform="translate(281.835938 0)"/>
     <use xlink:href="#DejaVuSerif-34" transform="translate(345.458984 0)"/>
     <use xlink:href="#DejaVuSerif-34" transform="translate(409.082031 0)"/>
     <use xlink:href="#DejaVuSerif-29" transform="translate(472.705078 0)"/>
    </g>
   </g>
   <g id="text_4">
    <!-- 16% -->
    <g transform="translate(187.928501 174.105425) scale(0.09 -0.09)">
     <use xlink:href="#DejaVuSerif-31"/>
     <use xlink:href="#DejaVuSerif-36" transform="translate(63.623047 0)"/>
     <use xlink:href="#DejaVuSerif-25" transform="translate(127.246094 0)"/>
    </g>
   </g>
   <g id="text_5">
    <!-- Fake -->
    <g transform="translate(183.658641 89.320782) scale(0.09 -0.09)">
     <defs>
      <path id="DejaVuSerif-46" d="M 353 0 
L 353 331 
L 947 331 
L 947 4331 
L 353 4331 
L 353 4666 
L 4172 4666 
L 4172 3628 
L 3788 3628 
L 3788 4281 
L 1581 4281 
L 1581 2719 
L 3175 2719 
L 3175 3303 
L 3559 3303 
L 3559 1753 
L 3175 1753 
L 3175 2338 
L 1581 2338 
L 1581 331 
L 2328 331 
L 2328 0 
L 353 0 
z
" transform="scale(0.015625)"/>
      <path id="DejaVuSerif-6b" d="M 1831 0 
L 219 0 
L 219 331 
L 738 331 
L 738 4531 
L 184 4531 
L 184 4863 
L 1313 4863 
L 1313 1697 
L 2713 2988 
L 2234 2988 
L 2234 3322 
L 3738 3322 
L 3738 2988 
L 3169 2988 
L 2181 2075 
L 3444 331 
L 3922 331 
L 3922 0 
L 2284 0 
L 2284 331 
L 2759 331 
L 1766 1697 
L 1313 1275 
L 1313 331 
L 1831 331 
L 1831 0 
z
" transform="scale(0.015625)"/>
     </defs>
     <use xlink:href="#DejaVuSerif-46"/>
     <use xlink:href="#DejaVuSerif-61" transform="translate(62.634766 0)"/>
     <use xlink:href="#DejaVuSerif-6b" transform="translate(122.253906 0)"/>
     <use xlink:href="#DejaVuSerif-65" transform="translate(182.849609 0)"/>
    </g>
    <!-- (~9,009) -->
    <g transform="translate(183.658641 99.398813) scale(0.09 -0.09)">
     <use xlink:href="#DejaVuSerif-28"/>
     <use xlink:href="#DejaVuSerif-7e" transform="translate(39.013672 0)"/>
     <use xlink:href="#DejaVuSerif-39" transform="translate(122.802734 0)"/>
     <use xlink:href="#DejaVuSerif-2c" transform="translate(186.425781 0)"/>
     <use xlink:href="#DejaVuSerif-30" transform="translate(218.212891 0)"/>
     <use xlink:href="#DejaVuSerif-30" transform="translate(281.835938 0)"/>
     <use xlink:href="#DejaVuSerif-39" transform="translate(345.458984 0)"/>
     <use xlink:href="#DejaVuSerif-29" transform="translate(409.082031 0)"/>
    </g>
   </g>
   <g id="text_6">
    <!-- 8% -->
    <g transform="translate(157.32043 142.952361) scale(0.09 -0.09)">
     <use xlink:href="#DejaVuSerif-38"/>
     <use xlink:href="#DejaVuSerif-25" transform="translate(63.623047 0)"/>
    </g>
   </g>
   <g id="text_7">
    <!-- Fake→Conv -->
    <g transform="translate(47.316545 89.06726) scale(0.09 -0.09)">
     <use xlink:href="#DejaVuSerif-46"/>
     <use xlink:href="#DejaVuSerif-61" transform="translate(62.634766 0)"/>
     <use xlink:href="#DejaVuSerif-6b" transform="translate(122.253906 0)"/>
     <use xlink:href="#DejaVuSerif-65" transform="translate(182.849609 0)"/>
     <use xlink:href="#DejaVuSerif-2192" transform="translate(242.029297 0)"/>
     <use xlink:href="#DejaVuSerif-43" transform="translate(325.818359 0)"/>
     <use xlink:href="#DejaVuSerif-6f" transform="translate(402.332031 0)"/>
     <use xlink:href="#DejaVuSerif-6e" transform="translate(462.537109 0)"/>
     <use xlink:href="#DejaVuSerif-76" transform="translate(526.941406 0)"/>
    </g>
    <!-- (~18,544) -->
    <g transform="translate(53.772639 99.145291) scale(0.09 -0.09)">
     <use xlink:href="#DejaVuSerif-28"/>
     <use xlink:href="#DejaVuSerif-7e" transform="translate(39.013672 0)"/>
     <use xlink:href="#DejaVuSerif-31" transform="translate(122.802734 0)"/>
     <use xlink:href="#DejaVuSerif-38" transform="translate(186.425781 0)"/>
     <use xlink:href="#DejaVuSerif-2c" transform="translate(250.048828 0)"/>
     <use xlink:href="#DejaVuSerif-35" transform="translate(281.835938 0)"/>
     <use xlink:href="#DejaVuSerif-34" transform="translate(345.458984 0)"/>
     <use xlink:href="#DejaVuSerif-34" transform="translate(409.082031 0)"/>
     <use xlink:href="#DejaVuSerif-29" transform="translate(472.705078 0)"/>
    </g>
   </g>
   <g id="text_8">
    <!-- 16% -->
    <g transform="translate(108.731901 142.814076) scale(0.09 -0.09)">
     <use xlink:href="#DejaVuSerif-31"/>
     <use xlink:href="#DejaVuSerif-36" transform="translate(63.623047 0)"/>
     <use xlink:href="#DejaVuSerif-25" transform="translate(127.246094 0)"/>
    </g>
   </g>
   <g id="text_9">
    <!-- MLAAD Dataset Composition -->
    <g transform="translate(51.894609 62.16) scale(0.11 -0.11)">
     <defs>
      <path id="DejaVuSerif-Bold-4d" d="M 269 0 
L 269 378 
L 863 378 
L 863 4288 
L 269 4288 
L 269 4666 
L 2194 4666 
L 3525 1672 
L 4863 4666 
L 6784 4666 
L 6784 4288 
L 6188 4288 
L 6188 378 
L 6784 378 
L 6784 0 
L 4384 0 
L 4384 378 
L 4978 378 
L 4978 3938 
L 3531 684 
L 2741 684 
L 1300 3938 
L 1300 378 
L 1894 378 
L 1894 0 
L 269 0 
z
" transform="scale(0.015625)"/>
      <path id="DejaVuSerif-Bold-4c" d="M 300 0 
L 300 378 
L 897 378 
L 897 4288 
L 300 4288 
L 300 4666 
L 2700 4666 
L 2700 4288 
L 2100 4288 
L 2100 428 
L 3938 428 
L 3938 1166 
L 4359 1166 
L 4359 0 
L 300 0 
z
" transform="scale(0.015625)"/>
      <path id="DejaVuSerif-Bold-41" d="M -50 0 
L -50 378 
L 331 378 
L 2088 4666 
L 2834 4666 
L 4594 378 
L 5038 378 
L 5038 0 
L 2853 0 
L 2853 378 
L 3309 378 
L 2925 1331 
L 1172 1331 
L 781 378 
L 1338 378 
L 1338 0 
L -50 0 
z
M 1325 1709 
L 2772 1709 
L 2053 3494 
L 1325 1709 
z
" transform="scale(0.015625)"/>
      <path id="DejaVuSerif-Bold-44" d="M 2100 378 
L 2534 378 
Q 3266 378 3605 847 
Q 3944 1316 3944 2338 
Q 3944 3353 3606 3820 
Q 3269 4288 2534 4288 
L 2100 4288 
L 2100 378 
z
M 300 0 
L 300 378 
L 897 378 
L 897 4288 
L 300 4288 
L 300 4666 
L 2694 4666 
Q 3950 4666 4615 4066 
Q 5281 3466 5281 2338 
Q 5281 1203 4614 601 
Q 3947 0 2694 0 
L 300 0 
z
" transform="scale(0.015625)"/>
      <path id="DejaVuSerif-Bold-20" transform="scale(0.015625)"/>
      <path id="DejaVuSerif-Bold-61" d="M 3525 2041 
L 3525 378 
L 4000 378 
L 4000 0 
L 2419 0 
L 2419 422 
Q 2200 159 1931 34 
Q 1663 -91 1319 -91 
Q 809 -91 536 182 
Q 263 456 263 966 
Q 263 1525 655 1803 
Q 1047 2081 1838 2081 
L 2419 2081 
L 2419 2278 
Q 2419 2681 2228 2873 
Q 2038 3066 1638 3066 
Q 1306 3066 1126 2930 
Q 947 2794 872 2484 
L 519 2484 
L 519 3200 
Q 816 3306 1134 3359 
Q 1453 3413 1806 3413 
Q 2697 3413 3111 3081 
Q 3525 2750 3525 2041 
z
M 2419 1044 
L 2419 1709 
L 2003 1709 
Q 1694 1709 1528 1540 
Q 1363 1372 1363 1056 
Q 1363 741 1483 584 
Q 1603 428 1850 428 
Q 2106 428 2262 597 
Q 2419 766 2419 1044 
z
" transform="scale(0.015625)"/>
      <path id="DejaVuSerif-Bold-74" d="M 634 2944 
L 153 2944 
L 153 3322 
L 634 3322 
L 634 4353 
L 1741 4353 
L 1741 3322 
L 2663 3322 
L 2663 2944 
L 1741 2944 
L 1741 909 
Q 1741 475 1809 369 
Q 1878 263 2059 263 
Q 2259 263 2356 397 
Q 2453 531 2459 813 
L 2925 813 
Q 2897 313 2651 111 
Q 2406 -91 1806 -91 
Q 1122 -91 878 123 
Q 634 338 634 909 
L 634 2944 
z
" transform="scale(0.015625)"/>
      <path id="DejaVuSerif-Bold-73" d="M 300 97 
L 300 1025 
L 653 1025 
Q 697 653 931 458 
Q 1166 263 1569 263 
Q 1906 263 2086 380 
Q 2266 497 2266 716 
Q 2266 916 2152 1025 
Q 2038 1134 1709 1216 
L 1253 1331 
Q 738 1459 506 1698 
Q 275 1938 275 2344 
Q 275 2884 650 3148 
Q 1025 3413 1806 3413 
Q 2100 3413 2433 3364 
Q 2766 3316 3169 3213 
L 3169 2375 
L 2816 2375 
Q 2788 2716 2573 2887 
Q 2359 3059 1959 3059 
Q 1622 3059 1448 2951 
Q 1275 2844 1275 2638 
Q 1275 2469 1375 2372 
Q 1475 2275 1734 2209 
L 2188 2094 
Q 2841 1928 3091 1684 
Q 3341 1441 3341 1006 
Q 3341 444 2939 176 
Q 2538 -91 1691 -91 
Q 1381 -91 1034 -44 
Q 688 3 300 97 
z
" transform="scale(0.015625)"/>
      <path id="DejaVuSerif-Bold-65" d="M 2566 1875 
Q 2566 2531 2444 2795 
Q 2322 3059 2028 3059 
Q 1744 3059 1620 2800 
Q 1497 2541 1497 1931 
L 1497 1875 
L 2566 1875 
z
M 3781 1503 
L 1497 1503 
L 1497 1478 
Q 1497 834 1690 548 
Q 1884 263 2316 263 
Q 2675 263 2897 453 
Q 3119 644 3181 1006 
L 3700 1006 
Q 3566 441 3166 175 
Q 2766 -91 2047 -91 
Q 1184 -91 723 364 
Q 263 819 263 1663 
Q 263 2488 734 2950 
Q 1206 3413 2047 3413 
Q 2872 3413 3312 2927 
Q 3753 2441 3781 1503 
z
" transform="scale(0.015625)"/>
      <path id="DejaVuSerif-Bold-43" d="M 4769 1331 
Q 4584 609 4106 259 
Q 3628 -91 2822 -91 
Q 1641 -91 955 561 
Q 269 1213 269 2328 
Q 269 3447 955 4098 
Q 1641 4750 2822 4750 
Q 3238 4750 3688 4650 
Q 4138 4550 4641 4347 
L 4641 3200 
L 4244 3200 
Q 4122 3788 3800 4080 
Q 3478 4372 2950 4372 
Q 2269 4372 1937 3870 
Q 1606 3369 1606 2328 
Q 1606 1288 1937 788 
Q 2269 288 2956 288 
Q 3422 288 3717 547 
Q 4013 806 4147 1331 
L 4769 1331 
z
" transform="scale(0.015625)"/>
      <path id="DejaVuSerif-Bold-6f" d="M 2138 263 
Q 2488 263 2630 563 
Q 2772 863 2772 1663 
Q 2772 2463 2631 2761 
Q 2491 3059 2138 3059 
Q 1784 3059 1640 2757 
Q 1497 2456 1497 1663 
Q 1497 869 1640 566 
Q 1784 263 2138 263 
z
M 2138 -91 
Q 1259 -91 761 376 
Q 263 844 263 1663 
Q 263 2484 761 2948 
Q 1259 3413 2138 3413 
Q 3019 3413 3516 2948 
Q 4013 2484 4013 1663 
Q 4013 844 3514 376 
Q 3016 -91 2138 -91 
z
" transform="scale(0.015625)"/>
      <path id="DejaVuSerif-Bold-6d" d="M 3884 2778 
Q 4116 3109 4384 3261 
Q 4653 3413 5013 3413 
Q 5584 3413 5867 3089 
Q 6150 2766 6150 2113 
L 6150 378 
L 6625 378 
L 6625 0 
L 4647 0 
L 4647 378 
L 5044 378 
L 5044 1947 
Q 5044 2569 4948 2731 
Q 4853 2894 4594 2894 
Q 4300 2894 4137 2667 
Q 3975 2441 3975 2022 
L 3975 378 
L 4372 378 
L 4372 0 
L 2472 0 
L 2472 378 
L 2869 378 
L 2869 1947 
Q 2869 2569 2772 2731 
Q 2675 2894 2419 2894 
Q 2122 2894 1959 2667 
Q 1797 2441 1797 2022 
L 1797 378 
L 2194 378 
L 2194 0 
L 219 0 
L 219 378 
L 691 378 
L 691 2944 
L 219 2944 
L 219 3322 
L 1797 3322 
L 1797 2853 
Q 1991 3144 2241 3278 
Q 2491 3413 2834 3413 
Q 3241 3413 3494 3258 
Q 3747 3103 3884 2778 
z
" transform="scale(0.015625)"/>
      <path id="DejaVuSerif-Bold-70" d="M 1728 1825 
L 1728 1497 
Q 1728 916 1876 656 
Q 2025 397 2356 397 
Q 2697 397 2836 672 
Q 2975 947 2975 1663 
Q 2975 2378 2836 2651 
Q 2697 2925 2356 2925 
Q 2025 2925 1876 2665 
Q 1728 2406 1728 1825 
z
M 622 2944 
L 147 2944 
L 147 3322 
L 1728 3322 
L 1728 2900 
Q 1869 3159 2106 3286 
Q 2344 3413 2694 3413 
Q 3403 3413 3811 2945 
Q 4219 2478 4219 1663 
Q 4219 847 3811 378 
Q 3403 -91 2694 -91 
Q 2344 -91 2106 36 
Q 1869 163 1728 422 
L 1728 -953 
L 2241 -953 
L 2241 -1331 
L 147 -1331 
L 147 -953 
L 622 -953 
L 622 2944 
z
" transform="scale(0.015625)"/>
      <path id="DejaVuSerif-Bold-69" d="M 588 4263 
Q 588 4516 763 4689 
Q 938 4863 1191 4863 
Q 1438 4863 1611 4689 
Q 1784 4516 1784 4263 
Q 1784 4016 1611 3842 
Q 1438 3669 1191 3669 
Q 938 3669 763 3841 
Q 588 4013 588 4263 
z
M 1797 378 
L 2272 378 
L 2272 0 
L 219 0 
L 219 378 
L 691 378 
L 691 2944 
L 219 2944 
L 219 3322 
L 1797 3322 
L 1797 378 
z
" transform="scale(0.015625)"/>
      <path id="DejaVuSerif-Bold-6e" d="M 219 0 
L 219 378 
L 691 378 
L 691 2944 
L 219 2944 
L 219 3322 
L 1797 3322 
L 1797 2853 
Q 1997 3150 2253 3281 
Q 2509 3413 2900 3413 
Q 3459 3413 3745 3083 
Q 4031 2753 4031 2113 
L 4031 378 
L 4506 378 
L 4506 0 
L 2522 0 
L 2522 378 
L 2925 378 
L 2925 2144 
Q 2925 2566 2817 2730 
Q 2709 2894 2444 2894 
Q 2109 2894 1953 2648 
Q 1797 2403 1797 1869 
L 1797 378 
L 2203 378 
L 2203 0 
L 219 0 
z
" transform="scale(0.015625)"/>
     </defs>
     <use xlink:href="#DejaVuSerif-Bold-4d"/>
     <use xlink:href="#DejaVuSerif-Bold-4c" transform="translate(110.693359 0)"/>
     <use xlink:href="#DejaVuSerif-Bold-41" transform="translate(181.005859 0)"/>
     <use xlink:href="#DejaVuSerif-Bold-41" transform="translate(258.59375 0)"/>
     <use xlink:href="#DejaVuSerif-Bold-44" transform="translate(336.181641 0)"/>
     <use xlink:href="#DejaVuSerif-Bold-20" transform="translate(422.900391 0)"/>
     <use xlink:href="#DejaVuSerif-Bold-44" transform="translate(457.714844 0)"/>
     <use xlink:href="#DejaVuSerif-Bold-61" transform="translate(544.433594 0)"/>
     <use xlink:href="#DejaVuSerif-Bold-74" transform="translate(609.228516 0)"/>
     <use xlink:href="#DejaVuSerif-Bold-61" transform="translate(655.419922 0)"/>
     <use xlink:href="#DejaVuSerif-Bold-73" transform="translate(720.214844 0)"/>
     <use xlink:href="#DejaVuSerif-Bold-65" transform="translate(776.513672 0)"/>
     <use xlink:href="#DejaVuSerif-Bold-74" transform="translate(840.136719 0)"/>
     <use xlink:href="#DejaVuSerif-Bold-20" transform="translate(886.328125 0)"/>
     <use xlink:href="#DejaVuSerif-Bold-43" transform="translate(921.142578 0)"/>
     <use xlink:href="#DejaVuSerif-Bold-6f" transform="translate(1000.732422 0)"/>
     <use xlink:href="#DejaVuSerif-Bold-6d" transform="translate(1067.431641 0)"/>
     <use xlink:href="#DejaVuSerif-Bold-70" transform="translate(1173.242188 0)"/>
     <use xlink:href="#DejaVuSerif-Bold-6f" transform="translate(1243.164062 0)"/>
     <use xlink:href="#DejaVuSerif-Bold-73" transform="translate(1309.863281 0)"/>
     <use xlink:href="#DejaVuSerif-Bold-69" transform="translate(1366.162109 0)"/>
     <use xlink:href="#DejaVuSerif-Bold-74" transform="translate(1404.150391 0)"/>
     <use xlink:href="#DejaVuSerif-Bold-69" transform="translate(1450.341797 0)"/>
     <use xlink:href="#DejaVuSerif-Bold-6f" transform="translate(1488.330078 0)"/>
     <use xlink:href="#DejaVuSerif-Bold-6e" transform="translate(1555.029297 0)"/>
    </g>
   </g>
  </g>
  <g id="axes_2">
   <g id="patch_6">
    <path d="M 480.438914 131.611266 
C 475.535235 137.455242 471.286232 143.818677 467.767935 150.587703 
C 464.249639 157.356729 461.483161 164.490728 459.518006 171.862043 
L 560.487494 198.78 
z
" style="fill: #2e86ab"/>
   </g>
   <g id="patch_7">
    <path d="M 459.518003 171.862047 
C 455.576007 186.648505 454.929818 202.121988 457.625222 217.185635 
C 460.320632 232.249282 466.292411 246.538551 475.117261 259.040579 
C 483.942111 271.542605 495.406452 281.954818 508.697665 289.539173 
C 521.988875 297.123528 536.78531 301.696466 552.0381 302.933834 
L 560.487494 198.78 
z
" style="fill: #a23b72"/>
   </g>
   <g id="patch_8">
    <path d="M 552.0381 302.933834 
C 566.567979 304.112555 581.185044 302.237874 594.947199 297.430609 
C 608.709354 292.623344 621.31447 284.989043 631.950215 275.01971 
C 642.585961 265.050377 651.018805 252.964891 656.705284 239.542124 
C 662.391762 226.119357 665.207033 211.653973 664.969636 197.078296 
L 560.487494 198.78 
z
" style="fill: #f18f01"/>
   </g>
   <g id="patch_9">
    <path d="M 664.969636 197.078296 
C 664.622823 175.784515 657.774559 155.097198 645.347163 137.802539 
C 632.919767 120.507879 615.497387 107.418786 595.426472 100.298114 
C 575.35556 93.177442 553.579587 92.359883 533.031254 97.955551 
C 512.482922 103.551219 494.128094 115.297123 480.438902 131.611276 
L 560.487494 198.78 
z
" style="fill: #c73e1d"/>
   </g>
   <g id="matplotlib.axis_3"/>
   <g id="matplotlib.axis_4"/>
   <g id="text_10">
    <!-- Real -->
    <g transform="translate(438.147528 143.212922) scale(0.09 -0.09)">
     <use xlink:href="#DejaVuSerif-52"/>
     <use xlink:href="#DejaVuSerif-65" transform="translate(75.292969 0)"/>
     <use xlink:href="#DejaVuSerif-61" transform="translate(134.472656 0)"/>
     <use xlink:href="#DejaVuSerif-6c" transform="translate(194.091797 0)"/>
    </g>
    <!-- (14,171) -->
    <g transform="translate(419.981591 153.290953) scale(0.09 -0.09)">
     <defs>
      <path id="DejaVuSerif-37" d="M 3609 4347 
L 1784 0 
L 1319 0 
L 3059 4153 
L 903 4153 
L 903 3578 
L 538 3578 
L 538 4666 
L 3609 4666 
L 3609 4347 
z
" transform="scale(0.015625)"/>
     </defs>
     <use xlink:href="#DejaVuSerif-28"/>
     <use xlink:href="#DejaVuSerif-31" transform="translate(39.013672 0)"/>
     <use xlink:href="#DejaVuSerif-34" transform="translate(102.636719 0)"/>
     <use xlink:href="#DejaVuSerif-2c" transform="translate(166.259766 0)"/>
     <use xlink:href="#DejaVuSerif-31" transform="translate(198.046875 0)"/>
     <use xlink:href="#DejaVuSerif-37" transform="translate(261.669922 0)"/>
     <use xlink:href="#DejaVuSerif-31" transform="translate(325.292969 0)"/>
     <use xlink:href="#DejaVuSerif-29" transform="translate(388.916016 0)"/>
    </g>
   </g>
   <g id="text_11">
    <!-- 7% -->
    <g transform="translate(497.716923 172.348074) scale(0.09 -0.09)">
     <use xlink:href="#DejaVuSerif-37"/>
     <use xlink:href="#DejaVuSerif-25" transform="translate(63.623047 0)"/>
    </g>
   </g>
   <g id="text_12">
    <!-- Real→Conv -->
    <g transform="translate(415.503849 262.511083) scale(0.09 -0.09)">
     <use xlink:href="#DejaVuSerif-52"/>
     <use xlink:href="#DejaVuSerif-65" transform="translate(75.292969 0)"/>
     <use xlink:href="#DejaVuSerif-61" transform="translate(134.472656 0)"/>
     <use xlink:href="#DejaVuSerif-6c" transform="translate(194.091797 0)"/>
     <use xlink:href="#DejaVuSerif-2192" transform="translate(226.074219 0)"/>
     <use xlink:href="#DejaVuSerif-43" transform="translate(309.863281 0)"/>
     <use xlink:href="#DejaVuSerif-6f" transform="translate(386.376953 0)"/>
     <use xlink:href="#DejaVuSerif-6e" transform="translate(446.582031 0)"/>
     <use xlink:href="#DejaVuSerif-76" transform="translate(510.986328 0)"/>
    </g>
    <!-- (56,684) -->
    <g transform="translate(428.06588 272.589114) scale(0.09 -0.09)">
     <use xlink:href="#DejaVuSerif-28"/>
     <use xlink:href="#DejaVuSerif-35" transform="translate(39.013672 0)"/>
     <use xlink:href="#DejaVuSerif-36" transform="translate(102.636719 0)"/>
     <use xlink:href="#DejaVuSerif-2c" transform="translate(166.259766 0)"/>
     <use xlink:href="#DejaVuSerif-36" transform="translate(198.046875 0)"/>
     <use xlink:href="#DejaVuSerif-38" transform="translate(261.669922 0)"/>
     <use xlink:href="#DejaVuSerif-34" transform="translate(325.292969 0)"/>
     <use xlink:href="#DejaVuSerif-29" transform="translate(388.916016 0)"/>
    </g>
   </g>
   <g id="text_13">
    <!-- 28% -->
    <g transform="translate(499.26341 237.419798) scale(0.09 -0.09)">
     <defs>
      <path id="DejaVuSerif-32" d="M 819 3553 
L 469 3553 
L 469 4384 
Q 803 4563 1142 4656 
Q 1481 4750 1806 4750 
Q 2534 4750 2956 4397 
Q 3378 4044 3378 3438 
Q 3378 2753 2422 1800 
Q 2347 1728 2309 1691 
L 1131 513 
L 3078 513 
L 3078 1088 
L 3444 1088 
L 3444 0 
L 434 0 
L 434 341 
L 1850 1753 
Q 2319 2222 2519 2614 
Q 2719 3006 2719 3438 
Q 2719 3909 2473 4175 
Q 2228 4441 1797 4441 
Q 1350 4441 1106 4219 
Q 863 3997 819 3553 
z
" transform="scale(0.015625)"/>
     </defs>
     <use xlink:href="#DejaVuSerif-32"/>
     <use xlink:href="#DejaVuSerif-38" transform="translate(63.623047 0)"/>
     <use xlink:href="#DejaVuSerif-25" transform="translate(127.246094 0)"/>
    </g>
   </g>
   <g id="text_14">
    <!-- Fake -->
    <g transform="translate(639.096532 280.088062) scale(0.09 -0.09)">
     <use xlink:href="#DejaVuSerif-46"/>
     <use xlink:href="#DejaVuSerif-61" transform="translate(62.634766 0)"/>
     <use xlink:href="#DejaVuSerif-6b" transform="translate(122.253906 0)"/>
     <use xlink:href="#DejaVuSerif-65" transform="translate(182.849609 0)"/>
    </g>
    <!-- (54,017) -->
    <g transform="translate(639.096532 290.166093) scale(0.09 -0.09)">
     <use xlink:href="#DejaVuSerif-28"/>
     <use xlink:href="#DejaVuSerif-35" transform="translate(39.013672 0)"/>
     <use xlink:href="#DejaVuSerif-34" transform="translate(102.636719 0)"/>
     <use xlink:href="#DejaVuSerif-2c" transform="translate(166.259766 0)"/>
     <use xlink:href="#DejaVuSerif-30" transform="translate(198.046875 0)"/>
     <use xlink:href="#DejaVuSerif-31" transform="translate(261.669922 0)"/>
     <use xlink:href="#DejaVuSerif-37" transform="translate(325.292969 0)"/>
     <use xlink:href="#DejaVuSerif-29" transform="translate(388.916016 0)"/>
    </g>
   </g>
   <g id="text_15">
    <!-- 27% -->
    <g transform="translate(593.363198 247.007241) scale(0.09 -0.09)">
     <use xlink:href="#DejaVuSerif-32"/>
     <use xlink:href="#DejaVuSerif-37" transform="translate(63.623047 0)"/>
     <use xlink:href="#DejaVuSerif-25" transform="translate(127.246094 0)"/>
    </g>
   </g>
   <g id="text_16">
    <!-- Fake→Conv -->
    <g transform="translate(598.920318 87.894329) scale(0.09 -0.09)">
     <use xlink:href="#DejaVuSerif-46"/>
     <use xlink:href="#DejaVuSerif-61" transform="translate(62.634766 0)"/>
     <use xlink:href="#DejaVuSerif-6b" transform="translate(122.253906 0)"/>
     <use xlink:href="#DejaVuSerif-65" transform="translate(182.849609 0)"/>
     <use xlink:href="#DejaVuSerif-2192" transform="translate(242.029297 0)"/>
     <use xlink:href="#DejaVuSerif-43" transform="translate(325.818359 0)"/>
     <use xlink:href="#DejaVuSerif-6f" transform="translate(402.332031 0)"/>
     <use xlink:href="#DejaVuSerif-6e" transform="translate(462.537109 0)"/>
     <use xlink:href="#DejaVuSerif-76" transform="translate(526.941406 0)"/>
    </g>
    <!-- (78,601) -->
    <g transform="translate(598.920318 97.97236) scale(0.09 -0.09)">
     <use xlink:href="#DejaVuSerif-28"/>
     <use xlink:href="#DejaVuSerif-37" transform="translate(39.013672 0)"/>
     <use xlink:href="#DejaVuSerif-38" transform="translate(102.636719 0)"/>
     <use xlink:href="#DejaVuSerif-2c" transform="translate(166.259766 0)"/>
     <use xlink:href="#DejaVuSerif-36" transform="translate(198.046875 0)"/>
     <use xlink:href="#DejaVuSerif-30" transform="translate(261.669922 0)"/>
     <use xlink:href="#DejaVuSerif-31" transform="translate(325.292969 0)"/>
     <use xlink:href="#DejaVuSerif-29" transform="translate(388.916016 0)"/>
    </g>
   </g>
   <g id="text_17">
    <!-- 39% -->
    <g transform="translate(571.448899 142.174296) scale(0.09 -0.09)">
     <defs>
      <path id="DejaVuSerif-33" d="M 622 4469 
Q 988 4606 1323 4678 
Q 1659 4750 1953 4750 
Q 2638 4750 3022 4454 
Q 3406 4159 3406 3634 
Q 3406 3213 3140 2930 
Q 2875 2647 2388 2547 
Q 2963 2466 3280 2130 
Q 3597 1794 3597 1259 
Q 3597 606 3158 257 
Q 2719 -91 1894 -91 
Q 1528 -91 1179 -12 
Q 831 66 488 225 
L 488 1131 
L 838 1131 
Q 869 681 1141 450 
Q 1413 219 1906 219 
Q 2384 219 2661 495 
Q 2938 772 2938 1253 
Q 2938 1803 2653 2086 
Q 2369 2369 1819 2369 
L 1522 2369 
L 1522 2688 
L 1678 2688 
Q 2225 2688 2498 2914 
Q 2772 3141 2772 3597 
Q 2772 4006 2547 4223 
Q 2322 4441 1900 4441 
Q 1478 4441 1245 4241 
Q 1013 4041 972 3647 
L 622 3647 
L 622 4469 
z
" transform="scale(0.015625)"/>
     </defs>
     <use xlink:href="#DejaVuSerif-33"/>
     <use xlink:href="#DejaVuSerif-39" transform="translate(63.623047 0)"/>
     <use xlink:href="#DejaVuSerif-25" transform="translate(127.246094 0)"/>
    </g>
   </g>
   <g id="text_18">
    <!-- ASVspoof5 Dataset Composition -->
    <g transform="translate(461.242572 62.16) scale(0.11 -0.11)">
     <defs>
      <path id="DejaVuSerif-Bold-53" d="M 494 225 
L 494 1331 
L 891 1331 
Q 981 806 1318 547 
Q 1656 288 2253 288 
Q 2738 288 2991 472 
Q 3244 656 3244 1013 
Q 3244 1294 3072 1450 
Q 2900 1606 2363 1741 
L 1663 1913 
Q 978 2088 700 2398 
Q 422 2709 422 3284 
Q 422 3978 883 4364 
Q 1344 4750 2175 4750 
Q 2584 4750 3026 4681 
Q 3469 4613 3944 4475 
L 3944 3444 
L 3547 3444 
Q 3456 3925 3150 4148 
Q 2844 4372 2278 4372 
Q 1816 4372 1580 4211 
Q 1344 4050 1344 3731 
Q 1344 3441 1506 3289 
Q 1669 3138 2303 2975 
L 3003 2803 
Q 3653 2641 3945 2297 
Q 4238 1953 4238 1350 
Q 4238 644 3750 276 
Q 3263 -91 2316 -91 
Q 1859 -91 1409 -12 
Q 959 66 494 225 
z
" transform="scale(0.015625)"/>
      <path id="DejaVuSerif-Bold-56" d="M 5056 4666 
L 5056 4288 
L 4666 4288 
L 2906 0 
L 2163 0 
L 403 4288 
L -38 4288 
L -38 4666 
L 2150 4666 
L 2150 4288 
L 1697 4288 
L 2956 1197 
L 4225 4288 
L 3669 4288 
L 3669 4666 
L 5056 4666 
z
" transform="scale(0.015625)"/>
      <path id="DejaVuSerif-Bold-66" d="M 3097 4031 
L 2747 4031 
Q 2722 4275 2605 4394 
Q 2488 4513 2272 4513 
Q 2022 4513 1909 4333 
Q 1797 4153 1797 3750 
L 1797 3322 
L 2631 3322 
L 2631 2944 
L 1797 2944 
L 1797 378 
L 2438 378 
L 2438 0 
L 219 0 
L 219 378 
L 691 378 
L 691 2944 
L 197 2944 
L 197 3322 
L 691 3322 
L 691 3738 
Q 691 4291 1044 4577 
Q 1397 4863 2081 4863 
Q 2347 4863 2600 4833 
Q 2853 4803 3097 4744 
L 3097 4031 
z
" transform="scale(0.015625)"/>
      <path id="DejaVuSerif-Bold-35" d="M 3609 4666 
L 3609 3847 
L 1113 3847 
L 1113 2822 
Q 1319 2981 1572 3062 
Q 1825 3144 2106 3144 
Q 2969 3144 3469 2708 
Q 3969 2272 3969 1522 
Q 3969 759 3469 334 
Q 2969 -91 2069 -91 
Q 1688 -91 1311 -28 
Q 934 34 525 166 
L 525 1184 
L 900 1184 
Q 919 725 1139 500 
Q 1359 275 1791 275 
Q 2250 275 2472 583 
Q 2694 891 2694 1522 
Q 2694 2144 2476 2451 
Q 2259 2759 1819 2759 
Q 1581 2759 1395 2661 
Q 1209 2563 1050 2356 
L 738 2356 
L 738 4666 
L 3609 4666 
z
" transform="scale(0.015625)"/>
     </defs>
     <use xlink:href="#DejaVuSerif-Bold-41"/>
     <use xlink:href="#DejaVuSerif-Bold-53" transform="translate(77.587891 0)"/>
     <use xlink:href="#DejaVuSerif-Bold-56" transform="translate(149.804688 0)"/>
     <use xlink:href="#DejaVuSerif-Bold-73" transform="translate(227.392578 0)"/>
     <use xlink:href="#DejaVuSerif-Bold-70" transform="translate(283.691406 0)"/>
     <use xlink:href="#DejaVuSerif-Bold-6f" transform="translate(353.613281 0)"/>
     <use xlink:href="#DejaVuSerif-Bold-6f" transform="translate(420.3125 0)"/>
     <use xlink:href="#DejaVuSerif-Bold-66" transform="translate(487.011719 0)"/>
     <use xlink:href="#DejaVuSerif-Bold-35" transform="translate(530.029297 0)"/>
     <use xlink:href="#DejaVuSerif-Bold-20" transform="translate(599.609375 0)"/>
     <use xlink:href="#DejaVuSerif-Bold-44" transform="translate(634.423828 0)"/>
     <use xlink:href="#DejaVuSerif-Bold-61" transform="translate(721.142578 0)"/>
     <use xlink:href="#DejaVuSerif-Bold-74" transform="translate(785.9375 0)"/>
     <use xlink:href="#DejaVuSerif-Bold-61" transform="translate(832.128906 0)"/>
     <use xlink:href="#DejaVuSerif-Bold-73" transform="translate(896.923828 0)"/>
     <use xlink:href="#DejaVuSerif-Bold-65" transform="translate(953.222656 0)"/>
     <use xlink:href="#DejaVuSerif-Bold-74" transform="translate(1016.845703 0)"/>
     <use xlink:href="#DejaVuSerif-Bold-20" transform="translate(1063.037109 0)"/>
     <use xlink:href="#DejaVuSerif-Bold-43" transform="translate(1097.851562 0)"/>
     <use xlink:href="#DejaVuSerif-Bold-6f" transform="translate(1177.441406 0)"/>
     <use xlink:href="#DejaVuSerif-Bold-6d" transform="translate(1244.140625 0)"/>
     <use xlink:href="#DejaVuSerif-Bold-70" transform="translate(1349.951172 0)"/>
     <use xlink:href="#DejaVuSerif-Bold-6f" transform="translate(1419.873047 0)"/>
     <use xlink:href="#DejaVuSerif-Bold-73" transform="translate(1486.572266 0)"/>
     <use xlink:href="#DejaVuSerif-Bold-69" transform="translate(1542.871094 0)"/>
     <use xlink:href="#DejaVuSerif-Bold-74" transform="translate(1580.859375 0)"/>
     <use xlink:href="#DejaVuSerif-Bold-69" transform="translate(1627.050781 0)"/>
     <use xlink:href="#DejaVuSerif-Bold-6f" transform="translate(1665.039062 0)"/>
     <use xlink:href="#DejaVuSerif-Bold-6e" transform="translate(1731.738281 0)"/>
    </g>
   </g>
  </g>
  <g id="text_19">
   <!-- Training &amp; Evaluation Datasets -->
   <g transform="translate(236.958981 20.677969) scale(0.13 -0.13)">
    <defs>
     <path id="DejaVuSerif-Bold-54" d="M 1159 0 
L 1159 378 
L 1778 378 
L 1778 4238 
L 500 4238 
L 500 3500 
L 72 3500 
L 72 4666 
L 4697 4666 
L 4697 3500 
L 4275 3500 
L 4275 4238 
L 2988 4238 
L 2988 378 
L 3609 378 
L 3609 0 
L 1159 0 
z
" transform="scale(0.015625)"/>
     <path id="DejaVuSerif-Bold-72" d="M 3438 3359 
L 3438 2369 
L 3084 2369 
Q 3066 2634 2941 2764 
Q 2816 2894 2578 2894 
Q 2216 2894 2006 2575 
Q 1797 2256 1797 1691 
L 1797 378 
L 2400 378 
L 2400 0 
L 219 0 
L 219 378 
L 691 378 
L 691 2944 
L 184 2944 
L 184 3322 
L 1797 3322 
L 1797 2731 
Q 1959 3078 2226 3245 
Q 2494 3413 2881 3413 
Q 2978 3413 3117 3398 
Q 3256 3384 3438 3359 
z
" transform="scale(0.015625)"/>
     <path id="DejaVuSerif-Bold-67" d="M 3853 2944 
L 3853 44 
Q 3853 -656 3354 -1039 
Q 2856 -1422 1947 -1422 
Q 1616 -1422 1275 -1370 
Q 934 -1319 575 -1216 
L 575 -422 
L 928 -422 
Q 975 -750 1192 -909 
Q 1409 -1069 1813 -1069 
Q 2325 -1069 2536 -823 
Q 2747 -578 2747 44 
L 2747 422 
Q 2606 163 2367 36 
Q 2128 -91 1778 -91 
Q 1072 -91 667 378 
Q 263 847 263 1663 
Q 263 2481 667 2947 
Q 1072 3413 1778 3413 
Q 2128 3413 2367 3286 
Q 2606 3159 2747 2900 
L 2747 3322 
L 4325 3322 
L 4325 2944 
L 3853 2944 
z
M 2747 1825 
Q 2747 2406 2597 2665 
Q 2447 2925 2119 2925 
Q 1775 2925 1636 2651 
Q 1497 2378 1497 1663 
Q 1497 947 1637 672 
Q 1778 397 2119 397 
Q 2447 397 2597 656 
Q 2747 916 2747 1497 
L 2747 1825 
z
" transform="scale(0.015625)"/>
     <path id="DejaVuSerif-Bold-26" d="M 5663 0 
L 4166 0 
L 3769 409 
Q 3456 159 3078 34 
Q 2700 -91 2253 -91 
Q 1316 -91 786 309 
Q 256 709 256 1409 
Q 256 1919 526 2280 
Q 797 2641 1375 2900 
Q 1216 3109 1136 3300 
Q 1056 3491 1056 3669 
Q 1056 4181 1486 4465 
Q 1916 4750 2694 4750 
Q 2925 4750 3233 4712 
Q 3541 4675 3928 4603 
L 3928 3628 
L 3525 3628 
Q 3469 4016 3287 4194 
Q 3106 4372 2772 4372 
Q 2456 4372 2275 4222 
Q 2094 4072 2094 3816 
Q 2094 3528 2653 2959 
Q 2716 2897 2747 2869 
L 4184 1363 
Q 4372 1575 4478 1853 
Q 4584 2131 4613 2484 
L 4044 2484 
L 4044 2859 
L 5606 2859 
L 5606 2484 
L 5056 2484 
Q 5003 2028 4861 1675 
Q 4719 1322 4488 1050 
L 5131 378 
L 5663 378 
L 5663 0 
z
M 3475 716 
L 1709 2553 
Q 1538 2344 1450 2108 
Q 1363 1872 1363 1613 
Q 1363 1084 1695 743 
Q 2028 403 2541 403 
Q 2784 403 3014 479 
Q 3244 556 3475 716 
z
" transform="scale(0.015625)"/>
     <path id="DejaVuSerif-Bold-45" d="M 300 0 
L 300 378 
L 897 378 
L 897 4288 
L 300 4288 
L 300 4666 
L 4494 4666 
L 4494 3566 
L 4063 3566 
L 4063 4238 
L 2100 4238 
L 2100 2741 
L 3322 2741 
L 3322 3334 
L 3750 3334 
L 3750 1722 
L 3322 1722 
L 3322 2316 
L 2100 2316 
L 2100 428 
L 4122 428 
L 4122 1100 
L 4550 1100 
L 4550 0 
L 300 0 
z
" transform="scale(0.015625)"/>
     <path id="DejaVuSerif-Bold-76" d="M 1428 0 
L 250 2944 
L -116 2944 
L -116 3322 
L 1791 3322 
L 1791 2944 
L 1388 2944 
L 2228 844 
L 3066 2944 
L 2631 2944 
L 2631 3322 
L 3878 3322 
L 3878 2944 
L 3494 2944 
L 2316 0 
L 1428 0 
z
" transform="scale(0.015625)"/>
     <path id="DejaVuSerif-Bold-6c" d="M 1797 378 
L 2272 378 
L 2272 0 
L 219 0 
L 219 378 
L 691 378 
L 691 4488 
L 219 4488 
L 219 4863 
L 1797 4863 
L 1797 378 
z
" transform="scale(0.015625)"/>
     <path id="DejaVuSerif-Bold-75" d="M 3963 3322 
L 3963 378 
L 4434 378 
L 4434 0 
L 2853 0 
L 2853 469 
Q 2656 172 2400 40 
Q 2144 -91 1753 -91 
Q 1194 -91 908 239 
Q 622 569 622 1209 
L 622 2944 
L 147 2944 
L 147 3322 
L 1728 3322 
L 1728 1381 
Q 1728 763 1831 595 
Q 1934 428 2209 428 
Q 2544 428 2698 675 
Q 2853 922 2853 1459 
L 2853 2944 
L 2450 2944 
L 2450 3322 
L 3963 3322 
z
" transform="scale(0.015625)"/>
    </defs>
    <use xlink:href="#DejaVuSerif-Bold-54"/>
    <use xlink:href="#DejaVuSerif-Bold-72" transform="translate(67.164062 0)"/>
    <use xlink:href="#DejaVuSerif-Bold-61" transform="translate(119.849609 0)"/>
    <use xlink:href="#DejaVuSerif-Bold-69" transform="translate(184.644531 0)"/>
    <use xlink:href="#DejaVuSerif-Bold-6e" transform="translate(222.632812 0)"/>
    <use xlink:href="#DejaVuSerif-Bold-69" transform="translate(295.337891 0)"/>
    <use xlink:href="#DejaVuSerif-Bold-6e" transform="translate(333.326172 0)"/>
    <use xlink:href="#DejaVuSerif-Bold-67" transform="translate(406.03125 0)"/>
    <use xlink:href="#DejaVuSerif-Bold-20" transform="translate(475.953125 0)"/>
    <use xlink:href="#DejaVuSerif-Bold-26" transform="translate(510.767578 0)"/>
    <use xlink:href="#DejaVuSerif-Bold-20" transform="translate(601.050781 0)"/>
    <use xlink:href="#DejaVuSerif-Bold-45" transform="translate(635.865234 0)"/>
    <use xlink:href="#DejaVuSerif-Bold-76" transform="translate(712.085938 0)"/>
    <use xlink:href="#DejaVuSerif-Bold-61" transform="translate(770.191406 0)"/>
    <use xlink:href="#DejaVuSerif-Bold-6c" transform="translate(834.986328 0)"/>
    <use xlink:href="#DejaVuSerif-Bold-75" transform="translate(872.974609 0)"/>
    <use xlink:href="#DejaVuSerif-Bold-61" transform="translate(945.679688 0)"/>
    <use xlink:href="#DejaVuSerif-Bold-74" transform="translate(1010.474609 0)"/>
    <use xlink:href="#DejaVuSerif-Bold-69" transform="translate(1056.666016 0)"/>
    <use xlink:href="#DejaVuSerif-Bold-6f" transform="translate(1094.654297 0)"/>
    <use xlink:href="#DejaVuSerif-Bold-6e" transform="translate(1161.353516 0)"/>
    <use xlink:href="#DejaVuSerif-Bold-20" transform="translate(1234.058594 0)"/>
    <use xlink:href="#DejaVuSerif-Bold-44" transform="translate(1268.873047 0)"/>
    <use xlink:href="#DejaVuSerif-Bold-61" transform="translate(1355.591797 0)"/>
    <use xlink:href="#DejaVuSerif-Bold-74" transform="translate(1420.386719 0)"/>
    <use xlink:href="#DejaVuSerif-Bold-61" transform="translate(1466.578125 0)"/>
    <use xlink:href="#DejaVuSerif-Bold-73" transform="translate(1531.373047 0)"/>
    <use xlink:href="#DejaVuSerif-Bold-65" transform="translate(1587.671875 0)"/>
    <use xlink:href="#DejaVuSerif-Bold-74" transform="translate(1651.294922 0)"/>
    <use xlink:href="#DejaVuSerif-Bold-73" transform="translate(1697.486328 0)"/>
   </g>
  </g>
 </g>
</svg>
