<?xml version="1.0" encoding="utf-8" standalone="no"?>
<!DOCTYPE svg PUBLIC "-//W3C//DTD SVG 1.1//EN"
  "http://www.w3.org/Graphics/SVG/1.1/DTD/svg11.dtd">
<svg xmlns:xlink="http://www.w3.org/1999/xlink" width="574.156875pt" height="359.03925pt" viewBox="0 0 574.156875 359.03925" xmlns="http://www.w3.org/2000/svg" version="1.1">
 <metadata>
  <rdf:RDF xmlns:dc="http://purl.org/dc/elements/1.1/" xmlns:cc="http://creativecommons.org/ns#" xmlns:rdf="http://www.w3.org/1999/02/22-rdf-syntax-ns#">
   <cc:Work>
    <dc:type rdf:resource="http://purl.org/dc/dcmitype/StillImage"/>
    <dc:date>2026-03-03T14:04:46.876714</dc:date>
    <dc:format>image/svg+xml</dc:format>
    <dc:creator>
     <cc:Agent>
      <dc:title>Matplotlib v3.10.7, https://matplotlib.org/</dc:title>
     </cc:Agent>
    </dc:creator>
   </cc:Work>
  </rdf:RDF>
 </metadata>
 <defs>
  <style type="text/css">*{stroke-linejoin: round; stroke-linecap: butt}</style>
 </defs>
 <g id="figure_1">
  <g id="patch_1">
   <path d="M 0 359.03925 
L 574.156875 359.03925 
L 574.156875 0 
L 0 0 
z
" style="fill: #ffffff"/>
  </g>
  <g id="axes_1">
   <g id="patch_2">
    <path d="M 52.671875 316.188125 
L 563.356875 316.188125 
L 563.356875 39.526125 
L 52.671875 39.526125 
z
" style="fill: #ffffff"/>
   </g>
   <g id="patch_3">
    <path d="M 75.88483 316.188125 
L 171.467584 316.188125 
L 171.467584 199.738574 
L 75.88483 199.738574 
z
" clip-path="url(#p9f58d01e78)" style="fill: #c73e1d; opacity: 0.85"/>
   </g>
   <g id="patch_4">
    <path d="M 348.978412 316.188125 
L 444.561166 316.188125 
L 444.561166 315.810859 
L 348.978412 315.810859 
z
" clip-path="url(#p9f58d01e78)" style="fill: #2e86ab; opacity: 0.85"/>
   </g>
   <g id="patch_5">
    <path d="M 171.467584 316.188125 
L 267.050338 316.188125 
L 267.050338 190.684181 
L 171.467584 190.684181 
z
" clip-path="url(#p9f58d01e78)" style="fill: url(#hec6403b6b3); opacity: 0.5; stroke: #ffffff; stroke-linejoin: miter"/>
   </g>
   <g id="patch_6">
    <path d="M 444.561166 316.188125 
L 540.14392 316.188125 
L 540.14392 65.93477 
L 444.561166 65.93477 
z
" clip-path="url(#p9f58d01e78)" style="fill: url(#he9373dc0e6); opacity: 0.5; stroke: #ffffff; stroke-linejoin: miter"/>
   </g>
   <g id="matplotlib.axis_1">
    <g id="xtick_1">
     <g id="line2d_1">
      <path d="M 171.467584 316.188125 
L 171.467584 39.526125 
" clip-path="url(#p9f58d01e78)" style="fill: none; stroke: #b0b0b0; stroke-opacity: 0.3; stroke-width: 0.5; stroke-linecap: square"/>
     </g>
     <g id="line2d_2">
      <defs>
       <path id="m304234d55f" d="M 0 0 
L 0 3.5 
" style="stroke: #000000; stroke-width: 0.8"/>
      </defs>
      <g>
       <use xlink:href="#m304234d55f" x="171.467584" y="316.188125" style="stroke: #000000; stroke-width: 0.8"/>
      </g>
     </g>
     <g id="text_1">
      <!-- Source Axis -->
      <g transform="translate(135.480709 332.30625) scale(0.12 -0.12)">
       <defs>
        <path id="DejaVuSerif-53" d="M 594 225 
L 594 1288 
L 953 1284 
Q 969 753 1261 498 
Q 1553 244 2150 244 
Q 2706 244 2998 464 
Q 3291 684 3291 1106 
Q 3291 1444 3114 1625 
Q 2938 1806 2369 1978 
L 1753 2163 
Q 1084 2366 811 2669 
Q 538 2972 538 3500 
Q 538 4094 959 4422 
Q 1381 4750 2144 4750 
Q 2469 4750 2856 4679 
Q 3244 4609 3681 4475 
L 3681 3481 
L 3328 3481 
Q 3275 3975 2998 4195 
Q 2722 4416 2156 4416 
Q 1663 4416 1405 4214 
Q 1147 4013 1147 3628 
Q 1147 3294 1340 3103 
Q 1534 2913 2163 2725 
L 2741 2553 
Q 3375 2363 3645 2067 
Q 3916 1772 3916 1275 
Q 3916 597 3481 253 
Q 3047 -91 2188 -91 
Q 1803 -91 1404 -12 
Q 1006 66 594 225 
z
" transform="scale(0.015625)"/>
        <path id="DejaVuSerif-6f" d="M 1925 219 
Q 2388 219 2623 584 
Q 2859 950 2859 1663 
Q 2859 2375 2623 2739 
Q 2388 3103 1925 3103 
Q 1463 3103 1227 2739 
Q 991 2375 991 1663 
Q 991 950 1228 584 
Q 1466 219 1925 219 
z
M 1925 -91 
Q 1200 -91 759 389 
Q 319 869 319 1663 
Q 319 2456 758 2934 
Q 1197 3413 1925 3413 
Q 2653 3413 3092 2934 
Q 3531 2456 3531 1663 
Q 3531 869 3092 389 
Q 2653 -91 1925 -91 
z
" transform="scale(0.015625)"/>
        <path id="DejaVuSerif-75" d="M 2266 3322 
L 3341 3322 
L 3341 331 
L 3884 331 
L 3884 0 
L 2766 0 
L 2766 588 
Q 2606 256 2353 82 
Q 2100 -91 1766 -91 
Q 1213 -91 952 223 
Q 691 538 691 1209 
L 691 2988 
L 172 2988 
L 172 3322 
L 1269 3322 
L 1269 1388 
Q 1269 781 1417 556 
Q 1566 331 1947 331 
Q 2347 331 2556 625 
Q 2766 919 2766 1478 
L 2766 2988 
L 2266 2988 
L 2266 3322 
z
" transform="scale(0.015625)"/>
        <path id="DejaVuSerif-72" d="M 3059 3328 
L 3059 2497 
L 2728 2497 
Q 2713 2744 2591 2866 
Q 2469 2988 2234 2988 
Q 1809 2988 1582 2694 
Q 1356 2400 1356 1850 
L 1356 331 
L 2022 331 
L 2022 0 
L 263 0 
L 263 331 
L 781 331 
L 781 2994 
L 231 2994 
L 231 3322 
L 1356 3322 
L 1356 2731 
Q 1525 3078 1790 3245 
Q 2056 3413 2438 3413 
Q 2578 3413 2733 3391 
Q 2888 3369 3059 3328 
z
" transform="scale(0.015625)"/>
        <path id="DejaVuSerif-63" d="M 3291 997 
Q 3169 466 2822 187 
Q 2475 -91 1925 -91 
Q 1200 -91 759 389 
Q 319 869 319 1663 
Q 319 2459 759 2936 
Q 1200 3413 1925 3413 
Q 2241 3413 2553 3339 
Q 2866 3266 3181 3116 
L 3181 2266 
L 2847 2266 
Q 2781 2703 2561 2903 
Q 2341 3103 1931 3103 
Q 1466 3103 1228 2742 
Q 991 2381 991 1663 
Q 991 944 1227 581 
Q 1463 219 1931 219 
Q 2303 219 2525 412 
Q 2747 606 2828 997 
L 3291 997 
z
" transform="scale(0.015625)"/>
        <path id="DejaVuSerif-65" d="M 3469 1600 
L 991 1600 
L 991 1575 
Q 991 903 1244 561 
Q 1497 219 1991 219 
Q 2369 219 2611 417 
Q 2853 616 2950 1006 
L 3413 1006 
Q 3275 459 2904 184 
Q 2534 -91 1931 -91 
Q 1203 -91 761 389 
Q 319 869 319 1663 
Q 319 2450 753 2931 
Q 1188 3413 1894 3413 
Q 2647 3413 3050 2948 
Q 3453 2484 3469 1600 
z
M 2791 1931 
Q 2772 2513 2545 2808 
Q 2319 3103 1894 3103 
Q 1497 3103 1269 2806 
Q 1041 2509 991 1931 
L 2791 1931 
z
" transform="scale(0.015625)"/>
        <path id="DejaVuSerif-20" transform="scale(0.015625)"/>
        <path id="DejaVuSerif-41" d="M 1281 1691 
L 2994 1691 
L 2138 3909 
L 1281 1691 
z
M -38 0 
L -38 331 
L 372 331 
L 2034 4666 
L 2559 4666 
L 4225 331 
L 4684 331 
L 4684 0 
L 2988 0 
L 2988 331 
L 3506 331 
L 3116 1356 
L 1153 1356 
L 763 331 
L 1275 331 
L 1275 0 
L -38 0 
z
" transform="scale(0.015625)"/>
        <path id="DejaVuSerif-78" d="M 1863 2028 
L 2559 2988 
L 2113 2988 
L 2113 3322 
L 3391 3322 
L 3391 2988 
L 2950 2988 
L 2059 1759 
L 3097 331 
L 3531 331 
L 3531 0 
L 1997 0 
L 1997 331 
L 2419 331 
L 1697 1325 
L 972 331 
L 1403 331 
L 1403 0 
L 141 0 
L 141 331 
L 581 331 
L 1497 1594 
L 488 2988 
L 78 2988 
L 78 3322 
L 1563 3322 
L 1563 2988 
L 1166 2988 
L 1863 2028 
z
" transform="scale(0.015625)"/>
        <path id="DejaVuSerif-69" d="M 622 4353 
Q 622 4497 726 4603 
Q 831 4709 978 4709 
Q 1122 4709 1226 4603 
Q 1331 4497 1331 4353 
Q 1331 4206 1228 4103 
Q 1125 4000 978 4000 
Q 831 4000 726 4103 
Q 622 4206 622 4353 
z
M 1356 331 
L 1900 331 
L 1900 0 
L 231 0 
L 231 331 
L 781 331 
L 781 2988 
L 231 2988 
L 231 3322 
L 1356 3322 
L 1356 331 
z
" transform="scale(0.015625)"/>
        <path id="DejaVuSerif-73" d="M 359 184 
L 359 959 
L 691 959 
Q 703 588 923 403 
Q 1144 219 1575 219 
Q 1963 219 2166 364 
Q 2369 509 2369 788 
Q 2369 1006 2220 1140 
Q 2072 1275 1594 1428 
L 1178 1569 
Q 750 1706 558 1912 
Q 366 2119 366 2438 
Q 366 2894 700 3153 
Q 1034 3413 1625 3413 
Q 1888 3413 2178 3344 
Q 2469 3275 2778 3144 
L 2778 2419 
L 2447 2419 
Q 2434 2741 2221 2922 
Q 2009 3103 1644 3103 
Q 1281 3103 1095 2975 
Q 909 2847 909 2591 
Q 909 2381 1050 2254 
Q 1191 2128 1613 1997 
L 2069 1856 
Q 2541 1709 2748 1489 
Q 2956 1269 2956 922 
Q 2956 450 2595 179 
Q 2234 -91 1600 -91 
Q 1278 -91 972 -22 
Q 666 47 359 184 
z
" transform="scale(0.015625)"/>
       </defs>
       <use xlink:href="#DejaVuSerif-53"/>
       <use xlink:href="#DejaVuSerif-6f" transform="translate(68.505859 0)"/>
       <use xlink:href="#DejaVuSerif-75" transform="translate(128.710938 0)"/>
       <use xlink:href="#DejaVuSerif-72" transform="translate(193.115234 0)"/>
       <use xlink:href="#DejaVuSerif-63" transform="translate(240.917969 0)"/>
       <use xlink:href="#DejaVuSerif-65" transform="translate(296.923828 0)"/>
       <use xlink:href="#DejaVuSerif-20" transform="translate(356.103516 0)"/>
       <use xlink:href="#DejaVuSerif-41" transform="translate(387.890625 0)"/>
       <use xlink:href="#DejaVuSerif-78" transform="translate(460.107422 0)"/>
       <use xlink:href="#DejaVuSerif-69" transform="translate(516.503906 0)"/>
       <use xlink:href="#DejaVuSerif-73" transform="translate(548.486328 0)"/>
      </g>
      <!-- (Real vs. Fake) -->
      <g transform="translate(126.507896 345.743625) scale(0.12 -0.12)">
       <defs>
        <path id="DejaVuSerif-28" d="M 2041 -997 
Q 1281 -656 893 83 
Q 506 822 506 1931 
Q 506 3044 893 3783 
Q 1281 4522 2041 4863 
L 2041 4556 
Q 1559 4225 1350 3623 
Q 1141 3022 1141 1931 
Q 1141 844 1350 242 
Q 1559 -359 2041 -691 
L 2041 -997 
z
" transform="scale(0.015625)"/>
        <path id="DejaVuSerif-52" d="M 3066 2316 
Q 3284 2256 3442 2114 
Q 3600 1972 3725 1716 
L 4403 331 
L 4972 331 
L 4972 0 
L 3872 0 
L 3144 1484 
Q 2934 1916 2759 2042 
Q 2584 2169 2278 2169 
L 1581 2169 
L 1581 331 
L 2241 331 
L 2241 0 
L 353 0 
L 353 331 
L 947 331 
L 947 4331 
L 353 4331 
L 353 4666 
L 2719 4666 
Q 3400 4666 3770 4341 
Q 4141 4016 4141 3419 
Q 4141 2938 3870 2661 
Q 3600 2384 3066 2316 
z
M 1581 2503 
L 2503 2503 
Q 2975 2503 3200 2726 
Q 3425 2950 3425 3419 
Q 3425 3888 3200 4109 
Q 2975 4331 2503 4331 
L 1581 4331 
L 1581 2503 
z
" transform="scale(0.015625)"/>
        <path id="DejaVuSerif-61" d="M 2547 1044 
L 2547 1747 
L 1806 1747 
Q 1378 1747 1168 1562 
Q 959 1378 959 997 
Q 959 650 1171 447 
Q 1384 244 1747 244 
Q 2106 244 2326 466 
Q 2547 688 2547 1044 
z
M 3122 2075 
L 3122 331 
L 3634 331 
L 3634 0 
L 2547 0 
L 2547 359 
Q 2356 128 2106 18 
Q 1856 -91 1522 -91 
Q 969 -91 644 203 
Q 319 497 319 997 
Q 319 1513 691 1797 
Q 1063 2081 1741 2081 
L 2547 2081 
L 2547 2309 
Q 2547 2688 2317 2895 
Q 2088 3103 1672 3103 
Q 1328 3103 1125 2947 
Q 922 2791 872 2484 
L 575 2484 
L 575 3156 
Q 875 3284 1158 3348 
Q 1441 3413 1709 3413 
Q 2400 3413 2761 3070 
Q 3122 2728 3122 2075 
z
" transform="scale(0.015625)"/>
        <path id="DejaVuSerif-6c" d="M 1313 331 
L 1856 331 
L 1856 0 
L 184 0 
L 184 331 
L 738 331 
L 738 4531 
L 184 4531 
L 184 4863 
L 1313 4863 
L 1313 331 
z
" transform="scale(0.015625)"/>
        <path id="DejaVuSerif-76" d="M 1581 0 
L 359 2988 
L -19 2988 
L -19 3322 
L 1509 3322 
L 1509 2988 
L 978 2988 
L 1913 703 
L 2847 2988 
L 2350 2988 
L 2350 3322 
L 3597 3322 
L 3597 2988 
L 3225 2988 
L 2003 0 
L 1581 0 
z
" transform="scale(0.015625)"/>
        <path id="DejaVuSerif-2e" d="M 603 325 
Q 603 500 722 622 
Q 841 744 1019 744 
Q 1191 744 1312 622 
Q 1434 500 1434 325 
Q 1434 153 1312 31 
Q 1191 -91 1019 -91 
Q 841 -91 722 29 
Q 603 150 603 325 
z
" transform="scale(0.015625)"/>
        <path id="DejaVuSerif-46" d="M 353 0 
L 353 331 
L 947 331 
L 947 4331 
L 353 4331 
L 353 4666 
L 4172 4666 
L 4172 3628 
L 3788 3628 
L 3788 4281 
L 1581 4281 
L 1581 2719 
L 3175 2719 
L 3175 3303 
L 3559 3303 
L 3559 1753 
L 3175 1753 
L 3175 2338 
L 1581 2338 
L 1581 331 
L 2328 331 
L 2328 0 
L 353 0 
z
" transform="scale(0.015625)"/>
        <path id="DejaVuSerif-6b" d="M 1831 0 
L 219 0 
L 219 331 
L 738 331 
L 738 4531 
L 184 4531 
L 184 4863 
L 1313 4863 
L 1313 1697 
L 2713 2988 
L 2234 2988 
L 2234 3322 
L 3738 3322 
L 3738 2988 
L 3169 2988 
L 2181 2075 
L 3444 331 
L 3922 331 
L 3922 0 
L 2284 0 
L 2284 331 
L 2759 331 
L 1766 1697 
L 1313 1275 
L 1313 331 
L 1831 331 
L 1831 0 
z
" transform="scale(0.015625)"/>
        <path id="DejaVuSerif-29" d="M 453 -997 
L 453 -691 
Q 934 -359 1145 242 
Q 1356 844 1356 1931 
Q 1356 3022 1145 3623 
Q 934 4225 453 4556 
L 453 4863 
Q 1216 4522 1603 3783 
Q 1991 3044 1991 1931 
Q 1991 822 1603 83 
Q 1216 -656 453 -997 
z
" transform="scale(0.015625)"/>
       </defs>
       <use xlink:href="#DejaVuSerif-28"/>
       <use xlink:href="#DejaVuSerif-52" transform="translate(39.013672 0)"/>
       <use xlink:href="#DejaVuSerif-65" transform="translate(114.306641 0)"/>
       <use xlink:href="#DejaVuSerif-61" transform="translate(173.486328 0)"/>
       <use xlink:href="#DejaVuSerif-6c" transform="translate(233.105469 0)"/>
       <use xlink:href="#DejaVuSerif-20" transform="translate(265.087891 0)"/>
       <use xlink:href="#DejaVuSerif-76" transform="translate(296.875 0)"/>
       <use xlink:href="#DejaVuSerif-73" transform="translate(353.369141 0)"/>
       <use xlink:href="#DejaVuSerif-2e" transform="translate(404.6875 0)"/>
       <use xlink:href="#DejaVuSerif-20" transform="translate(436.474609 0)"/>
       <use xlink:href="#DejaVuSerif-46" transform="translate(468.261719 0)"/>
       <use xlink:href="#DejaVuSerif-61" transform="translate(530.896484 0)"/>
       <use xlink:href="#DejaVuSerif-6b" transform="translate(590.515625 0)"/>
       <use xlink:href="#DejaVuSerif-65" transform="translate(651.111328 0)"/>
       <use xlink:href="#DejaVuSerif-29" transform="translate(710.291016 0)"/>
      </g>
     </g>
    </g>
    <g id="xtick_2">
     <g id="line2d_3">
      <path d="M 444.561166 316.188125 
L 444.561166 39.526125 
" clip-path="url(#p9f58d01e78)" style="fill: none; stroke: #b0b0b0; stroke-opacity: 0.3; stroke-width: 0.5; stroke-linecap: square"/>
     </g>
     <g id="line2d_4">
      <g>
       <use xlink:href="#m304234d55f" x="444.561166" y="316.188125" style="stroke: #000000; stroke-width: 0.8"/>
      </g>
     </g>
     <g id="text_2">
      <!-- Mediation Axis -->
      <g transform="translate(399.100854 332.30625) scale(0.12 -0.12)">
       <defs>
        <path id="DejaVuSerif-4d" d="M 353 0 
L 353 331 
L 947 331 
L 947 4331 
L 319 4331 
L 319 4666 
L 1678 4666 
L 3316 1344 
L 4953 4666 
L 6228 4666 
L 6228 4331 
L 5606 4331 
L 5606 331 
L 6203 331 
L 6203 0 
L 4378 0 
L 4378 331 
L 4972 331 
L 4972 3938 
L 3372 684 
L 2931 684 
L 1331 3938 
L 1331 331 
L 1925 331 
L 1925 0 
L 353 0 
z
" transform="scale(0.015625)"/>
        <path id="DejaVuSerif-64" d="M 3359 331 
L 3909 331 
L 3909 0 
L 2784 0 
L 2784 519 
Q 2616 206 2355 57 
Q 2094 -91 1709 -91 
Q 1097 -91 708 395 
Q 319 881 319 1663 
Q 319 2444 706 2928 
Q 1094 3413 1709 3413 
Q 2094 3413 2355 3264 
Q 2616 3116 2784 2803 
L 2784 4531 
L 2241 4531 
L 2241 4863 
L 3359 4863 
L 3359 331 
z
M 2784 1497 
L 2784 1825 
Q 2784 2422 2554 2737 
Q 2325 3053 1888 3053 
Q 1444 3053 1217 2703 
Q 991 2353 991 1663 
Q 991 975 1217 622 
Q 1444 269 1888 269 
Q 2325 269 2554 583 
Q 2784 897 2784 1497 
z
" transform="scale(0.015625)"/>
        <path id="DejaVuSerif-74" d="M 691 2988 
L 184 2988 
L 184 3322 
L 691 3322 
L 691 4353 
L 1269 4353 
L 1269 3322 
L 2350 3322 
L 2350 2988 
L 1269 2988 
L 1269 878 
Q 1269 456 1350 337 
Q 1431 219 1650 219 
Q 1875 219 1978 351 
Q 2081 484 2088 781 
L 2522 781 
Q 2497 328 2275 118 
Q 2053 -91 1600 -91 
Q 1103 -91 897 129 
Q 691 350 691 878 
L 691 2988 
z
" transform="scale(0.015625)"/>
        <path id="DejaVuSerif-6e" d="M 263 0 
L 263 331 
L 781 331 
L 781 2988 
L 231 2988 
L 231 3322 
L 1356 3322 
L 1356 2731 
Q 1516 3069 1770 3241 
Q 2025 3413 2363 3413 
Q 2913 3413 3172 3097 
Q 3431 2781 3431 2113 
L 3431 331 
L 3944 331 
L 3944 0 
L 2356 0 
L 2356 331 
L 2853 331 
L 2853 1931 
Q 2853 2541 2703 2767 
Q 2553 2994 2175 2994 
Q 1775 2994 1565 2701 
Q 1356 2409 1356 1850 
L 1356 331 
L 1856 331 
L 1856 0 
L 263 0 
z
" transform="scale(0.015625)"/>
       </defs>
       <use xlink:href="#DejaVuSerif-4d"/>
       <use xlink:href="#DejaVuSerif-65" transform="translate(102.392578 0)"/>
       <use xlink:href="#DejaVuSerif-64" transform="translate(161.572266 0)"/>
       <use xlink:href="#DejaVuSerif-69" transform="translate(225.585938 0)"/>
       <use xlink:href="#DejaVuSerif-61" transform="translate(257.568359 0)"/>
       <use xlink:href="#DejaVuSerif-74" transform="translate(317.1875 0)"/>
       <use xlink:href="#DejaVuSerif-69" transform="translate(357.373047 0)"/>
       <use xlink:href="#DejaVuSerif-6f" transform="translate(389.355469 0)"/>
       <use xlink:href="#DejaVuSerif-6e" transform="translate(449.560547 0)"/>
       <use xlink:href="#DejaVuSerif-20" transform="translate(513.964844 0)"/>
       <use xlink:href="#DejaVuSerif-41" transform="translate(545.751953 0)"/>
       <use xlink:href="#DejaVuSerif-78" transform="translate(617.96875 0)"/>
       <use xlink:href="#DejaVuSerif-69" transform="translate(674.365234 0)"/>
       <use xlink:href="#DejaVuSerif-73" transform="translate(706.347656 0)"/>
      </g>
      <!-- (Processed vs. Unprocessed) -->
      <g transform="translate(357.008979 345.743625) scale(0.12 -0.12)">
       <defs>
        <path id="DejaVuSerif-50" d="M 1581 2375 
L 2406 2375 
Q 2872 2375 3115 2626 
Q 3359 2878 3359 3353 
Q 3359 3831 3115 4081 
Q 2872 4331 2406 4331 
L 1581 4331 
L 1581 2375 
z
M 353 0 
L 353 331 
L 947 331 
L 947 4331 
L 353 4331 
L 353 4666 
L 2559 4666 
Q 3259 4666 3668 4311 
Q 4078 3956 4078 3353 
Q 4078 2753 3668 2397 
Q 3259 2041 2559 2041 
L 1581 2041 
L 1581 331 
L 2303 331 
L 2303 0 
L 353 0 
z
" transform="scale(0.015625)"/>
        <path id="DejaVuSerif-55" d="M 897 4331 
L 300 4331 
L 300 4666 
L 2125 4666 
L 2125 4331 
L 1528 4331 
L 1528 1919 
Q 1528 1025 1820 672 
Q 2113 319 2828 319 
Q 3544 319 3836 672 
Q 4128 1025 4128 1919 
L 4128 4331 
L 3531 4331 
L 3531 4666 
L 5106 4666 
L 5106 4331 
L 4513 4331 
L 4513 1856 
Q 4513 791 4103 350 
Q 3694 -91 2713 -91 
Q 1731 -91 1314 353 
Q 897 797 897 1856 
L 897 4331 
z
" transform="scale(0.015625)"/>
        <path id="DejaVuSerif-70" d="M 1313 1825 
L 1313 1497 
Q 1313 897 1542 583 
Q 1772 269 2209 269 
Q 2650 269 2876 622 
Q 3103 975 3103 1663 
Q 3103 2353 2876 2703 
Q 2650 3053 2209 3053 
Q 1772 3053 1542 2737 
Q 1313 2422 1313 1825 
z
M 738 2988 
L 184 2988 
L 184 3322 
L 1313 3322 
L 1313 2803 
Q 1481 3116 1742 3264 
Q 2003 3413 2388 3413 
Q 3000 3413 3387 2928 
Q 3775 2444 3775 1663 
Q 3775 881 3387 395 
Q 3000 -91 2388 -91 
Q 2003 -91 1742 57 
Q 1481 206 1313 519 
L 1313 -997 
L 1856 -997 
L 1856 -1331 
L 184 -1331 
L 184 -997 
L 738 -997 
L 738 2988 
z
" transform="scale(0.015625)"/>
       </defs>
       <use xlink:href="#DejaVuSerif-28"/>
       <use xlink:href="#DejaVuSerif-50" transform="translate(39.013672 0)"/>
       <use xlink:href="#DejaVuSerif-72" transform="translate(106.298828 0)"/>
       <use xlink:href="#DejaVuSerif-6f" transform="translate(154.101562 0)"/>
       <use xlink:href="#DejaVuSerif-63" transform="translate(214.306641 0)"/>
       <use xlink:href="#DejaVuSerif-65" transform="translate(270.3125 0)"/>
       <use xlink:href="#DejaVuSerif-73" transform="translate(329.492188 0)"/>
       <use xlink:href="#DejaVuSerif-73" transform="translate(380.810547 0)"/>
       <use xlink:href="#DejaVuSerif-65" transform="translate(432.128906 0)"/>
       <use xlink:href="#DejaVuSerif-64" transform="translate(491.308594 0)"/>
       <use xlink:href="#DejaVuSerif-20" transform="translate(555.322266 0)"/>
       <use xlink:href="#DejaVuSerif-76" transform="translate(587.109375 0)"/>
       <use xlink:href="#DejaVuSerif-73" transform="translate(643.603516 0)"/>
       <use xlink:href="#DejaVuSerif-2e" transform="translate(694.921875 0)"/>
       <use xlink:href="#DejaVuSerif-20" transform="translate(726.708984 0)"/>
       <use xlink:href="#DejaVuSerif-55" transform="translate(758.496094 0)"/>
       <use xlink:href="#DejaVuSerif-6e" transform="translate(842.773438 0)"/>
       <use xlink:href="#DejaVuSerif-70" transform="translate(907.177734 0)"/>
       <use xlink:href="#DejaVuSerif-72" transform="translate(971.191406 0)"/>
       <use xlink:href="#DejaVuSerif-6f" transform="translate(1018.994141 0)"/>
       <use xlink:href="#DejaVuSerif-63" transform="translate(1079.199219 0)"/>
       <use xlink:href="#DejaVuSerif-65" transform="translate(1135.205078 0)"/>
       <use xlink:href="#DejaVuSerif-73" transform="translate(1194.384766 0)"/>
       <use xlink:href="#DejaVuSerif-73" transform="translate(1245.703125 0)"/>
       <use xlink:href="#DejaVuSerif-65" transform="translate(1297.021484 0)"/>
       <use xlink:href="#DejaVuSerif-64" transform="translate(1356.201172 0)"/>
       <use xlink:href="#DejaVuSerif-29" transform="translate(1420.214844 0)"/>
      </g>
     </g>
    </g>
   </g>
   <g id="matplotlib.axis_2">
    <g id="ytick_1">
     <g id="line2d_5">
      <path d="M 52.671875 316.188125 
L 563.356875 316.188125 
" clip-path="url(#p9f58d01e78)" style="fill: none; stroke: #b0b0b0; stroke-opacity: 0.3; stroke-width: 0.5; stroke-linecap: square"/>
     </g>
     <g id="line2d_6">
      <defs>
       <path id="mb86830406c" d="M 0 0 
L -3.5 0 
" style="stroke: #000000; stroke-width: 0.8"/>
      </defs>
      <g>
       <use xlink:href="#mb86830406c" x="52.671875" y="316.188125" style="stroke: #000000; stroke-width: 0.8"/>
      </g>
     </g>
     <g id="text_3">
      <!-- 0 -->
      <g transform="translate(39.309375 319.987344) scale(0.1 -0.1)">
       <defs>
        <path id="DejaVuSerif-30" d="M 2034 219 
Q 2513 219 2750 744 
Q 2988 1269 2988 2328 
Q 2988 3391 2750 3916 
Q 2513 4441 2034 4441 
Q 1556 4441 1318 3916 
Q 1081 3391 1081 2328 
Q 1081 1269 1318 744 
Q 1556 219 2034 219 
z
M 2034 -91 
Q 1275 -91 848 546 
Q 422 1184 422 2328 
Q 422 3475 848 4112 
Q 1275 4750 2034 4750 
Q 2797 4750 3222 4112 
Q 3647 3475 3647 2328 
Q 3647 1184 3222 546 
Q 2797 -91 2034 -91 
z
" transform="scale(0.015625)"/>
       </defs>
       <use xlink:href="#DejaVuSerif-30"/>
      </g>
     </g>
    </g>
    <g id="ytick_2">
     <g id="line2d_7">
      <path d="M 52.671875 265.885943 
L 563.356875 265.885943 
" clip-path="url(#p9f58d01e78)" style="fill: none; stroke: #b0b0b0; stroke-opacity: 0.3; stroke-width: 0.5; stroke-linecap: square"/>
     </g>
     <g id="line2d_8">
      <g>
       <use xlink:href="#mb86830406c" x="52.671875" y="265.885943" style="stroke: #000000; stroke-width: 0.8"/>
      </g>
     </g>
     <g id="text_4">
      <!-- 20 -->
      <g transform="translate(32.946875 269.685162) scale(0.1 -0.1)">
       <defs>
        <path id="DejaVuSerif-32" d="M 819 3553 
L 469 3553 
L 469 4384 
Q 803 4563 1142 4656 
Q 1481 4750 1806 4750 
Q 2534 4750 2956 4397 
Q 3378 4044 3378 3438 
Q 3378 2753 2422 1800 
Q 2347 1728 2309 1691 
L 1131 513 
L 3078 513 
L 3078 1088 
L 3444 1088 
L 3444 0 
L 434 0 
L 434 341 
L 1850 1753 
Q 2319 2222 2519 2614 
Q 2719 3006 2719 3438 
Q 2719 3909 2473 4175 
Q 2228 4441 1797 4441 
Q 1350 4441 1106 4219 
Q 863 3997 819 3553 
z
" transform="scale(0.015625)"/>
       </defs>
       <use xlink:href="#DejaVuSerif-32"/>
       <use xlink:href="#DejaVuSerif-30" transform="translate(63.623047 0)"/>
      </g>
     </g>
    </g>
    <g id="ytick_3">
     <g id="line2d_9">
      <path d="M 52.671875 215.583761 
L 563.356875 215.583761 
" clip-path="url(#p9f58d01e78)" style="fill: none; stroke: #b0b0b0; stroke-opacity: 0.3; stroke-width: 0.5; stroke-linecap: square"/>
     </g>
     <g id="line2d_10">
      <g>
       <use xlink:href="#mb86830406c" x="52.671875" y="215.583761" style="stroke: #000000; stroke-width: 0.8"/>
      </g>
     </g>
     <g id="text_5">
      <!-- 40 -->
      <g transform="translate(32.946875 219.38298) scale(0.1 -0.1)">
       <defs>
        <path id="DejaVuSerif-34" d="M 2234 1581 
L 2234 4063 
L 641 1581 
L 2234 1581 
z
M 3609 0 
L 1484 0 
L 1484 331 
L 2234 331 
L 2234 1247 
L 197 1247 
L 197 1588 
L 2241 4750 
L 2859 4750 
L 2859 1581 
L 3750 1581 
L 3750 1247 
L 2859 1247 
L 2859 331 
L 3609 331 
L 3609 0 
z
" transform="scale(0.015625)"/>
       </defs>
       <use xlink:href="#DejaVuSerif-34"/>
       <use xlink:href="#DejaVuSerif-30" transform="translate(63.623047 0)"/>
      </g>
     </g>
    </g>
    <g id="ytick_4">
     <g id="line2d_11">
      <path d="M 52.671875 165.28158 
L 563.356875 165.28158 
" clip-path="url(#p9f58d01e78)" style="fill: none; stroke: #b0b0b0; stroke-opacity: 0.3; stroke-width: 0.5; stroke-linecap: square"/>
     </g>
     <g id="line2d_12">
      <g>
       <use xlink:href="#mb86830406c" x="52.671875" y="165.28158" style="stroke: #000000; stroke-width: 0.8"/>
      </g>
     </g>
     <g id="text_6">
      <!-- 60 -->
      <g transform="translate(32.946875 169.080798) scale(0.1 -0.1)">
       <defs>
        <path id="DejaVuSerif-36" d="M 2094 219 
Q 2534 219 2771 542 
Q 3009 866 3009 1472 
Q 3009 2078 2771 2401 
Q 2534 2725 2094 2725 
Q 1647 2725 1412 2412 
Q 1178 2100 1178 1509 
Q 1178 888 1415 553 
Q 1653 219 2094 219 
z
M 1075 2569 
Q 1288 2803 1556 2918 
Q 1825 3034 2163 3034 
Q 2859 3034 3264 2615 
Q 3669 2197 3669 1472 
Q 3669 763 3233 336 
Q 2797 -91 2069 -91 
Q 1278 -91 853 498 
Q 428 1088 428 2181 
Q 428 3406 931 4078 
Q 1434 4750 2350 4750 
Q 2597 4750 2869 4703 
Q 3141 4656 3425 4563 
L 3425 3794 
L 3072 3794 
Q 3034 4109 2831 4275 
Q 2628 4441 2284 4441 
Q 1678 4441 1381 3981 
Q 1084 3522 1075 2569 
z
" transform="scale(0.015625)"/>
       </defs>
       <use xlink:href="#DejaVuSerif-36"/>
       <use xlink:href="#DejaVuSerif-30" transform="translate(63.623047 0)"/>
      </g>
     </g>
    </g>
    <g id="ytick_5">
     <g id="line2d_13">
      <path d="M 52.671875 114.979398 
L 563.356875 114.979398 
" clip-path="url(#p9f58d01e78)" style="fill: none; stroke: #b0b0b0; stroke-opacity: 0.3; stroke-width: 0.5; stroke-linecap: square"/>
     </g>
     <g id="line2d_14">
      <g>
       <use xlink:href="#mb86830406c" x="52.671875" y="114.979398" style="stroke: #000000; stroke-width: 0.8"/>
      </g>
     </g>
     <g id="text_7">
      <!-- 80 -->
      <g transform="translate(32.946875 118.778616) scale(0.1 -0.1)">
       <defs>
        <path id="DejaVuSerif-38" d="M 2981 1275 
Q 2981 1775 2732 2051 
Q 2484 2328 2034 2328 
Q 1584 2328 1336 2051 
Q 1088 1775 1088 1275 
Q 1088 772 1336 495 
Q 1584 219 2034 219 
Q 2484 219 2732 495 
Q 2981 772 2981 1275 
z
M 2853 3541 
Q 2853 3966 2637 4203 
Q 2422 4441 2034 4441 
Q 1650 4441 1433 4203 
Q 1216 3966 1216 3541 
Q 1216 3113 1433 2875 
Q 1650 2638 2034 2638 
Q 2422 2638 2637 2875 
Q 2853 3113 2853 3541 
z
M 2516 2484 
Q 3047 2413 3344 2092 
Q 3641 1772 3641 1275 
Q 3641 619 3225 264 
Q 2809 -91 2034 -91 
Q 1263 -91 845 264 
Q 428 619 428 1275 
Q 428 1772 725 2092 
Q 1022 2413 1556 2484 
Q 1084 2569 832 2842 
Q 581 3116 581 3541 
Q 581 4103 968 4426 
Q 1356 4750 2034 4750 
Q 2713 4750 3100 4426 
Q 3488 4103 3488 3541 
Q 3488 3116 3236 2842 
Q 2984 2569 2516 2484 
z
" transform="scale(0.015625)"/>
       </defs>
       <use xlink:href="#DejaVuSerif-38"/>
       <use xlink:href="#DejaVuSerif-30" transform="translate(63.623047 0)"/>
      </g>
     </g>
    </g>
    <g id="ytick_6">
     <g id="line2d_15">
      <path d="M 52.671875 64.677216 
L 563.356875 64.677216 
" clip-path="url(#p9f58d01e78)" style="fill: none; stroke: #b0b0b0; stroke-opacity: 0.3; stroke-width: 0.5; stroke-linecap: square"/>
     </g>
     <g id="line2d_16">
      <g>
       <use xlink:href="#mb86830406c" x="52.671875" y="64.677216" style="stroke: #000000; stroke-width: 0.8"/>
      </g>
     </g>
     <g id="text_8">
      <!-- 100 -->
      <g transform="translate(26.584375 68.476435) scale(0.1 -0.1)">
       <defs>
        <path id="DejaVuSerif-31" d="M 909 0 
L 909 331 
L 1722 331 
L 1722 4213 
L 781 3603 
L 781 4013 
L 1919 4750 
L 2350 4750 
L 2350 331 
L 3163 331 
L 3163 0 
L 909 0 
z
" transform="scale(0.015625)"/>
       </defs>
       <use xlink:href="#DejaVuSerif-31"/>
       <use xlink:href="#DejaVuSerif-30" transform="translate(63.623047 0)"/>
       <use xlink:href="#DejaVuSerif-30" transform="translate(127.246094 0)"/>
      </g>
     </g>
    </g>
    <g id="text_9">
     <!-- Percentage (%) -->
     <g transform="translate(19.918125 224.489312) rotate(-90) scale(0.12 -0.12)">
      <defs>
       <path id="DejaVuSerif-67" d="M 3359 2988 
L 3359 72 
Q 3359 -644 2965 -1033 
Q 2572 -1422 1844 -1422 
Q 1516 -1422 1216 -1362 
Q 916 -1303 641 -1184 
L 641 -488 
L 941 -488 
Q 997 -813 1206 -963 
Q 1416 -1113 1806 -1113 
Q 2313 -1113 2548 -827 
Q 2784 -541 2784 72 
L 2784 519 
Q 2616 206 2355 57 
Q 2094 -91 1709 -91 
Q 1097 -91 708 395 
Q 319 881 319 1663 
Q 319 2444 706 2928 
Q 1094 3413 1709 3413 
Q 2094 3413 2355 3264 
Q 2616 3116 2784 2803 
L 2784 3322 
L 3909 3322 
L 3909 2988 
L 3359 2988 
z
M 2784 1825 
Q 2784 2422 2554 2737 
Q 2325 3053 1888 3053 
Q 1444 3053 1217 2703 
Q 991 2353 991 1663 
Q 991 975 1217 622 
Q 1444 269 1888 269 
Q 2325 269 2554 583 
Q 2784 897 2784 1497 
L 2784 1825 
z
" transform="scale(0.015625)"/>
       <path id="DejaVuSerif-25" d="M 1434 4459 
Q 1159 4459 1004 4200 
Q 850 3941 850 3475 
Q 850 3016 1008 2753 
Q 1166 2491 1434 2491 
Q 1700 2491 1854 2752 
Q 2009 3013 2009 3475 
Q 2009 3938 1854 4198 
Q 1700 4459 1434 4459 
z
M 4653 2169 
Q 4381 2169 4226 1906 
Q 4072 1644 4072 1178 
Q 4072 719 4228 458 
Q 4384 197 4653 197 
Q 4922 197 5075 458 
Q 5228 719 5228 1178 
Q 5228 1641 5073 1905 
Q 4919 2169 4653 2169 
z
M 4653 2450 
Q 5147 2450 5437 2106 
Q 5728 1763 5728 1178 
Q 5728 594 5436 251 
Q 5144 -91 4653 -91 
Q 4153 -91 3862 251 
Q 3572 594 3572 1178 
Q 3572 1766 3864 2108 
Q 4156 2450 4653 2450 
z
M 4263 4750 
L 4738 4750 
L 1819 -91 
L 1344 -91 
L 4263 4750 
z
M 1428 4750 
Q 1922 4750 2215 4408 
Q 2509 4066 2509 3481 
Q 2509 2891 2217 2550 
Q 1925 2209 1428 2209 
Q 931 2209 642 2551 
Q 353 2894 353 3481 
Q 353 4063 643 4406 
Q 934 4750 1428 4750 
z
" transform="scale(0.015625)"/>
      </defs>
      <use xlink:href="#DejaVuSerif-50"/>
      <use xlink:href="#DejaVuSerif-65" transform="translate(62.785156 0)"/>
      <use xlink:href="#DejaVuSerif-72" transform="translate(121.964844 0)"/>
      <use xlink:href="#DejaVuSerif-63" transform="translate(169.767578 0)"/>
      <use xlink:href="#DejaVuSerif-65" transform="translate(225.773438 0)"/>
      <use xlink:href="#DejaVuSerif-6e" transform="translate(284.953125 0)"/>
      <use xlink:href="#DejaVuSerif-74" transform="translate(349.357422 0)"/>
      <use xlink:href="#DejaVuSerif-61" transform="translate(389.542969 0)"/>
      <use xlink:href="#DejaVuSerif-67" transform="translate(449.162109 0)"/>
      <use xlink:href="#DejaVuSerif-65" transform="translate(513.175781 0)"/>
      <use xlink:href="#DejaVuSerif-20" transform="translate(572.355469 0)"/>
      <use xlink:href="#DejaVuSerif-28" transform="translate(604.142578 0)"/>
      <use xlink:href="#DejaVuSerif-25" transform="translate(643.15625 0)"/>
      <use xlink:href="#DejaVuSerif-29" transform="translate(738.175781 0)"/>
     </g>
    </g>
   </g>
   <g id="line2d_17">
    <path d="M 52.671875 190.43267 
L 563.356875 190.43267 
" clip-path="url(#p9f58d01e78)" style="fill: none; stroke-dasharray: 2.96,1.28; stroke-dashoffset: 0; stroke: #888888; stroke-opacity: 0.5; stroke-width: 0.8"/>
   </g>
   <g id="patch_7">
    <path d="M 52.671875 316.188125 
L 52.671875 39.526125 
" style="fill: none; stroke: #000000; stroke-width: 0.8; stroke-linejoin: miter; stroke-linecap: square"/>
   </g>
   <g id="patch_8">
    <path d="M 52.671875 316.188125 
L 563.356875 316.188125 
" style="fill: none; stroke: #000000; stroke-width: 0.8; stroke-linejoin: miter; stroke-linecap: square"/>
   </g>
   <g id="text_10">
    <!-- 46.3% -->
    <g style="fill: #c73e1d" transform="translate(99.976832 194.311902) scale(0.14 -0.14)">
     <defs>
      <path id="DejaVuSerif-Bold-34" d="M 4084 0 
L 1516 0 
L 1516 378 
L 2209 378 
L 2209 1228 
L 263 1228 
L 263 1588 
L 2216 4750 
L 3391 4750 
L 3391 1631 
L 4191 1631 
L 4191 1228 
L 3391 1228 
L 3391 378 
L 4084 378 
L 4084 0 
z
M 2209 1631 
L 2209 3897 
L 819 1631 
L 2209 1631 
z
" transform="scale(0.015625)"/>
      <path id="DejaVuSerif-Bold-36" d="M 1575 2766 
Q 1778 2928 2029 3009 
Q 2281 3091 2578 3091 
Q 3294 3091 3701 2672 
Q 4109 2253 4109 1522 
Q 4109 750 3650 329 
Q 3191 -91 2344 -91 
Q 1388 -91 895 486 
Q 403 1063 403 2181 
Q 403 3453 950 4101 
Q 1497 4750 2572 4750 
Q 2853 4750 3175 4703 
Q 3497 4656 3866 4563 
L 3866 3738 
L 3488 3738 
Q 3409 4056 3192 4220 
Q 2975 4384 2631 4384 
Q 2075 4384 1826 4003 
Q 1578 3622 1575 2766 
z
M 2272 275 
Q 2594 275 2731 548 
Q 2869 822 2869 1497 
Q 2869 2172 2731 2445 
Q 2594 2719 2272 2719 
Q 1950 2719 1814 2445 
Q 1678 2172 1678 1497 
Q 1678 822 1814 548 
Q 1950 275 2272 275 
z
" transform="scale(0.015625)"/>
      <path id="DejaVuSerif-Bold-2e" d="M 519 506 
Q 519 750 694 925 
Q 869 1100 1113 1100 
Q 1359 1100 1534 925 
Q 1709 750 1709 506 
Q 1709 259 1534 84 
Q 1359 -91 1113 -91 
Q 869 -91 694 84 
Q 519 259 519 506 
z
" transform="scale(0.015625)"/>
      <path id="DejaVuSerif-Bold-33" d="M 550 4531 
Q 963 4641 1350 4695 
Q 1738 4750 2106 4750 
Q 2950 4750 3401 4448 
Q 3853 4147 3853 3584 
Q 3853 3163 3593 2900 
Q 3334 2638 2834 2547 
Q 3444 2450 3744 2131 
Q 4044 1813 4044 1259 
Q 4044 606 3526 257 
Q 3009 -91 2028 -91 
Q 1659 -91 1267 -28 
Q 875 34 447 159 
L 447 1184 
L 825 1184 
Q 859 741 1103 508 
Q 1347 275 1778 275 
Q 2253 275 2512 539 
Q 2772 803 2772 1288 
Q 2772 1794 2501 2069 
Q 2231 2344 1734 2344 
L 1528 2344 
L 1528 2719 
L 1691 2719 
Q 2150 2719 2381 2931 
Q 2613 3144 2613 3566 
Q 2613 3963 2395 4173 
Q 2178 4384 1772 4384 
Q 1403 4384 1187 4182 
Q 972 3981 928 3597 
L 550 3597 
L 550 4531 
z
" transform="scale(0.015625)"/>
      <path id="DejaVuSerif-Bold-25" d="M 1381 4434 
Q 1181 4434 1093 4217 
Q 1006 4000 1006 3481 
Q 1006 2959 1093 2740 
Q 1181 2522 1381 2522 
Q 1584 2522 1671 2740 
Q 1759 2959 1759 3481 
Q 1759 4000 1671 4217 
Q 1584 4434 1381 4434 
z
M 1381 4750 
Q 1978 4750 2295 4423 
Q 2613 4097 2613 3481 
Q 2613 2866 2295 2537 
Q 1978 2209 1381 2209 
Q 788 2209 470 2537 
Q 153 2866 153 3481 
Q 153 4097 470 4423 
Q 788 4750 1381 4750 
z
M 4231 4750 
L 4769 4750 
L 1850 -91 
L 1313 -91 
L 4231 4750 
z
M 4697 2450 
Q 5294 2450 5609 2123 
Q 5925 1797 5925 1184 
Q 5925 569 5609 239 
Q 5294 -91 4697 -91 
Q 4103 -91 3786 239 
Q 3469 569 3469 1184 
Q 3469 1797 3786 2123 
Q 4103 2450 4697 2450 
z
M 4697 2138 
Q 4494 2138 4406 1920 
Q 4319 1703 4319 1184 
Q 4319 663 4408 444 
Q 4497 225 4697 225 
Q 4900 225 4987 444 
Q 5075 663 5075 1184 
Q 5075 1703 4987 1920 
Q 4900 2138 4697 2138 
z
" transform="scale(0.015625)"/>
     </defs>
     <use xlink:href="#DejaVuSerif-Bold-34"/>
     <use xlink:href="#DejaVuSerif-Bold-36" transform="translate(69.580078 0)"/>
     <use xlink:href="#DejaVuSerif-Bold-2e" transform="translate(139.160156 0)"/>
     <use xlink:href="#DejaVuSerif-Bold-33" transform="translate(173.974609 0)"/>
     <use xlink:href="#DejaVuSerif-Bold-25" transform="translate(243.554688 0)"/>
    </g>
   </g>
   <g id="text_11">
    <!-- 0.15% -->
    <g style="fill: #2e86ab" transform="translate(373.070414 310.384187) scale(0.14 -0.14)">
     <defs>
      <path id="DejaVuSerif-Bold-30" d="M 2228 275 
Q 2603 275 2742 615 
Q 2881 956 2881 2328 
Q 2881 3691 2742 4037 
Q 2603 4384 2228 4384 
Q 1853 4384 1714 4043 
Q 1575 3703 1575 2328 
Q 1575 956 1714 615 
Q 1853 275 2228 275 
z
M 2228 -91 
Q 1294 -91 797 532 
Q 300 1156 300 2328 
Q 300 3500 797 4125 
Q 1294 4750 2228 4750 
Q 3159 4750 3656 4125 
Q 4153 3500 4153 2328 
Q 4153 1156 3656 532 
Q 3159 -91 2228 -91 
z
" transform="scale(0.015625)"/>
      <path id="DejaVuSerif-Bold-31" d="M 878 0 
L 878 378 
L 1753 378 
L 1753 4153 
L 781 3578 
L 781 4044 
L 1953 4750 
L 2938 4750 
L 2938 378 
L 3816 378 
L 3816 0 
L 878 0 
z
" transform="scale(0.015625)"/>
      <path id="DejaVuSerif-Bold-35" d="M 3609 4666 
L 3609 3847 
L 1113 3847 
L 1113 2822 
Q 1319 2981 1572 3062 
Q 1825 3144 2106 3144 
Q 2969 3144 3469 2708 
Q 3969 2272 3969 1522 
Q 3969 759 3469 334 
Q 2969 -91 2069 -91 
Q 1688 -91 1311 -28 
Q 934 34 525 166 
L 525 1184 
L 900 1184 
Q 919 725 1139 500 
Q 1359 275 1791 275 
Q 2250 275 2472 583 
Q 2694 891 2694 1522 
Q 2694 2144 2476 2451 
Q 2259 2759 1819 2759 
Q 1581 2759 1395 2661 
Q 1209 2563 1050 2356 
L 738 2356 
L 738 4666 
L 3609 4666 
z
" transform="scale(0.015625)"/>
     </defs>
     <use xlink:href="#DejaVuSerif-Bold-30"/>
     <use xlink:href="#DejaVuSerif-Bold-2e" transform="translate(69.580078 0)"/>
     <use xlink:href="#DejaVuSerif-Bold-31" transform="translate(104.394531 0)"/>
     <use xlink:href="#DejaVuSerif-Bold-35" transform="translate(173.974609 0)"/>
     <use xlink:href="#DejaVuSerif-Bold-25" transform="translate(243.554688 0)"/>
    </g>
   </g>
   <g id="text_12">
    <!-- 49.9% -->
    <g style="fill: #c73e1d" transform="translate(201.787007 185.881416) scale(0.11 -0.11)">
     <defs>
      <path id="DejaVuSerif-39" d="M 2994 2091 
Q 2784 1856 2512 1740 
Q 2241 1625 1900 1625 
Q 1206 1625 804 2044 
Q 403 2463 403 3188 
Q 403 3897 839 4323 
Q 1275 4750 2003 4750 
Q 2794 4750 3217 4161 
Q 3641 3572 3641 2478 
Q 3641 1253 3137 581 
Q 2634 -91 1722 -91 
Q 1475 -91 1203 -44 
Q 931 3 647 97 
L 647 872 
L 997 872 
Q 1038 556 1241 387 
Q 1444 219 1784 219 
Q 2391 219 2687 676 
Q 2984 1134 2994 2091 
z
M 1978 4441 
Q 1534 4441 1298 4117 
Q 1063 3794 1063 3188 
Q 1063 2581 1298 2256 
Q 1534 1931 1978 1931 
Q 2422 1931 2658 2245 
Q 2894 2559 2894 3150 
Q 2894 3772 2656 4106 
Q 2419 4441 1978 4441 
z
" transform="scale(0.015625)"/>
     </defs>
     <use xlink:href="#DejaVuSerif-34"/>
     <use xlink:href="#DejaVuSerif-39" transform="translate(63.623047 0)"/>
     <use xlink:href="#DejaVuSerif-2e" transform="translate(127.246094 0)"/>
     <use xlink:href="#DejaVuSerif-39" transform="translate(159.033203 0)"/>
     <use xlink:href="#DejaVuSerif-25" transform="translate(222.65625 0)"/>
    </g>
   </g>
   <g id="text_13">
    <!-- 99.5% -->
    <g style="fill: #2e86ab" transform="translate(474.88059 61.132005) scale(0.11 -0.11)">
     <defs>
      <path id="DejaVuSerif-35" d="M 3219 4666 
L 3219 4153 
L 1081 4153 
L 1081 2816 
Q 1244 2928 1461 2984 
Q 1678 3041 1947 3041 
Q 2703 3041 3140 2622 
Q 3578 2203 3578 1478 
Q 3578 738 3136 323 
Q 2694 -91 1894 -91 
Q 1572 -91 1234 -12 
Q 897 66 544 225 
L 544 1131 
L 897 1131 
Q 925 688 1179 453 
Q 1434 219 1894 219 
Q 2388 219 2653 544 
Q 2919 869 2919 1478 
Q 2919 2084 2655 2407 
Q 2391 2731 1894 2731 
Q 1613 2731 1398 2631 
Q 1184 2531 1019 2322 
L 750 2322 
L 750 4666 
L 3219 4666 
z
" transform="scale(0.015625)"/>
     </defs>
     <use xlink:href="#DejaVuSerif-39"/>
     <use xlink:href="#DejaVuSerif-39" transform="translate(63.623047 0)"/>
     <use xlink:href="#DejaVuSerif-2e" transform="translate(127.246094 0)"/>
     <use xlink:href="#DejaVuSerif-35" transform="translate(159.033203 0)"/>
     <use xlink:href="#DejaVuSerif-25" transform="translate(222.65625 0)"/>
    </g>
   </g>
   <g id="patch_9">
    <path d="M 395.404322 311.573422 
Q 395.404322 257.774868 395.404322 203.976314 
" style="fill: none; stroke: #3b1f2b; stroke-width: 2; stroke-linecap: round"/>
    <path d="M 397.604322 307.173422 
L 395.404322 311.573422 
L 393.204322 307.173422 
" style="fill: none; stroke: #3b1f2b; stroke-width: 2; stroke-linecap: round"/>
    <path d="M 393.204322 208.376314 
L 395.404322 203.976314 
L 397.604322 208.376314 
" style="fill: none; stroke: #3b1f2b; stroke-width: 2; stroke-linecap: round"/>
   </g>
   <g id="text_14">
    <!-- 300× -->
    <g style="fill: #3b1f2b" transform="translate(452.855993 254.556803) scale(0.13 -0.13)">
     <defs>
      <path id="DejaVuSerif-Bold-d7" d="M 4538 3378 
L 3163 2003 
L 4538 628 
L 4056 147 
L 2681 1522 
L 1306 147 
L 825 628 
L 2203 2003 
L 825 3378 
L 1306 3866 
L 2681 2491 
L 4056 3866 
L 4538 3378 
z
" transform="scale(0.015625)"/>
     </defs>
     <use xlink:href="#DejaVuSerif-Bold-33"/>
     <use xlink:href="#DejaVuSerif-Bold-30" transform="translate(69.580078 0)"/>
     <use xlink:href="#DejaVuSerif-Bold-30" transform="translate(139.160156 0)"/>
     <use xlink:href="#DejaVuSerif-Bold-d7" transform="translate(208.740234 0)"/>
    </g>
    <!-- EER gap -->
    <g style="fill: #3b1f2b" transform="translate(440.995525 269.11396) scale(0.13 -0.13)">
     <defs>
      <path id="DejaVuSerif-Bold-45" d="M 300 0 
L 300 378 
L 897 378 
L 897 4288 
L 300 4288 
L 300 4666 
L 4494 4666 
L 4494 3566 
L 4063 3566 
L 4063 4238 
L 2100 4238 
L 2100 2741 
L 3322 2741 
L 3322 3334 
L 3750 3334 
L 3750 1722 
L 3322 1722 
L 3322 2316 
L 2100 2316 
L 2100 428 
L 4122 428 
L 4122 1100 
L 4550 1100 
L 4550 0 
L 300 0 
z
" transform="scale(0.015625)"/>
      <path id="DejaVuSerif-Bold-52" d="M 3397 2278 
Q 3675 2238 3865 2094 
Q 4056 1950 4197 1678 
L 4878 378 
L 5356 378 
L 5356 0 
L 3822 0 
L 3078 1409 
Q 2863 1847 2711 1967 
Q 2559 2088 2291 2088 
L 2100 2088 
L 2100 378 
L 2700 378 
L 2700 0 
L 300 0 
L 300 378 
L 897 378 
L 897 4288 
L 300 4288 
L 300 4666 
L 2963 4666 
Q 3775 4666 4217 4339 
Q 4659 4013 4659 3413 
Q 4659 2925 4345 2642 
Q 4031 2359 3397 2278 
z
M 2100 2463 
L 2509 2463 
Q 2947 2463 3183 2700 
Q 3419 2938 3419 3378 
Q 3419 3819 3183 4053 
Q 2947 4288 2509 4288 
L 2100 4288 
L 2100 2463 
z
" transform="scale(0.015625)"/>
      <path id="DejaVuSerif-Bold-20" transform="scale(0.015625)"/>
      <path id="DejaVuSerif-Bold-67" d="M 3853 2944 
L 3853 44 
Q 3853 -656 3354 -1039 
Q 2856 -1422 1947 -1422 
Q 1616 -1422 1275 -1370 
Q 934 -1319 575 -1216 
L 575 -422 
L 928 -422 
Q 975 -750 1192 -909 
Q 1409 -1069 1813 -1069 
Q 2325 -1069 2536 -823 
Q 2747 -578 2747 44 
L 2747 422 
Q 2606 163 2367 36 
Q 2128 -91 1778 -91 
Q 1072 -91 667 378 
Q 263 847 263 1663 
Q 263 2481 667 2947 
Q 1072 3413 1778 3413 
Q 2128 3413 2367 3286 
Q 2606 3159 2747 2900 
L 2747 3322 
L 4325 3322 
L 4325 2944 
L 3853 2944 
z
M 2747 1825 
Q 2747 2406 2597 2665 
Q 2447 2925 2119 2925 
Q 1775 2925 1636 2651 
Q 1497 2378 1497 1663 
Q 1497 947 1637 672 
Q 1778 397 2119 397 
Q 2447 397 2597 656 
Q 2747 916 2747 1497 
L 2747 1825 
z
" transform="scale(0.015625)"/>
      <path id="DejaVuSerif-Bold-61" d="M 3525 2041 
L 3525 378 
L 4000 378 
L 4000 0 
L 2419 0 
L 2419 422 
Q 2200 159 1931 34 
Q 1663 -91 1319 -91 
Q 809 -91 536 182 
Q 263 456 263 966 
Q 263 1525 655 1803 
Q 1047 2081 1838 2081 
L 2419 2081 
L 2419 2278 
Q 2419 2681 2228 2873 
Q 2038 3066 1638 3066 
Q 1306 3066 1126 2930 
Q 947 2794 872 2484 
L 519 2484 
L 519 3200 
Q 816 3306 1134 3359 
Q 1453 3413 1806 3413 
Q 2697 3413 3111 3081 
Q 3525 2750 3525 2041 
z
M 2419 1044 
L 2419 1709 
L 2003 1709 
Q 1694 1709 1528 1540 
Q 1363 1372 1363 1056 
Q 1363 741 1483 584 
Q 1603 428 1850 428 
Q 2106 428 2262 597 
Q 2419 766 2419 1044 
z
" transform="scale(0.015625)"/>
      <path id="DejaVuSerif-Bold-70" d="M 1728 1825 
L 1728 1497 
Q 1728 916 1876 656 
Q 2025 397 2356 397 
Q 2697 397 2836 672 
Q 2975 947 2975 1663 
Q 2975 2378 2836 2651 
Q 2697 2925 2356 2925 
Q 2025 2925 1876 2665 
Q 1728 2406 1728 1825 
z
M 622 2944 
L 147 2944 
L 147 3322 
L 1728 3322 
L 1728 2900 
Q 1869 3159 2106 3286 
Q 2344 3413 2694 3413 
Q 3403 3413 3811 2945 
Q 4219 2478 4219 1663 
Q 4219 847 3811 378 
Q 3403 -91 2694 -91 
Q 2344 -91 2106 36 
Q 1869 163 1728 422 
L 1728 -953 
L 2241 -953 
L 2241 -1331 
L 147 -1331 
L 147 -953 
L 622 -953 
L 622 2944 
z
" transform="scale(0.015625)"/>
     </defs>
     <use xlink:href="#DejaVuSerif-Bold-45"/>
     <use xlink:href="#DejaVuSerif-Bold-45" transform="translate(76.220703 0)"/>
     <use xlink:href="#DejaVuSerif-Bold-52" transform="translate(152.441406 0)"/>
     <use xlink:href="#DejaVuSerif-Bold-20" transform="translate(235.546875 0)"/>
     <use xlink:href="#DejaVuSerif-Bold-67" transform="translate(270.361328 0)"/>
     <use xlink:href="#DejaVuSerif-Bold-61" transform="translate(340.283203 0)"/>
     <use xlink:href="#DejaVuSerif-Bold-70" transform="translate(405.078125 0)"/>
    </g>
   </g>
   <g id="text_15">
    <!-- The Core Finding: Same Model, Same Data, Different Collapse -->
    <g transform="translate(97.929062 19.918125) scale(0.12 -0.12)">
     <defs>
      <path id="DejaVuSerif-Bold-54" d="M 1159 0 
L 1159 378 
L 1778 378 
L 1778 4238 
L 500 4238 
L 500 3500 
L 72 3500 
L 72 4666 
L 4697 4666 
L 4697 3500 
L 4275 3500 
L 4275 4238 
L 2988 4238 
L 2988 378 
L 3609 378 
L 3609 0 
L 1159 0 
z
" transform="scale(0.015625)"/>
      <path id="DejaVuSerif-Bold-68" d="M 219 0 
L 219 378 
L 691 378 
L 691 4488 
L 197 4488 
L 197 4863 
L 1797 4863 
L 1797 2853 
Q 1997 3150 2253 3281 
Q 2509 3413 2900 3413 
Q 3459 3413 3745 3083 
Q 4031 2753 4031 2113 
L 4031 378 
L 4506 378 
L 4506 0 
L 2522 0 
L 2522 378 
L 2925 378 
L 2925 2144 
Q 2925 2566 2817 2730 
Q 2709 2894 2444 2894 
Q 2109 2894 1953 2648 
Q 1797 2403 1797 1869 
L 1797 378 
L 2203 378 
L 2203 0 
L 219 0 
z
" transform="scale(0.015625)"/>
      <path id="DejaVuSerif-Bold-65" d="M 2566 1875 
Q 2566 2531 2444 2795 
Q 2322 3059 2028 3059 
Q 1744 3059 1620 2800 
Q 1497 2541 1497 1931 
L 1497 1875 
L 2566 1875 
z
M 3781 1503 
L 1497 1503 
L 1497 1478 
Q 1497 834 1690 548 
Q 1884 263 2316 263 
Q 2675 263 2897 453 
Q 3119 644 3181 1006 
L 3700 1006 
Q 3566 441 3166 175 
Q 2766 -91 2047 -91 
Q 1184 -91 723 364 
Q 263 819 263 1663 
Q 263 2488 734 2950 
Q 1206 3413 2047 3413 
Q 2872 3413 3312 2927 
Q 3753 2441 3781 1503 
z
" transform="scale(0.015625)"/>
      <path id="DejaVuSerif-Bold-43" d="M 4769 1331 
Q 4584 609 4106 259 
Q 3628 -91 2822 -91 
Q 1641 -91 955 561 
Q 269 1213 269 2328 
Q 269 3447 955 4098 
Q 1641 4750 2822 4750 
Q 3238 4750 3688 4650 
Q 4138 4550 4641 4347 
L 4641 3200 
L 4244 3200 
Q 4122 3788 3800 4080 
Q 3478 4372 2950 4372 
Q 2269 4372 1937 3870 
Q 1606 3369 1606 2328 
Q 1606 1288 1937 788 
Q 2269 288 2956 288 
Q 3422 288 3717 547 
Q 4013 806 4147 1331 
L 4769 1331 
z
" transform="scale(0.015625)"/>
      <path id="DejaVuSerif-Bold-6f" d="M 2138 263 
Q 2488 263 2630 563 
Q 2772 863 2772 1663 
Q 2772 2463 2631 2761 
Q 2491 3059 2138 3059 
Q 1784 3059 1640 2757 
Q 1497 2456 1497 1663 
Q 1497 869 1640 566 
Q 1784 263 2138 263 
z
M 2138 -91 
Q 1259 -91 761 376 
Q 263 844 263 1663 
Q 263 2484 761 2948 
Q 1259 3413 2138 3413 
Q 3019 3413 3516 2948 
Q 4013 2484 4013 1663 
Q 4013 844 3514 376 
Q 3016 -91 2138 -91 
z
" transform="scale(0.015625)"/>
      <path id="DejaVuSerif-Bold-72" d="M 3438 3359 
L 3438 2369 
L 3084 2369 
Q 3066 2634 2941 2764 
Q 2816 2894 2578 2894 
Q 2216 2894 2006 2575 
Q 1797 2256 1797 1691 
L 1797 378 
L 2400 378 
L 2400 0 
L 219 0 
L 219 378 
L 691 378 
L 691 2944 
L 184 2944 
L 184 3322 
L 1797 3322 
L 1797 2731 
Q 1959 3078 2226 3245 
Q 2494 3413 2881 3413 
Q 2978 3413 3117 3398 
Q 3256 3384 3438 3359 
z
" transform="scale(0.015625)"/>
      <path id="DejaVuSerif-Bold-46" d="M 300 0 
L 300 378 
L 897 378 
L 897 4288 
L 300 4288 
L 300 4666 
L 4459 4666 
L 4459 3566 
L 4031 3566 
L 4031 4238 
L 2106 4238 
L 2106 2741 
L 3291 2741 
L 3291 3334 
L 3719 3334 
L 3719 1722 
L 3291 1722 
L 3291 2316 
L 2106 2316 
L 2106 378 
L 2841 378 
L 2841 0 
L 300 0 
z
" transform="scale(0.015625)"/>
      <path id="DejaVuSerif-Bold-69" d="M 588 4263 
Q 588 4516 763 4689 
Q 938 4863 1191 4863 
Q 1438 4863 1611 4689 
Q 1784 4516 1784 4263 
Q 1784 4016 1611 3842 
Q 1438 3669 1191 3669 
Q 938 3669 763 3841 
Q 588 4013 588 4263 
z
M 1797 378 
L 2272 378 
L 2272 0 
L 219 0 
L 219 378 
L 691 378 
L 691 2944 
L 219 2944 
L 219 3322 
L 1797 3322 
L 1797 378 
z
" transform="scale(0.015625)"/>
      <path id="DejaVuSerif-Bold-6e" d="M 219 0 
L 219 378 
L 691 378 
L 691 2944 
L 219 2944 
L 219 3322 
L 1797 3322 
L 1797 2853 
Q 1997 3150 2253 3281 
Q 2509 3413 2900 3413 
Q 3459 3413 3745 3083 
Q 4031 2753 4031 2113 
L 4031 378 
L 4506 378 
L 4506 0 
L 2522 0 
L 2522 378 
L 2925 378 
L 2925 2144 
Q 2925 2566 2817 2730 
Q 2709 2894 2444 2894 
Q 2109 2894 1953 2648 
Q 1797 2403 1797 1869 
L 1797 378 
L 2203 378 
L 2203 0 
L 219 0 
z
" transform="scale(0.015625)"/>
      <path id="DejaVuSerif-Bold-64" d="M 2747 1497 
L 2747 1825 
Q 2747 2406 2597 2665 
Q 2447 2925 2119 2925 
Q 1775 2925 1636 2651 
Q 1497 2378 1497 1663 
Q 1497 947 1637 672 
Q 1778 397 2119 397 
Q 2447 397 2597 656 
Q 2747 916 2747 1497 
z
M 3853 378 
L 4325 378 
L 4325 0 
L 2747 0 
L 2747 422 
Q 2606 163 2367 36 
Q 2128 -91 1778 -91 
Q 1072 -91 667 378 
Q 263 847 263 1663 
Q 263 2481 667 2947 
Q 1072 3413 1778 3413 
Q 2128 3413 2367 3286 
Q 2606 3159 2747 2900 
L 2747 4488 
L 2272 4488 
L 2272 4863 
L 3853 4863 
L 3853 378 
z
" transform="scale(0.015625)"/>
      <path id="DejaVuSerif-Bold-3a" d="M 588 2541 
Q 588 2788 761 2963 
Q 934 3138 1178 3138 
Q 1422 3138 1597 2961 
Q 1772 2784 1772 2541 
Q 1772 2297 1598 2125 
Q 1425 1953 1178 1953 
Q 931 1953 759 2125 
Q 588 2297 588 2541 
z
M 588 506 
Q 588 750 761 925 
Q 934 1100 1178 1100 
Q 1422 1100 1597 925 
Q 1772 750 1772 506 
Q 1772 259 1597 84 
Q 1422 -91 1178 -91 
Q 934 -91 761 84 
Q 588 259 588 506 
z
" transform="scale(0.015625)"/>
      <path id="DejaVuSerif-Bold-53" d="M 494 225 
L 494 1331 
L 891 1331 
Q 981 806 1318 547 
Q 1656 288 2253 288 
Q 2738 288 2991 472 
Q 3244 656 3244 1013 
Q 3244 1294 3072 1450 
Q 2900 1606 2363 1741 
L 1663 1913 
Q 978 2088 700 2398 
Q 422 2709 422 3284 
Q 422 3978 883 4364 
Q 1344 4750 2175 4750 
Q 2584 4750 3026 4681 
Q 3469 4613 3944 4475 
L 3944 3444 
L 3547 3444 
Q 3456 3925 3150 4148 
Q 2844 4372 2278 4372 
Q 1816 4372 1580 4211 
Q 1344 4050 1344 3731 
Q 1344 3441 1506 3289 
Q 1669 3138 2303 2975 
L 3003 2803 
Q 3653 2641 3945 2297 
Q 4238 1953 4238 1350 
Q 4238 644 3750 276 
Q 3263 -91 2316 -91 
Q 1859 -91 1409 -12 
Q 959 66 494 225 
z
" transform="scale(0.015625)"/>
      <path id="DejaVuSerif-Bold-6d" d="M 3884 2778 
Q 4116 3109 4384 3261 
Q 4653 3413 5013 3413 
Q 5584 3413 5867 3089 
Q 6150 2766 6150 2113 
L 6150 378 
L 6625 378 
L 6625 0 
L 4647 0 
L 4647 378 
L 5044 378 
L 5044 1947 
Q 5044 2569 4948 2731 
Q 4853 2894 4594 2894 
Q 4300 2894 4137 2667 
Q 3975 2441 3975 2022 
L 3975 378 
L 4372 378 
L 4372 0 
L 2472 0 
L 2472 378 
L 2869 378 
L 2869 1947 
Q 2869 2569 2772 2731 
Q 2675 2894 2419 2894 
Q 2122 2894 1959 2667 
Q 1797 2441 1797 2022 
L 1797 378 
L 2194 378 
L 2194 0 
L 219 0 
L 219 378 
L 691 378 
L 691 2944 
L 219 2944 
L 219 3322 
L 1797 3322 
L 1797 2853 
Q 1991 3144 2241 3278 
Q 2491 3413 2834 3413 
Q 3241 3413 3494 3258 
Q 3747 3103 3884 2778 
z
" transform="scale(0.015625)"/>
      <path id="DejaVuSerif-Bold-4d" d="M 269 0 
L 269 378 
L 863 378 
L 863 4288 
L 269 4288 
L 269 4666 
L 2194 4666 
L 3525 1672 
L 4863 4666 
L 6784 4666 
L 6784 4288 
L 6188 4288 
L 6188 378 
L 6784 378 
L 6784 0 
L 4384 0 
L 4384 378 
L 4978 378 
L 4978 3938 
L 3531 684 
L 2741 684 
L 1300 3938 
L 1300 378 
L 1894 378 
L 1894 0 
L 269 0 
z
" transform="scale(0.015625)"/>
      <path id="DejaVuSerif-Bold-6c" d="M 1797 378 
L 2272 378 
L 2272 0 
L 219 0 
L 219 378 
L 691 378 
L 691 4488 
L 219 4488 
L 219 4863 
L 1797 4863 
L 1797 378 
z
" transform="scale(0.015625)"/>
      <path id="DejaVuSerif-Bold-2c" d="M 84 -616 
Q 409 -353 562 -28 
Q 716 297 716 728 
L 716 997 
L 1606 997 
L 1606 972 
Q 1606 281 1317 -217 
Q 1028 -716 428 -1056 
L 84 -616 
z
" transform="scale(0.015625)"/>
      <path id="DejaVuSerif-Bold-44" d="M 2100 378 
L 2534 378 
Q 3266 378 3605 847 
Q 3944 1316 3944 2338 
Q 3944 3353 3606 3820 
Q 3269 4288 2534 4288 
L 2100 4288 
L 2100 378 
z
M 300 0 
L 300 378 
L 897 378 
L 897 4288 
L 300 4288 
L 300 4666 
L 2694 4666 
Q 3950 4666 4615 4066 
Q 5281 3466 5281 2338 
Q 5281 1203 4614 601 
Q 3947 0 2694 0 
L 300 0 
z
" transform="scale(0.015625)"/>
      <path id="DejaVuSerif-Bold-74" d="M 634 2944 
L 153 2944 
L 153 3322 
L 634 3322 
L 634 4353 
L 1741 4353 
L 1741 3322 
L 2663 3322 
L 2663 2944 
L 1741 2944 
L 1741 909 
Q 1741 475 1809 369 
Q 1878 263 2059 263 
Q 2259 263 2356 397 
Q 2453 531 2459 813 
L 2925 813 
Q 2897 313 2651 111 
Q 2406 -91 1806 -91 
Q 1122 -91 878 123 
Q 634 338 634 909 
L 634 2944 
z
" transform="scale(0.015625)"/>
      <path id="DejaVuSerif-Bold-66" d="M 3097 4031 
L 2747 4031 
Q 2722 4275 2605 4394 
Q 2488 4513 2272 4513 
Q 2022 4513 1909 4333 
Q 1797 4153 1797 3750 
L 1797 3322 
L 2631 3322 
L 2631 2944 
L 1797 2944 
L 1797 378 
L 2438 378 
L 2438 0 
L 219 0 
L 219 378 
L 691 378 
L 691 2944 
L 197 2944 
L 197 3322 
L 691 3322 
L 691 3738 
Q 691 4291 1044 4577 
Q 1397 4863 2081 4863 
Q 2347 4863 2600 4833 
Q 2853 4803 3097 4744 
L 3097 4031 
z
" transform="scale(0.015625)"/>
      <path id="DejaVuSerif-Bold-73" d="M 300 97 
L 300 1025 
L 653 1025 
Q 697 653 931 458 
Q 1166 263 1569 263 
Q 1906 263 2086 380 
Q 2266 497 2266 716 
Q 2266 916 2152 1025 
Q 2038 1134 1709 1216 
L 1253 1331 
Q 738 1459 506 1698 
Q 275 1938 275 2344 
Q 275 2884 650 3148 
Q 1025 3413 1806 3413 
Q 2100 3413 2433 3364 
Q 2766 3316 3169 3213 
L 3169 2375 
L 2816 2375 
Q 2788 2716 2573 2887 
Q 2359 3059 1959 3059 
Q 1622 3059 1448 2951 
Q 1275 2844 1275 2638 
Q 1275 2469 1375 2372 
Q 1475 2275 1734 2209 
L 2188 2094 
Q 2841 1928 3091 1684 
Q 3341 1441 3341 1006 
Q 3341 444 2939 176 
Q 2538 -91 1691 -91 
Q 1381 -91 1034 -44 
Q 688 3 300 97 
z
" transform="scale(0.015625)"/>
     </defs>
     <use xlink:href="#DejaVuSerif-Bold-54"/>
     <use xlink:href="#DejaVuSerif-Bold-68" transform="translate(74.414062 0)"/>
     <use xlink:href="#DejaVuSerif-Bold-65" transform="translate(147.119141 0)"/>
     <use xlink:href="#DejaVuSerif-Bold-20" transform="translate(210.742188 0)"/>
     <use xlink:href="#DejaVuSerif-Bold-43" transform="translate(245.556641 0)"/>
     <use xlink:href="#DejaVuSerif-Bold-6f" transform="translate(325.146484 0)"/>
     <use xlink:href="#DejaVuSerif-Bold-72" transform="translate(391.845703 0)"/>
     <use xlink:href="#DejaVuSerif-Bold-65" transform="translate(444.53125 0)"/>
     <use xlink:href="#DejaVuSerif-Bold-20" transform="translate(508.154297 0)"/>
     <use xlink:href="#DejaVuSerif-Bold-46" transform="translate(542.96875 0)"/>
     <use xlink:href="#DejaVuSerif-Bold-69" transform="translate(613.964844 0)"/>
     <use xlink:href="#DejaVuSerif-Bold-6e" transform="translate(651.953125 0)"/>
     <use xlink:href="#DejaVuSerif-Bold-64" transform="translate(724.658203 0)"/>
     <use xlink:href="#DejaVuSerif-Bold-69" transform="translate(794.580078 0)"/>
     <use xlink:href="#DejaVuSerif-Bold-6e" transform="translate(832.568359 0)"/>
     <use xlink:href="#DejaVuSerif-Bold-67" transform="translate(905.273438 0)"/>
     <use xlink:href="#DejaVuSerif-Bold-3a" transform="translate(975.195312 0)"/>
     <use xlink:href="#DejaVuSerif-Bold-20" transform="translate(1012.109375 0)"/>
     <use xlink:href="#DejaVuSerif-Bold-53" transform="translate(1046.923828 0)"/>
     <use xlink:href="#DejaVuSerif-Bold-61" transform="translate(1119.140625 0)"/>
     <use xlink:href="#DejaVuSerif-Bold-6d" transform="translate(1183.935547 0)"/>
     <use xlink:href="#DejaVuSerif-Bold-65" transform="translate(1289.746094 0)"/>
     <use xlink:href="#DejaVuSerif-Bold-20" transform="translate(1353.369141 0)"/>
     <use xlink:href="#DejaVuSerif-Bold-4d" transform="translate(1388.183594 0)"/>
     <use xlink:href="#DejaVuSerif-Bold-6f" transform="translate(1498.876953 0)"/>
     <use xlink:href="#DejaVuSerif-Bold-64" transform="translate(1565.576172 0)"/>
     <use xlink:href="#DejaVuSerif-Bold-65" transform="translate(1635.498047 0)"/>
     <use xlink:href="#DejaVuSerif-Bold-6c" transform="translate(1699.121094 0)"/>
     <use xlink:href="#DejaVuSerif-Bold-2c" transform="translate(1737.109375 0)"/>
     <use xlink:href="#DejaVuSerif-Bold-20" transform="translate(1771.923828 0)"/>
     <use xlink:href="#DejaVuSerif-Bold-53" transform="translate(1806.738281 0)"/>
     <use xlink:href="#DejaVuSerif-Bold-61" transform="translate(1878.955078 0)"/>
     <use xlink:href="#DejaVuSerif-Bold-6d" transform="translate(1943.75 0)"/>
     <use xlink:href="#DejaVuSerif-Bold-65" transform="translate(2049.560547 0)"/>
     <use xlink:href="#DejaVuSerif-Bold-20" transform="translate(2113.183594 0)"/>
     <use xlink:href="#DejaVuSerif-Bold-44" transform="translate(2147.998047 0)"/>
     <use xlink:href="#DejaVuSerif-Bold-61" transform="translate(2234.716797 0)"/>
     <use xlink:href="#DejaVuSerif-Bold-74" transform="translate(2299.511719 0)"/>
     <use xlink:href="#DejaVuSerif-Bold-61" transform="translate(2345.703125 0)"/>
     <use xlink:href="#DejaVuSerif-Bold-2c" transform="translate(2410.498047 0)"/>
     <use xlink:href="#DejaVuSerif-Bold-20" transform="translate(2445.3125 0)"/>
     <use xlink:href="#DejaVuSerif-Bold-44" transform="translate(2480.126953 0)"/>
     <use xlink:href="#DejaVuSerif-Bold-69" transform="translate(2566.845703 0)"/>
     <use xlink:href="#DejaVuSerif-Bold-66" transform="translate(2604.833984 0)"/>
     <use xlink:href="#DejaVuSerif-Bold-66" transform="translate(2647.851562 0)"/>
     <use xlink:href="#DejaVuSerif-Bold-65" transform="translate(2690.869141 0)"/>
     <use xlink:href="#DejaVuSerif-Bold-72" transform="translate(2754.492188 0)"/>
     <use xlink:href="#DejaVuSerif-Bold-65" transform="translate(2807.177734 0)"/>
     <use xlink:href="#DejaVuSerif-Bold-6e" transform="translate(2870.800781 0)"/>
     <use xlink:href="#DejaVuSerif-Bold-74" transform="translate(2943.505859 0)"/>
     <use xlink:href="#DejaVuSerif-Bold-20" transform="translate(2989.697266 0)"/>
     <use xlink:href="#DejaVuSerif-Bold-43" transform="translate(3024.511719 0)"/>
     <use xlink:href="#DejaVuSerif-Bold-6f" transform="translate(3104.101562 0)"/>
     <use xlink:href="#DejaVuSerif-Bold-6c" transform="translate(3170.800781 0)"/>
     <use xlink:href="#DejaVuSerif-Bold-6c" transform="translate(3208.789062 0)"/>
     <use xlink:href="#DejaVuSerif-Bold-61" transform="translate(3246.777344 0)"/>
     <use xlink:href="#DejaVuSerif-Bold-70" transform="translate(3311.572266 0)"/>
     <use xlink:href="#DejaVuSerif-Bold-73" transform="translate(3381.494141 0)"/>
     <use xlink:href="#DejaVuSerif-Bold-65" transform="translate(3437.792969 0)"/>
    </g>
    <!-- DF-Arena 4-Way on ASVspoof5 — Mediation generalizes, source does not -->
    <g transform="translate(63.754375 33.526125) scale(0.12 -0.12)">
     <defs>
      <path id="DejaVuSerif-Bold-2d" d="M 347 2138 
L 2309 2138 
L 2309 1294 
L 347 1294 
L 347 2138 
z
" transform="scale(0.015625)"/>
      <path id="DejaVuSerif-Bold-41" d="M -50 0 
L -50 378 
L 331 378 
L 2088 4666 
L 2834 4666 
L 4594 378 
L 5038 378 
L 5038 0 
L 2853 0 
L 2853 378 
L 3309 378 
L 2925 1331 
L 1172 1331 
L 781 378 
L 1338 378 
L 1338 0 
L -50 0 
z
M 1325 1709 
L 2772 1709 
L 2053 3494 
L 1325 1709 
z
" transform="scale(0.015625)"/>
      <path id="DejaVuSerif-Bold-57" d="M 5453 0 
L 4647 0 
L 3591 3397 
L 2534 0 
L 1728 0 
L 397 4288 
L -56 4288 
L -56 4666 
L 2156 4666 
L 2156 4288 
L 1656 4288 
L 2547 1422 
L 3553 4666 
L 4441 4666 
L 5466 1369 
L 6375 4288 
L 5819 4288 
L 5819 4666 
L 7263 4666 
L 7263 4288 
L 6784 4288 
L 5453 0 
z
" transform="scale(0.015625)"/>
      <path id="DejaVuSerif-Bold-79" d="M 1997 -750 
Q 1847 -1116 1634 -1269 
Q 1422 -1422 1063 -1422 
Q 909 -1422 721 -1387 
Q 534 -1353 313 -1288 
L 313 -594 
L 666 -597 
Q 675 -838 779 -953 
Q 884 -1069 1094 -1069 
Q 1297 -1069 1422 -958 
Q 1547 -847 1672 -538 
L 1722 -422 
L 275 2944 
L -84 2944 
L -84 3322 
L 1831 3322 
L 1831 2944 
L 1434 2944 
L 2278 978 
L 3066 2944 
L 2625 2944 
L 2625 3322 
L 3872 3322 
L 3872 2944 
L 3469 2944 
L 1997 -750 
z
" transform="scale(0.015625)"/>
      <path id="DejaVuSerif-Bold-56" d="M 5056 4666 
L 5056 4288 
L 4666 4288 
L 2906 0 
L 2163 0 
L 403 4288 
L -38 4288 
L -38 4666 
L 2150 4666 
L 2150 4288 
L 1697 4288 
L 2956 1197 
L 4225 4288 
L 3669 4288 
L 3669 4666 
L 5056 4666 
z
" transform="scale(0.015625)"/>
      <path id="DejaVuSerif-Bold-2014" d="M 344 2075 
L 6056 2075 
L 6056 1325 
L 344 1325 
L 344 2075 
z
" transform="scale(0.015625)"/>
      <path id="DejaVuSerif-Bold-7a" d="M 225 0 
L 225 378 
L 2131 2956 
L 697 2956 
L 697 2388 
L 325 2388 
L 325 3322 
L 3419 3322 
L 3419 2950 
L 1509 372 
L 3047 372 
L 3047 972 
L 3419 972 
L 3419 0 
L 225 0 
z
" transform="scale(0.015625)"/>
      <path id="DejaVuSerif-Bold-75" d="M 3963 3322 
L 3963 378 
L 4434 378 
L 4434 0 
L 2853 0 
L 2853 469 
Q 2656 172 2400 40 
Q 2144 -91 1753 -91 
Q 1194 -91 908 239 
Q 622 569 622 1209 
L 622 2944 
L 147 2944 
L 147 3322 
L 1728 3322 
L 1728 1381 
Q 1728 763 1831 595 
Q 1934 428 2209 428 
Q 2544 428 2698 675 
Q 2853 922 2853 1459 
L 2853 2944 
L 2450 2944 
L 2450 3322 
L 3963 3322 
z
" transform="scale(0.015625)"/>
      <path id="DejaVuSerif-Bold-63" d="M 3609 1038 
Q 3491 469 3123 189 
Q 2756 -91 2125 -91 
Q 1238 -91 750 368 
Q 263 828 263 1663 
Q 263 2488 744 2950 
Q 1225 3413 2081 3413 
Q 2428 3413 2781 3347 
Q 3134 3281 3500 3150 
L 3500 2228 
L 3150 2228 
Q 3100 2650 2903 2854 
Q 2706 3059 2350 3059 
Q 1888 3059 1692 2746 
Q 1497 2434 1497 1663 
Q 1497 909 1687 586 
Q 1878 263 2309 263 
Q 2644 263 2845 463 
Q 3047 663 3091 1038 
L 3609 1038 
z
" transform="scale(0.015625)"/>
     </defs>
     <use xlink:href="#DejaVuSerif-Bold-44"/>
     <use xlink:href="#DejaVuSerif-Bold-46" transform="translate(86.71875 0)"/>
     <use xlink:href="#DejaVuSerif-Bold-2d" transform="translate(153.214844 0)"/>
     <use xlink:href="#DejaVuSerif-Bold-41" transform="translate(194.71875 0)"/>
     <use xlink:href="#DejaVuSerif-Bold-72" transform="translate(272.306641 0)"/>
     <use xlink:href="#DejaVuSerif-Bold-65" transform="translate(324.992188 0)"/>
     <use xlink:href="#DejaVuSerif-Bold-6e" transform="translate(388.615234 0)"/>
     <use xlink:href="#DejaVuSerif-Bold-61" transform="translate(461.320312 0)"/>
     <use xlink:href="#DejaVuSerif-Bold-20" transform="translate(526.115234 0)"/>
     <use xlink:href="#DejaVuSerif-Bold-34" transform="translate(560.929688 0)"/>
     <use xlink:href="#DejaVuSerif-Bold-2d" transform="translate(630.509766 0)"/>
     <use xlink:href="#DejaVuSerif-Bold-57" transform="translate(666.513672 0)"/>
     <use xlink:href="#DejaVuSerif-Bold-61" transform="translate(770.068359 0)"/>
     <use xlink:href="#DejaVuSerif-Bold-79" transform="translate(834.863281 0)"/>
     <use xlink:href="#DejaVuSerif-Bold-20" transform="translate(892.96875 0)"/>
     <use xlink:href="#DejaVuSerif-Bold-6f" transform="translate(927.783203 0)"/>
     <use xlink:href="#DejaVuSerif-Bold-6e" transform="translate(994.482422 0)"/>
     <use xlink:href="#DejaVuSerif-Bold-20" transform="translate(1067.1875 0)"/>
     <use xlink:href="#DejaVuSerif-Bold-41" transform="translate(1102.001953 0)"/>
     <use xlink:href="#DejaVuSerif-Bold-53" transform="translate(1179.589844 0)"/>
     <use xlink:href="#DejaVuSerif-Bold-56" transform="translate(1251.806641 0)"/>
     <use xlink:href="#DejaVuSerif-Bold-73" transform="translate(1329.394531 0)"/>
     <use xlink:href="#DejaVuSerif-Bold-70" transform="translate(1385.693359 0)"/>
     <use xlink:href="#DejaVuSerif-Bold-6f" transform="translate(1455.615234 0)"/>
     <use xlink:href="#DejaVuSerif-Bold-6f" transform="translate(1522.314453 0)"/>
     <use xlink:href="#DejaVuSerif-Bold-66" transform="translate(1589.013672 0)"/>
     <use xlink:href="#DejaVuSerif-Bold-35" transform="translate(1632.03125 0)"/>
     <use xlink:href="#DejaVuSerif-Bold-20" transform="translate(1701.611328 0)"/>
     <use xlink:href="#DejaVuSerif-Bold-2014" transform="translate(1736.425781 0)"/>
     <use xlink:href="#DejaVuSerif-Bold-20" transform="translate(1836.425781 0)"/>
     <use xlink:href="#DejaVuSerif-Bold-4d" transform="translate(1871.240234 0)"/>
     <use xlink:href="#DejaVuSerif-Bold-65" transform="translate(1981.933594 0)"/>
     <use xlink:href="#DejaVuSerif-Bold-64" transform="translate(2045.556641 0)"/>
     <use xlink:href="#DejaVuSerif-Bold-69" transform="translate(2115.478516 0)"/>
     <use xlink:href="#DejaVuSerif-Bold-61" transform="translate(2153.466797 0)"/>
     <use xlink:href="#DejaVuSerif-Bold-74" transform="translate(2218.261719 0)"/>
     <use xlink:href="#DejaVuSerif-Bold-69" transform="translate(2264.453125 0)"/>
     <use xlink:href="#DejaVuSerif-Bold-6f" transform="translate(2302.441406 0)"/>
     <use xlink:href="#DejaVuSerif-Bold-6e" transform="translate(2369.140625 0)"/>
     <use xlink:href="#DejaVuSerif-Bold-20" transform="translate(2441.845703 0)"/>
     <use xlink:href="#DejaVuSerif-Bold-67" transform="translate(2476.660156 0)"/>
     <use xlink:href="#DejaVuSerif-Bold-65" transform="translate(2546.582031 0)"/>
     <use xlink:href="#DejaVuSerif-Bold-6e" transform="translate(2610.205078 0)"/>
     <use xlink:href="#DejaVuSerif-Bold-65" transform="translate(2682.910156 0)"/>
     <use xlink:href="#DejaVuSerif-Bold-72" transform="translate(2746.533203 0)"/>
     <use xlink:href="#DejaVuSerif-Bold-61" transform="translate(2799.21875 0)"/>
     <use xlink:href="#DejaVuSerif-Bold-6c" transform="translate(2864.013672 0)"/>
     <use xlink:href="#DejaVuSerif-Bold-69" transform="translate(2902.001953 0)"/>
     <use xlink:href="#DejaVuSerif-Bold-7a" transform="translate(2939.990234 0)"/>
     <use xlink:href="#DejaVuSerif-Bold-65" transform="translate(2996.777344 0)"/>
     <use xlink:href="#DejaVuSerif-Bold-73" transform="translate(3060.400391 0)"/>
     <use xlink:href="#DejaVuSerif-Bold-2c" transform="translate(3116.699219 0)"/>
     <use xlink:href="#DejaVuSerif-Bold-20" transform="translate(3151.513672 0)"/>
     <use xlink:href="#DejaVuSerif-Bold-73" transform="translate(3186.328125 0)"/>
     <use xlink:href="#DejaVuSerif-Bold-6f" transform="translate(3242.626953 0)"/>
     <use xlink:href="#DejaVuSerif-Bold-75" transform="translate(3309.326172 0)"/>
     <use xlink:href="#DejaVuSerif-Bold-72" transform="translate(3382.03125 0)"/>
     <use xlink:href="#DejaVuSerif-Bold-63" transform="translate(3434.716797 0)"/>
     <use xlink:href="#DejaVuSerif-Bold-65" transform="translate(3495.605469 0)"/>
     <use xlink:href="#DejaVuSerif-Bold-20" transform="translate(3559.228516 0)"/>
     <use xlink:href="#DejaVuSerif-Bold-64" transform="translate(3594.042969 0)"/>
     <use xlink:href="#DejaVuSerif-Bold-6f" transform="translate(3663.964844 0)"/>
     <use xlink:href="#DejaVuSerif-Bold-65" transform="translate(3730.664062 0)"/>
     <use xlink:href="#DejaVuSerif-Bold-73" transform="translate(3794.287109 0)"/>
     <use xlink:href="#DejaVuSerif-Bold-20" transform="translate(3850.585938 0)"/>
     <use xlink:href="#DejaVuSerif-Bold-6e" transform="translate(3885.400391 0)"/>
     <use xlink:href="#DejaVuSerif-Bold-6f" transform="translate(3958.105469 0)"/>
     <use xlink:href="#DejaVuSerif-Bold-74" transform="translate(4024.804688 0)"/>
    </g>
   </g>
   <g id="legend_1">
    <g id="patch_10">
     <path d="M 61.671875 56.124562 
L 81.671875 56.124562 
L 81.671875 49.124562 
L 61.671875 49.124562 
z
" style="fill: #c73e1d; opacity: 0.85"/>
    </g>
    <g id="text_16">
     <!-- EER -->
     <g transform="translate(89.671875 56.124562) scale(0.1 -0.1)">
      <defs>
       <path id="DejaVuSerif-45" d="M 353 0 
L 353 331 
L 947 331 
L 947 4331 
L 353 4331 
L 353 4666 
L 4109 4666 
L 4109 3628 
L 3725 3628 
L 3725 4281 
L 1581 4281 
L 1581 2719 
L 3109 2719 
L 3109 3303 
L 3494 3303 
L 3494 1753 
L 3109 1753 
L 3109 2338 
L 1581 2338 
L 1581 384 
L 3775 384 
L 3775 1038 
L 4159 1038 
L 4159 0 
L 353 0 
z
" transform="scale(0.015625)"/>
      </defs>
      <use xlink:href="#DejaVuSerif-45"/>
      <use xlink:href="#DejaVuSerif-45" transform="translate(72.998047 0)"/>
      <use xlink:href="#DejaVuSerif-52" transform="translate(145.996094 0)"/>
     </g>
    </g>
    <g id="patch_11">
     <path d="M 61.671875 70.802687 
L 81.671875 70.802687 
L 81.671875 63.802687 
L 61.671875 63.802687 
z
" style="fill: url(#hec6403b6b3); opacity: 0.5; stroke: #ffffff; stroke-linejoin: miter"/>
    </g>
    <g id="text_17">
     <!-- Accuracy -->
     <g transform="translate(89.671875 70.802687) scale(0.1 -0.1)">
      <defs>
       <path id="DejaVuSerif-79" d="M 1381 -609 
L 1600 -56 
L 359 2988 
L -19 2988 
L -19 3322 
L 1509 3322 
L 1509 2988 
L 978 2988 
L 1913 703 
L 2847 2988 
L 2350 2988 
L 2350 3322 
L 3597 3322 
L 3597 2988 
L 3225 2988 
L 1703 -750 
Q 1547 -1138 1356 -1280 
Q 1166 -1422 819 -1422 
Q 672 -1422 517 -1397 
Q 363 -1372 206 -1325 
L 206 -691 
L 500 -691 
Q 519 -903 608 -995 
Q 697 -1088 884 -1088 
Q 1056 -1088 1161 -992 
Q 1266 -897 1381 -609 
z
" transform="scale(0.015625)"/>
      </defs>
      <use xlink:href="#DejaVuSerif-41"/>
      <use xlink:href="#DejaVuSerif-63" transform="translate(72.216797 0)"/>
      <use xlink:href="#DejaVuSerif-63" transform="translate(128.222656 0)"/>
      <use xlink:href="#DejaVuSerif-75" transform="translate(184.228516 0)"/>
      <use xlink:href="#DejaVuSerif-72" transform="translate(248.632812 0)"/>
      <use xlink:href="#DejaVuSerif-61" transform="translate(296.435547 0)"/>
      <use xlink:href="#DejaVuSerif-63" transform="translate(356.054688 0)"/>
      <use xlink:href="#DejaVuSerif-79" transform="translate(412.060547 0)"/>
     </g>
    </g>
   </g>
  </g>
 </g>
 <defs>
  <clipPath id="p9f58d01e78">
   <rect x="52.671875" y="39.526125" width="510.685" height="276.662"/>
  </clipPath>
 </defs>
 <defs>
  <pattern id="hec6403b6b3" patternUnits="userSpaceOnUse" x="0" y="0" width="72" height="72">
   <rect x="0" y="0" width="73" height="73" fill="#c73e1d"/>
   <path d="M -36 36 
L 36 -36 
M -30 42 
L 42 -30 
M -24 48 
L 48 -24 
M -18 54 
L 54 -18 
M -12 60 
L 60 -12 
M -6 66 
L 66 -6 
M 0 72 
L 72 0 
M 6 78 
L 78 6 
M 12 84 
L 84 12 
M 18 90 
L 90 18 
M 24 96 
L 96 24 
M 30 102 
L 102 30 
M 36 108 
L 108 36 
" style="fill: #ffffff; stroke: #ffffff; stroke-width: 1.0; stroke-linecap: butt; stroke-linejoin: miter; stroke-opacity: 0.5"/>
  </pattern>
  <pattern id="he9373dc0e6" patternUnits="userSpaceOnUse" x="0" y="0" width="72" height="72">
   <rect x="0" y="0" width="73" height="73" fill="#2e86ab"/>
   <path d="M -36 36 
L 36 -36 
M -30 42 
L 42 -30 
M -24 48 
L 48 -24 
M -18 54 
L 54 -18 
M -12 60 
L 60 -12 
M -6 66 
L 66 -6 
M 0 72 
L 72 0 
M 6 78 
L 78 6 
M 12 84 
L 84 12 
M 18 90 
L 90 18 
M 24 96 
L 96 24 
M 30 102 
L 102 30 
M 36 108 
L 108 36 
" style="fill: #ffffff; stroke: #ffffff; stroke-width: 1.0; stroke-linecap: butt; stroke-linejoin: miter; stroke-opacity: 0.5"/>
  </pattern>
 </defs>
</svg>
