<?xml version="1.0" encoding="utf-8" standalone="no"?>
<!DOCTYPE svg PUBLIC "-//W3C//DTD SVG 1.1//EN"
  "http://www.w3.org/Graphics/SVG/1.1/DTD/svg11.dtd">
<svg xmlns:xlink="http://www.w3.org/1999/xlink" width="718.24125pt" height="323.217406pt" viewBox="0 0 718.24125 323.217406" xmlns="http://www.w3.org/2000/svg" version="1.1">
 <metadata>
  <rdf:RDF xmlns:dc="http://purl.org/dc/elements/1.1/" xmlns:cc="http://creativecommons.org/ns#" xmlns:rdf="http://www.w3.org/1999/02/22-rdf-syntax-ns#">
   <cc:Work>
    <dc:type rdf:resource="http://purl.org/dc/dcmitype/StillImage"/>
    <dc:date>2026-03-03T14:04:47.032985</dc:date>
    <dc:format>image/svg+xml</dc:format>
    <dc:creator>
     <cc:Agent>
      <dc:title>Matplotlib v3.10.7, https://matplotlib.org/</dc:title>
     </cc:Agent>
    </dc:creator>
   </cc:Work>
  </rdf:RDF>
 </metadata>
 <defs>
  <style type="text/css">*{stroke-linejoin: round; stroke-linecap: butt}</style>
 </defs>
 <g id="figure_1">
  <g id="patch_1">
   <path d="M 0 323.217406 
L 718.24125 323.217406 
L 718.24125 0 
L 0 0 
z
" style="fill: #ffffff"/>
  </g>
  <g id="axes_1">
   <g id="patch_2">
    <path d="M 52.50125 284.399281 
L 707.44125 284.399281 
L 707.44125 37.632281 
L 52.50125 37.632281 
z
" style="fill: #ffffff"/>
   </g>
   <g id="patch_3">
    <path d="M 82.27125 255.926166 
L 138.592872 255.926166 
L 138.592872 255.926166 
L 82.27125 255.926166 
z
" clip-path="url(#p498b566a76)" style="fill: #c73e1d; opacity: 0.85"/>
   </g>
   <g id="patch_4">
    <path d="M 243.190169 255.926166 
L 299.511791 255.926166 
L 299.511791 105.018654 
L 243.190169 105.018654 
z
" clip-path="url(#p498b566a76)" style="fill: #c73e1d; opacity: 0.85"/>
   </g>
   <g id="patch_5">
    <path d="M 404.109088 255.926166 
L 460.430709 255.926166 
L 460.430709 66.105397 
L 404.109088 66.105397 
z
" clip-path="url(#p498b566a76)" style="fill: #c73e1d; opacity: 0.85"/>
   </g>
   <g id="patch_6">
    <path d="M 565.028007 255.926166 
L 621.349628 255.926166 
L 621.349628 68.003604 
L 565.028007 68.003604 
z
" clip-path="url(#p498b566a76)" style="fill: #c73e1d; opacity: 0.85"/>
   </g>
   <g id="patch_7">
    <path d="M 138.592872 255.926166 
L 194.914493 255.926166 
L 194.914493 255.926166 
L 138.592872 255.926166 
z
" clip-path="url(#p498b566a76)" style="fill: #2e86ab; opacity: 0.85"/>
   </g>
   <g id="patch_8">
    <path d="M 299.511791 255.926166 
L 355.833412 255.926166 
L 355.833412 236.944089 
L 299.511791 236.944089 
z
" clip-path="url(#p498b566a76)" style="fill: #2e86ab; opacity: 0.85"/>
   </g>
   <g id="patch_9">
    <path d="M 460.430709 255.926166 
L 516.752331 255.926166 
L 516.752331 255.926166 
L 460.430709 255.926166 
z
" clip-path="url(#p498b566a76)" style="fill: #2e86ab; opacity: 0.85"/>
   </g>
   <g id="patch_10">
    <path d="M 621.349628 255.926166 
L 677.67125 255.926166 
L 677.67125 255.926166 
L 621.349628 255.926166 
z
" clip-path="url(#p498b566a76)" style="fill: #2e86ab; opacity: 0.85"/>
   </g>
   <g id="matplotlib.axis_1">
    <g id="xtick_1">
     <g id="line2d_1">
      <path d="M 138.592872 284.399281 
L 138.592872 37.632281 
" clip-path="url(#p498b566a76)" style="fill: none; stroke: #b0b0b0; stroke-opacity: 0.3; stroke-width: 0.5; stroke-linecap: square"/>
     </g>
     <g id="line2d_2">
      <defs>
       <path id="m497784a8f4" d="M 0 0 
L 0 3.5 
" style="stroke: #000000; stroke-width: 0.8"/>
      </defs>
      <g>
       <use xlink:href="#m497784a8f4" x="138.592872" y="284.399281" style="stroke: #000000; stroke-width: 0.8"/>
      </g>
     </g>
     <g id="text_1">
      <!-- None -->
      <g transform="translate(125.028028 298.997719) scale(0.1 -0.1)">
       <defs>
        <path id="DejaVuSerif-4e" d="M 313 0 
L 313 331 
L 941 331 
L 941 4331 
L 313 4331 
L 313 4666 
L 1509 4666 
L 4306 984 
L 4306 4331 
L 3681 4331 
L 3681 4666 
L 5319 4666 
L 5319 4331 
L 4691 4331 
L 4691 -91 
L 4313 -91 
L 1325 3841 
L 1325 331 
L 1953 331 
L 1953 0 
L 313 0 
z
" transform="scale(0.015625)"/>
        <path id="DejaVuSerif-6f" d="M 1925 219 
Q 2388 219 2623 584 
Q 2859 950 2859 1663 
Q 2859 2375 2623 2739 
Q 2388 3103 1925 3103 
Q 1463 3103 1227 2739 
Q 991 2375 991 1663 
Q 991 950 1228 584 
Q 1466 219 1925 219 
z
M 1925 -91 
Q 1200 -91 759 389 
Q 319 869 319 1663 
Q 319 2456 758 2934 
Q 1197 3413 1925 3413 
Q 2653 3413 3092 2934 
Q 3531 2456 3531 1663 
Q 3531 869 3092 389 
Q 2653 -91 1925 -91 
z
" transform="scale(0.015625)"/>
        <path id="DejaVuSerif-6e" d="M 263 0 
L 263 331 
L 781 331 
L 781 2988 
L 231 2988 
L 231 3322 
L 1356 3322 
L 1356 2731 
Q 1516 3069 1770 3241 
Q 2025 3413 2363 3413 
Q 2913 3413 3172 3097 
Q 3431 2781 3431 2113 
L 3431 331 
L 3944 331 
L 3944 0 
L 2356 0 
L 2356 331 
L 2853 331 
L 2853 1931 
Q 2853 2541 2703 2767 
Q 2553 2994 2175 2994 
Q 1775 2994 1565 2701 
Q 1356 2409 1356 1850 
L 1356 331 
L 1856 331 
L 1856 0 
L 263 0 
z
" transform="scale(0.015625)"/>
        <path id="DejaVuSerif-65" d="M 3469 1600 
L 991 1600 
L 991 1575 
Q 991 903 1244 561 
Q 1497 219 1991 219 
Q 2369 219 2611 417 
Q 2853 616 2950 1006 
L 3413 1006 
Q 3275 459 2904 184 
Q 2534 -91 1931 -91 
Q 1203 -91 761 389 
Q 319 869 319 1663 
Q 319 2450 753 2931 
Q 1188 3413 1894 3413 
Q 2647 3413 3050 2948 
Q 3453 2484 3469 1600 
z
M 2791 1931 
Q 2772 2513 2545 2808 
Q 2319 3103 1894 3103 
Q 1497 3103 1269 2806 
Q 1041 2509 991 1931 
L 2791 1931 
z
" transform="scale(0.015625)"/>
       </defs>
       <use xlink:href="#DejaVuSerif-4e"/>
       <use xlink:href="#DejaVuSerif-6f" transform="translate(87.5 0)"/>
       <use xlink:href="#DejaVuSerif-6e" transform="translate(147.705078 0)"/>
       <use xlink:href="#DejaVuSerif-65" transform="translate(212.109375 0)"/>
      </g>
      <!-- (Original) -->
      <g transform="translate(114.002247 310.195531) scale(0.1 -0.1)">
       <defs>
        <path id="DejaVuSerif-28" d="M 2041 -997 
Q 1281 -656 893 83 
Q 506 822 506 1931 
Q 506 3044 893 3783 
Q 1281 4522 2041 4863 
L 2041 4556 
Q 1559 4225 1350 3623 
Q 1141 3022 1141 1931 
Q 1141 844 1350 242 
Q 1559 -359 2041 -691 
L 2041 -997 
z
" transform="scale(0.015625)"/>
        <path id="DejaVuSerif-4f" d="M 2625 244 
Q 3391 244 3781 770 
Q 4172 1297 4172 2328 
Q 4172 3363 3781 3889 
Q 3391 4416 2625 4416 
Q 1856 4416 1465 3889 
Q 1075 3363 1075 2328 
Q 1075 1297 1465 770 
Q 1856 244 2625 244 
z
M 2625 -91 
Q 2150 -91 1751 65 
Q 1353 222 1050 525 
Q 700 875 529 1319 
Q 359 1763 359 2328 
Q 359 2894 529 3339 
Q 700 3784 1050 4134 
Q 1356 4441 1750 4595 
Q 2144 4750 2625 4750 
Q 3641 4750 4266 4084 
Q 4891 3419 4891 2328 
Q 4891 1769 4719 1320 
Q 4547 872 4197 525 
Q 3891 219 3497 64 
Q 3103 -91 2625 -91 
z
" transform="scale(0.015625)"/>
        <path id="DejaVuSerif-72" d="M 3059 3328 
L 3059 2497 
L 2728 2497 
Q 2713 2744 2591 2866 
Q 2469 2988 2234 2988 
Q 1809 2988 1582 2694 
Q 1356 2400 1356 1850 
L 1356 331 
L 2022 331 
L 2022 0 
L 263 0 
L 263 331 
L 781 331 
L 781 2994 
L 231 2994 
L 231 3322 
L 1356 3322 
L 1356 2731 
Q 1525 3078 1790 3245 
Q 2056 3413 2438 3413 
Q 2578 3413 2733 3391 
Q 2888 3369 3059 3328 
z
" transform="scale(0.015625)"/>
        <path id="DejaVuSerif-69" d="M 622 4353 
Q 622 4497 726 4603 
Q 831 4709 978 4709 
Q 1122 4709 1226 4603 
Q 1331 4497 1331 4353 
Q 1331 4206 1228 4103 
Q 1125 4000 978 4000 
Q 831 4000 726 4103 
Q 622 4206 622 4353 
z
M 1356 331 
L 1900 331 
L 1900 0 
L 231 0 
L 231 331 
L 781 331 
L 781 2988 
L 231 2988 
L 231 3322 
L 1356 3322 
L 1356 331 
z
" transform="scale(0.015625)"/>
        <path id="DejaVuSerif-67" d="M 3359 2988 
L 3359 72 
Q 3359 -644 2965 -1033 
Q 2572 -1422 1844 -1422 
Q 1516 -1422 1216 -1362 
Q 916 -1303 641 -1184 
L 641 -488 
L 941 -488 
Q 997 -813 1206 -963 
Q 1416 -1113 1806 -1113 
Q 2313 -1113 2548 -827 
Q 2784 -541 2784 72 
L 2784 519 
Q 2616 206 2355 57 
Q 2094 -91 1709 -91 
Q 1097 -91 708 395 
Q 319 881 319 1663 
Q 319 2444 706 2928 
Q 1094 3413 1709 3413 
Q 2094 3413 2355 3264 
Q 2616 3116 2784 2803 
L 2784 3322 
L 3909 3322 
L 3909 2988 
L 3359 2988 
z
M 2784 1825 
Q 2784 2422 2554 2737 
Q 2325 3053 1888 3053 
Q 1444 3053 1217 2703 
Q 991 2353 991 1663 
Q 991 975 1217 622 
Q 1444 269 1888 269 
Q 2325 269 2554 583 
Q 2784 897 2784 1497 
L 2784 1825 
z
" transform="scale(0.015625)"/>
        <path id="DejaVuSerif-61" d="M 2547 1044 
L 2547 1747 
L 1806 1747 
Q 1378 1747 1168 1562 
Q 959 1378 959 997 
Q 959 650 1171 447 
Q 1384 244 1747 244 
Q 2106 244 2326 466 
Q 2547 688 2547 1044 
z
M 3122 2075 
L 3122 331 
L 3634 331 
L 3634 0 
L 2547 0 
L 2547 359 
Q 2356 128 2106 18 
Q 1856 -91 1522 -91 
Q 969 -91 644 203 
Q 319 497 319 997 
Q 319 1513 691 1797 
Q 1063 2081 1741 2081 
L 2547 2081 
L 2547 2309 
Q 2547 2688 2317 2895 
Q 2088 3103 1672 3103 
Q 1328 3103 1125 2947 
Q 922 2791 872 2484 
L 575 2484 
L 575 3156 
Q 875 3284 1158 3348 
Q 1441 3413 1709 3413 
Q 2400 3413 2761 3070 
Q 3122 2728 3122 2075 
z
" transform="scale(0.015625)"/>
        <path id="DejaVuSerif-6c" d="M 1313 331 
L 1856 331 
L 1856 0 
L 184 0 
L 184 331 
L 738 331 
L 738 4531 
L 184 4531 
L 184 4863 
L 1313 4863 
L 1313 331 
z
" transform="scale(0.015625)"/>
        <path id="DejaVuSerif-29" d="M 453 -997 
L 453 -691 
Q 934 -359 1145 242 
Q 1356 844 1356 1931 
Q 1356 3022 1145 3623 
Q 934 4225 453 4556 
L 453 4863 
Q 1216 4522 1603 3783 
Q 1991 3044 1991 1931 
Q 1991 822 1603 83 
Q 1216 -656 453 -997 
z
" transform="scale(0.015625)"/>
       </defs>
       <use xlink:href="#DejaVuSerif-28"/>
       <use xlink:href="#DejaVuSerif-4f" transform="translate(39.013672 0)"/>
       <use xlink:href="#DejaVuSerif-72" transform="translate(120.996094 0)"/>
       <use xlink:href="#DejaVuSerif-69" transform="translate(168.798828 0)"/>
       <use xlink:href="#DejaVuSerif-67" transform="translate(200.78125 0)"/>
       <use xlink:href="#DejaVuSerif-69" transform="translate(264.794922 0)"/>
       <use xlink:href="#DejaVuSerif-6e" transform="translate(296.777344 0)"/>
       <use xlink:href="#DejaVuSerif-61" transform="translate(361.181641 0)"/>
       <use xlink:href="#DejaVuSerif-6c" transform="translate(420.800781 0)"/>
       <use xlink:href="#DejaVuSerif-29" transform="translate(452.783203 0)"/>
      </g>
     </g>
    </g>
    <g id="xtick_2">
     <g id="line2d_3">
      <path d="M 299.511791 284.399281 
L 299.511791 37.632281 
" clip-path="url(#p498b566a76)" style="fill: none; stroke: #b0b0b0; stroke-opacity: 0.3; stroke-width: 0.5; stroke-linecap: square"/>
     </g>
     <g id="line2d_4">
      <g>
       <use xlink:href="#m497784a8f4" x="299.511791" y="284.399281" style="stroke: #000000; stroke-width: 0.8"/>
      </g>
     </g>
     <g id="text_2">
      <!-- Speech Enh. -->
      <g transform="translate(267.678197 298.997719) scale(0.1 -0.1)">
       <defs>
        <path id="DejaVuSerif-53" d="M 594 225 
L 594 1288 
L 953 1284 
Q 969 753 1261 498 
Q 1553 244 2150 244 
Q 2706 244 2998 464 
Q 3291 684 3291 1106 
Q 3291 1444 3114 1625 
Q 2938 1806 2369 1978 
L 1753 2163 
Q 1084 2366 811 2669 
Q 538 2972 538 3500 
Q 538 4094 959 4422 
Q 1381 4750 2144 4750 
Q 2469 4750 2856 4679 
Q 3244 4609 3681 4475 
L 3681 3481 
L 3328 3481 
Q 3275 3975 2998 4195 
Q 2722 4416 2156 4416 
Q 1663 4416 1405 4214 
Q 1147 4013 1147 3628 
Q 1147 3294 1340 3103 
Q 1534 2913 2163 2725 
L 2741 2553 
Q 3375 2363 3645 2067 
Q 3916 1772 3916 1275 
Q 3916 597 3481 253 
Q 3047 -91 2188 -91 
Q 1803 -91 1404 -12 
Q 1006 66 594 225 
z
" transform="scale(0.015625)"/>
        <path id="DejaVuSerif-70" d="M 1313 1825 
L 1313 1497 
Q 1313 897 1542 583 
Q 1772 269 2209 269 
Q 2650 269 2876 622 
Q 3103 975 3103 1663 
Q 3103 2353 2876 2703 
Q 2650 3053 2209 3053 
Q 1772 3053 1542 2737 
Q 1313 2422 1313 1825 
z
M 738 2988 
L 184 2988 
L 184 3322 
L 1313 3322 
L 1313 2803 
Q 1481 3116 1742 3264 
Q 2003 3413 2388 3413 
Q 3000 3413 3387 2928 
Q 3775 2444 3775 1663 
Q 3775 881 3387 395 
Q 3000 -91 2388 -91 
Q 2003 -91 1742 57 
Q 1481 206 1313 519 
L 1313 -997 
L 1856 -997 
L 1856 -1331 
L 184 -1331 
L 184 -997 
L 738 -997 
L 738 2988 
z
" transform="scale(0.015625)"/>
        <path id="DejaVuSerif-63" d="M 3291 997 
Q 3169 466 2822 187 
Q 2475 -91 1925 -91 
Q 1200 -91 759 389 
Q 319 869 319 1663 
Q 319 2459 759 2936 
Q 1200 3413 1925 3413 
Q 2241 3413 2553 3339 
Q 2866 3266 3181 3116 
L 3181 2266 
L 2847 2266 
Q 2781 2703 2561 2903 
Q 2341 3103 1931 3103 
Q 1466 3103 1228 2742 
Q 991 2381 991 1663 
Q 991 944 1227 581 
Q 1463 219 1931 219 
Q 2303 219 2525 412 
Q 2747 606 2828 997 
L 3291 997 
z
" transform="scale(0.015625)"/>
        <path id="DejaVuSerif-68" d="M 263 0 
L 263 331 
L 781 331 
L 781 4531 
L 231 4531 
L 231 4863 
L 1356 4863 
L 1356 2731 
Q 1516 3069 1770 3241 
Q 2025 3413 2363 3413 
Q 2913 3413 3172 3097 
Q 3431 2781 3431 2113 
L 3431 331 
L 3944 331 
L 3944 0 
L 2356 0 
L 2356 331 
L 2853 331 
L 2853 1931 
Q 2853 2541 2704 2764 
Q 2556 2988 2175 2988 
Q 1775 2988 1565 2697 
Q 1356 2406 1356 1850 
L 1356 331 
L 1856 331 
L 1856 0 
L 263 0 
z
" transform="scale(0.015625)"/>
        <path id="DejaVuSerif-20" transform="scale(0.015625)"/>
        <path id="DejaVuSerif-45" d="M 353 0 
L 353 331 
L 947 331 
L 947 4331 
L 353 4331 
L 353 4666 
L 4109 4666 
L 4109 3628 
L 3725 3628 
L 3725 4281 
L 1581 4281 
L 1581 2719 
L 3109 2719 
L 3109 3303 
L 3494 3303 
L 3494 1753 
L 3109 1753 
L 3109 2338 
L 1581 2338 
L 1581 384 
L 3775 384 
L 3775 1038 
L 4159 1038 
L 4159 0 
L 353 0 
z
" transform="scale(0.015625)"/>
        <path id="DejaVuSerif-2e" d="M 603 325 
Q 603 500 722 622 
Q 841 744 1019 744 
Q 1191 744 1312 622 
Q 1434 500 1434 325 
Q 1434 153 1312 31 
Q 1191 -91 1019 -91 
Q 841 -91 722 29 
Q 603 150 603 325 
z
" transform="scale(0.015625)"/>
       </defs>
       <use xlink:href="#DejaVuSerif-53"/>
       <use xlink:href="#DejaVuSerif-70" transform="translate(68.505859 0)"/>
       <use xlink:href="#DejaVuSerif-65" transform="translate(132.519531 0)"/>
       <use xlink:href="#DejaVuSerif-65" transform="translate(191.699219 0)"/>
       <use xlink:href="#DejaVuSerif-63" transform="translate(250.878906 0)"/>
       <use xlink:href="#DejaVuSerif-68" transform="translate(306.884766 0)"/>
       <use xlink:href="#DejaVuSerif-20" transform="translate(371.289062 0)"/>
       <use xlink:href="#DejaVuSerif-45" transform="translate(403.076172 0)"/>
       <use xlink:href="#DejaVuSerif-6e" transform="translate(476.074219 0)"/>
       <use xlink:href="#DejaVuSerif-68" transform="translate(540.478516 0)"/>
       <use xlink:href="#DejaVuSerif-2e" transform="translate(604.882812 0)"/>
      </g>
      <!-- (Sidon) -->
      <g transform="translate(281.154759 310.195531) scale(0.1 -0.1)">
       <defs>
        <path id="DejaVuSerif-64" d="M 3359 331 
L 3909 331 
L 3909 0 
L 2784 0 
L 2784 519 
Q 2616 206 2355 57 
Q 2094 -91 1709 -91 
Q 1097 -91 708 395 
Q 319 881 319 1663 
Q 319 2444 706 2928 
Q 1094 3413 1709 3413 
Q 2094 3413 2355 3264 
Q 2616 3116 2784 2803 
L 2784 4531 
L 2241 4531 
L 2241 4863 
L 3359 4863 
L 3359 331 
z
M 2784 1497 
L 2784 1825 
Q 2784 2422 2554 2737 
Q 2325 3053 1888 3053 
Q 1444 3053 1217 2703 
Q 991 2353 991 1663 
Q 991 975 1217 622 
Q 1444 269 1888 269 
Q 2325 269 2554 583 
Q 2784 897 2784 1497 
z
" transform="scale(0.015625)"/>
       </defs>
       <use xlink:href="#DejaVuSerif-28"/>
       <use xlink:href="#DejaVuSerif-53" transform="translate(39.013672 0)"/>
       <use xlink:href="#DejaVuSerif-69" transform="translate(107.519531 0)"/>
       <use xlink:href="#DejaVuSerif-64" transform="translate(139.501953 0)"/>
       <use xlink:href="#DejaVuSerif-6f" transform="translate(203.515625 0)"/>
       <use xlink:href="#DejaVuSerif-6e" transform="translate(263.720703 0)"/>
       <use xlink:href="#DejaVuSerif-29" transform="translate(328.125 0)"/>
      </g>
     </g>
    </g>
    <g id="xtick_3">
     <g id="line2d_5">
      <path d="M 460.430709 284.399281 
L 460.430709 37.632281 
" clip-path="url(#p498b566a76)" style="fill: none; stroke: #b0b0b0; stroke-opacity: 0.3; stroke-width: 0.5; stroke-linecap: square"/>
     </g>
     <g id="line2d_6">
      <g>
       <use xlink:href="#m497784a8f4" x="460.430709" y="284.399281" style="stroke: #000000; stroke-width: 0.8"/>
      </g>
     </g>
     <g id="text_3">
      <!-- Voice Conv. -->
      <g transform="translate(431.441647 298.997719) scale(0.1 -0.1)">
       <defs>
        <path id="DejaVuSerif-56" d="M 1119 4331 
L 2497 750 
L 3872 4331 
L 3347 4331 
L 3347 4666 
L 4716 4666 
L 4716 4331 
L 4263 4331 
L 2597 0 
L 2059 0 
L 403 4331 
L -63 4331 
L -63 4666 
L 1638 4666 
L 1638 4331 
L 1119 4331 
z
" transform="scale(0.015625)"/>
        <path id="DejaVuSerif-43" d="M 4513 1234 
Q 4306 581 3820 245 
Q 3334 -91 2591 -91 
Q 2134 -91 1743 65 
Q 1353 222 1050 525 
Q 700 875 529 1320 
Q 359 1766 359 2328 
Q 359 3416 987 4083 
Q 1616 4750 2644 4750 
Q 3025 4750 3456 4650 
Q 3888 4550 4384 4347 
L 4384 3272 
L 4031 3272 
Q 3916 3859 3567 4137 
Q 3219 4416 2591 4416 
Q 1844 4416 1459 3886 
Q 1075 3356 1075 2328 
Q 1075 1303 1459 773 
Q 1844 244 2591 244 
Q 3113 244 3450 492 
Q 3788 741 3938 1234 
L 4513 1234 
z
" transform="scale(0.015625)"/>
        <path id="DejaVuSerif-76" d="M 1581 0 
L 359 2988 
L -19 2988 
L -19 3322 
L 1509 3322 
L 1509 2988 
L 978 2988 
L 1913 703 
L 2847 2988 
L 2350 2988 
L 2350 3322 
L 3597 3322 
L 3597 2988 
L 3225 2988 
L 2003 0 
L 1581 0 
z
" transform="scale(0.015625)"/>
       </defs>
       <use xlink:href="#DejaVuSerif-56"/>
       <use xlink:href="#DejaVuSerif-6f" transform="translate(63.091797 0)"/>
       <use xlink:href="#DejaVuSerif-69" transform="translate(123.296875 0)"/>
       <use xlink:href="#DejaVuSerif-63" transform="translate(155.279297 0)"/>
       <use xlink:href="#DejaVuSerif-65" transform="translate(211.285156 0)"/>
       <use xlink:href="#DejaVuSerif-20" transform="translate(270.464844 0)"/>
       <use xlink:href="#DejaVuSerif-43" transform="translate(302.251953 0)"/>
       <use xlink:href="#DejaVuSerif-6f" transform="translate(378.765625 0)"/>
       <use xlink:href="#DejaVuSerif-6e" transform="translate(438.970703 0)"/>
       <use xlink:href="#DejaVuSerif-76" transform="translate(503.375 0)"/>
       <use xlink:href="#DejaVuSerif-2e" transform="translate(547.994141 0)"/>
      </g>
      <!-- (Modal) -->
      <g transform="translate(440.618209 310.195531) scale(0.1 -0.1)">
       <defs>
        <path id="DejaVuSerif-4d" d="M 353 0 
L 353 331 
L 947 331 
L 947 4331 
L 319 4331 
L 319 4666 
L 1678 4666 
L 3316 1344 
L 4953 4666 
L 6228 4666 
L 6228 4331 
L 5606 4331 
L 5606 331 
L 6203 331 
L 6203 0 
L 4378 0 
L 4378 331 
L 4972 331 
L 4972 3938 
L 3372 684 
L 2931 684 
L 1331 3938 
L 1331 331 
L 1925 331 
L 1925 0 
L 353 0 
z
" transform="scale(0.015625)"/>
       </defs>
       <use xlink:href="#DejaVuSerif-28"/>
       <use xlink:href="#DejaVuSerif-4d" transform="translate(39.013672 0)"/>
       <use xlink:href="#DejaVuSerif-6f" transform="translate(141.40625 0)"/>
       <use xlink:href="#DejaVuSerif-64" transform="translate(201.611328 0)"/>
       <use xlink:href="#DejaVuSerif-61" transform="translate(265.625 0)"/>
       <use xlink:href="#DejaVuSerif-6c" transform="translate(325.244141 0)"/>
       <use xlink:href="#DejaVuSerif-29" transform="translate(357.226562 0)"/>
      </g>
     </g>
    </g>
    <g id="xtick_4">
     <g id="line2d_7">
      <path d="M 621.349628 284.399281 
L 621.349628 37.632281 
" clip-path="url(#p498b566a76)" style="fill: none; stroke: #b0b0b0; stroke-opacity: 0.3; stroke-width: 0.5; stroke-linecap: square"/>
     </g>
     <g id="line2d_8">
      <g>
       <use xlink:href="#m497784a8f4" x="621.349628" y="284.399281" style="stroke: #000000; stroke-width: 0.8"/>
      </g>
     </g>
     <g id="text_4">
      <!-- TTS -->
      <g transform="translate(611.160566 298.997719) scale(0.1 -0.1)">
       <defs>
        <path id="DejaVuSerif-54" d="M 1222 0 
L 1222 331 
L 1819 331 
L 1819 4294 
L 447 4294 
L 447 3566 
L 63 3566 
L 63 4666 
L 4206 4666 
L 4206 3566 
L 3822 3566 
L 3822 4294 
L 2450 4294 
L 2450 331 
L 3047 331 
L 3047 0 
L 1222 0 
z
" transform="scale(0.015625)"/>
       </defs>
       <use xlink:href="#DejaVuSerif-54"/>
       <use xlink:href="#DejaVuSerif-54" transform="translate(68.574219 0)"/>
       <use xlink:href="#DejaVuSerif-53" transform="translate(135.273438 0)"/>
      </g>
      <!-- (Synthesis) -->
      <g transform="translate(593.058222 310.195531) scale(0.1 -0.1)">
       <defs>
        <path id="DejaVuSerif-79" d="M 1381 -609 
L 1600 -56 
L 359 2988 
L -19 2988 
L -19 3322 
L 1509 3322 
L 1509 2988 
L 978 2988 
L 1913 703 
L 2847 2988 
L 2350 2988 
L 2350 3322 
L 3597 3322 
L 3597 2988 
L 3225 2988 
L 1703 -750 
Q 1547 -1138 1356 -1280 
Q 1166 -1422 819 -1422 
Q 672 -1422 517 -1397 
Q 363 -1372 206 -1325 
L 206 -691 
L 500 -691 
Q 519 -903 608 -995 
Q 697 -1088 884 -1088 
Q 1056 -1088 1161 -992 
Q 1266 -897 1381 -609 
z
" transform="scale(0.015625)"/>
        <path id="DejaVuSerif-74" d="M 691 2988 
L 184 2988 
L 184 3322 
L 691 3322 
L 691 4353 
L 1269 4353 
L 1269 3322 
L 2350 3322 
L 2350 2988 
L 1269 2988 
L 1269 878 
Q 1269 456 1350 337 
Q 1431 219 1650 219 
Q 1875 219 1978 351 
Q 2081 484 2088 781 
L 2522 781 
Q 2497 328 2275 118 
Q 2053 -91 1600 -91 
Q 1103 -91 897 129 
Q 691 350 691 878 
L 691 2988 
z
" transform="scale(0.015625)"/>
        <path id="DejaVuSerif-73" d="M 359 184 
L 359 959 
L 691 959 
Q 703 588 923 403 
Q 1144 219 1575 219 
Q 1963 219 2166 364 
Q 2369 509 2369 788 
Q 2369 1006 2220 1140 
Q 2072 1275 1594 1428 
L 1178 1569 
Q 750 1706 558 1912 
Q 366 2119 366 2438 
Q 366 2894 700 3153 
Q 1034 3413 1625 3413 
Q 1888 3413 2178 3344 
Q 2469 3275 2778 3144 
L 2778 2419 
L 2447 2419 
Q 2434 2741 2221 2922 
Q 2009 3103 1644 3103 
Q 1281 3103 1095 2975 
Q 909 2847 909 2591 
Q 909 2381 1050 2254 
Q 1191 2128 1613 1997 
L 2069 1856 
Q 2541 1709 2748 1489 
Q 2956 1269 2956 922 
Q 2956 450 2595 179 
Q 2234 -91 1600 -91 
Q 1278 -91 972 -22 
Q 666 47 359 184 
z
" transform="scale(0.015625)"/>
       </defs>
       <use xlink:href="#DejaVuSerif-28"/>
       <use xlink:href="#DejaVuSerif-53" transform="translate(39.013672 0)"/>
       <use xlink:href="#DejaVuSerif-79" transform="translate(107.519531 0)"/>
       <use xlink:href="#DejaVuSerif-6e" transform="translate(164.013672 0)"/>
       <use xlink:href="#DejaVuSerif-74" transform="translate(228.417969 0)"/>
       <use xlink:href="#DejaVuSerif-68" transform="translate(268.603516 0)"/>
       <use xlink:href="#DejaVuSerif-65" transform="translate(333.007812 0)"/>
       <use xlink:href="#DejaVuSerif-73" transform="translate(392.1875 0)"/>
       <use xlink:href="#DejaVuSerif-69" transform="translate(443.505859 0)"/>
       <use xlink:href="#DejaVuSerif-73" transform="translate(475.488281 0)"/>
       <use xlink:href="#DejaVuSerif-29" transform="translate(526.806641 0)"/>
      </g>
     </g>
    </g>
   </g>
   <g id="matplotlib.axis_2">
    <g id="ytick_1">
     <g id="line2d_9">
      <path d="M 52.50125 255.926166 
L 707.44125 255.926166 
" clip-path="url(#p498b566a76)" style="fill: none; stroke: #b0b0b0; stroke-opacity: 0.3; stroke-width: 0.5; stroke-linecap: square"/>
     </g>
     <g id="line2d_10">
      <defs>
       <path id="mfbb19f1682" d="M 0 0 
L -3.5 0 
" style="stroke: #000000; stroke-width: 0.8"/>
      </defs>
      <g>
       <use xlink:href="#mfbb19f1682" x="52.50125" y="255.926166" style="stroke: #000000; stroke-width: 0.8"/>
      </g>
     </g>
     <g id="text_5">
      <!-- 0 -->
      <g transform="translate(39.13875 259.725385) scale(0.1 -0.1)">
       <defs>
        <path id="DejaVuSerif-30" d="M 2034 219 
Q 2513 219 2750 744 
Q 2988 1269 2988 2328 
Q 2988 3391 2750 3916 
Q 2513 4441 2034 4441 
Q 1556 4441 1318 3916 
Q 1081 3391 1081 2328 
Q 1081 1269 1318 744 
Q 1556 219 2034 219 
z
M 2034 -91 
Q 1275 -91 848 546 
Q 422 1184 422 2328 
Q 422 3475 848 4112 
Q 1275 4750 2034 4750 
Q 2797 4750 3222 4112 
Q 3647 3475 3647 2328 
Q 3647 1184 3222 546 
Q 2797 -91 2034 -91 
z
" transform="scale(0.015625)"/>
       </defs>
       <use xlink:href="#DejaVuSerif-30"/>
      </g>
     </g>
    </g>
    <g id="ytick_2">
     <g id="line2d_11">
      <path d="M 52.50125 217.962012 
L 707.44125 217.962012 
" clip-path="url(#p498b566a76)" style="fill: none; stroke: #b0b0b0; stroke-opacity: 0.3; stroke-width: 0.5; stroke-linecap: square"/>
     </g>
     <g id="line2d_12">
      <g>
       <use xlink:href="#mfbb19f1682" x="52.50125" y="217.962012" style="stroke: #000000; stroke-width: 0.8"/>
      </g>
     </g>
     <g id="text_6">
      <!-- 20 -->
      <g transform="translate(32.77625 221.761231) scale(0.1 -0.1)">
       <defs>
        <path id="DejaVuSerif-32" d="M 819 3553 
L 469 3553 
L 469 4384 
Q 803 4563 1142 4656 
Q 1481 4750 1806 4750 
Q 2534 4750 2956 4397 
Q 3378 4044 3378 3438 
Q 3378 2753 2422 1800 
Q 2347 1728 2309 1691 
L 1131 513 
L 3078 513 
L 3078 1088 
L 3444 1088 
L 3444 0 
L 434 0 
L 434 341 
L 1850 1753 
Q 2319 2222 2519 2614 
Q 2719 3006 2719 3438 
Q 2719 3909 2473 4175 
Q 2228 4441 1797 4441 
Q 1350 4441 1106 4219 
Q 863 3997 819 3553 
z
" transform="scale(0.015625)"/>
       </defs>
       <use xlink:href="#DejaVuSerif-32"/>
       <use xlink:href="#DejaVuSerif-30" transform="translate(63.623047 0)"/>
      </g>
     </g>
    </g>
    <g id="ytick_3">
     <g id="line2d_13">
      <path d="M 52.50125 179.997858 
L 707.44125 179.997858 
" clip-path="url(#p498b566a76)" style="fill: none; stroke: #b0b0b0; stroke-opacity: 0.3; stroke-width: 0.5; stroke-linecap: square"/>
     </g>
     <g id="line2d_14">
      <g>
       <use xlink:href="#mfbb19f1682" x="52.50125" y="179.997858" style="stroke: #000000; stroke-width: 0.8"/>
      </g>
     </g>
     <g id="text_7">
      <!-- 40 -->
      <g transform="translate(32.77625 183.797077) scale(0.1 -0.1)">
       <defs>
        <path id="DejaVuSerif-34" d="M 2234 1581 
L 2234 4063 
L 641 1581 
L 2234 1581 
z
M 3609 0 
L 1484 0 
L 1484 331 
L 2234 331 
L 2234 1247 
L 197 1247 
L 197 1588 
L 2241 4750 
L 2859 4750 
L 2859 1581 
L 3750 1581 
L 3750 1247 
L 2859 1247 
L 2859 331 
L 3609 331 
L 3609 0 
z
" transform="scale(0.015625)"/>
       </defs>
       <use xlink:href="#DejaVuSerif-34"/>
       <use xlink:href="#DejaVuSerif-30" transform="translate(63.623047 0)"/>
      </g>
     </g>
    </g>
    <g id="ytick_4">
     <g id="line2d_15">
      <path d="M 52.50125 142.033704 
L 707.44125 142.033704 
" clip-path="url(#p498b566a76)" style="fill: none; stroke: #b0b0b0; stroke-opacity: 0.3; stroke-width: 0.5; stroke-linecap: square"/>
     </g>
     <g id="line2d_16">
      <g>
       <use xlink:href="#mfbb19f1682" x="52.50125" y="142.033704" style="stroke: #000000; stroke-width: 0.8"/>
      </g>
     </g>
     <g id="text_8">
      <!-- 60 -->
      <g transform="translate(32.77625 145.832923) scale(0.1 -0.1)">
       <defs>
        <path id="DejaVuSerif-36" d="M 2094 219 
Q 2534 219 2771 542 
Q 3009 866 3009 1472 
Q 3009 2078 2771 2401 
Q 2534 2725 2094 2725 
Q 1647 2725 1412 2412 
Q 1178 2100 1178 1509 
Q 1178 888 1415 553 
Q 1653 219 2094 219 
z
M 1075 2569 
Q 1288 2803 1556 2918 
Q 1825 3034 2163 3034 
Q 2859 3034 3264 2615 
Q 3669 2197 3669 1472 
Q 3669 763 3233 336 
Q 2797 -91 2069 -91 
Q 1278 -91 853 498 
Q 428 1088 428 2181 
Q 428 3406 931 4078 
Q 1434 4750 2350 4750 
Q 2597 4750 2869 4703 
Q 3141 4656 3425 4563 
L 3425 3794 
L 3072 3794 
Q 3034 4109 2831 4275 
Q 2628 4441 2284 4441 
Q 1678 4441 1381 3981 
Q 1084 3522 1075 2569 
z
" transform="scale(0.015625)"/>
       </defs>
       <use xlink:href="#DejaVuSerif-36"/>
       <use xlink:href="#DejaVuSerif-30" transform="translate(63.623047 0)"/>
      </g>
     </g>
    </g>
    <g id="ytick_5">
     <g id="line2d_17">
      <path d="M 52.50125 104.06955 
L 707.44125 104.06955 
" clip-path="url(#p498b566a76)" style="fill: none; stroke: #b0b0b0; stroke-opacity: 0.3; stroke-width: 0.5; stroke-linecap: square"/>
     </g>
     <g id="line2d_18">
      <g>
       <use xlink:href="#mfbb19f1682" x="52.50125" y="104.06955" style="stroke: #000000; stroke-width: 0.8"/>
      </g>
     </g>
     <g id="text_9">
      <!-- 80 -->
      <g transform="translate(32.77625 107.868769) scale(0.1 -0.1)">
       <defs>
        <path id="DejaVuSerif-38" d="M 2981 1275 
Q 2981 1775 2732 2051 
Q 2484 2328 2034 2328 
Q 1584 2328 1336 2051 
Q 1088 1775 1088 1275 
Q 1088 772 1336 495 
Q 1584 219 2034 219 
Q 2484 219 2732 495 
Q 2981 772 2981 1275 
z
M 2853 3541 
Q 2853 3966 2637 4203 
Q 2422 4441 2034 4441 
Q 1650 4441 1433 4203 
Q 1216 3966 1216 3541 
Q 1216 3113 1433 2875 
Q 1650 2638 2034 2638 
Q 2422 2638 2637 2875 
Q 2853 3113 2853 3541 
z
M 2516 2484 
Q 3047 2413 3344 2092 
Q 3641 1772 3641 1275 
Q 3641 619 3225 264 
Q 2809 -91 2034 -91 
Q 1263 -91 845 264 
Q 428 619 428 1275 
Q 428 1772 725 2092 
Q 1022 2413 1556 2484 
Q 1084 2569 832 2842 
Q 581 3116 581 3541 
Q 581 4103 968 4426 
Q 1356 4750 2034 4750 
Q 2713 4750 3100 4426 
Q 3488 4103 3488 3541 
Q 3488 3116 3236 2842 
Q 2984 2569 2516 2484 
z
" transform="scale(0.015625)"/>
       </defs>
       <use xlink:href="#DejaVuSerif-38"/>
       <use xlink:href="#DejaVuSerif-30" transform="translate(63.623047 0)"/>
      </g>
     </g>
    </g>
    <g id="ytick_6">
     <g id="line2d_19">
      <path d="M 52.50125 66.105397 
L 707.44125 66.105397 
" clip-path="url(#p498b566a76)" style="fill: none; stroke: #b0b0b0; stroke-opacity: 0.3; stroke-width: 0.5; stroke-linecap: square"/>
     </g>
     <g id="line2d_20">
      <g>
       <use xlink:href="#mfbb19f1682" x="52.50125" y="66.105397" style="stroke: #000000; stroke-width: 0.8"/>
      </g>
     </g>
     <g id="text_10">
      <!-- 100 -->
      <g transform="translate(26.41375 69.904615) scale(0.1 -0.1)">
       <defs>
        <path id="DejaVuSerif-31" d="M 909 0 
L 909 331 
L 1722 331 
L 1722 4213 
L 781 3603 
L 781 4013 
L 1919 4750 
L 2350 4750 
L 2350 331 
L 3163 331 
L 3163 0 
L 909 0 
z
" transform="scale(0.015625)"/>
       </defs>
       <use xlink:href="#DejaVuSerif-31"/>
       <use xlink:href="#DejaVuSerif-30" transform="translate(63.623047 0)"/>
       <use xlink:href="#DejaVuSerif-30" transform="translate(127.246094 0)"/>
      </g>
     </g>
    </g>
    <g id="text_11">
     <!-- % of Real Speech Labeled as Fake -->
     <g transform="translate(19.918125 265.278906) rotate(-90) scale(0.12 -0.12)">
      <defs>
       <path id="DejaVuSerif-25" d="M 1434 4459 
Q 1159 4459 1004 4200 
Q 850 3941 850 3475 
Q 850 3016 1008 2753 
Q 1166 2491 1434 2491 
Q 1700 2491 1854 2752 
Q 2009 3013 2009 3475 
Q 2009 3938 1854 4198 
Q 1700 4459 1434 4459 
z
M 4653 2169 
Q 4381 2169 4226 1906 
Q 4072 1644 4072 1178 
Q 4072 719 4228 458 
Q 4384 197 4653 197 
Q 4922 197 5075 458 
Q 5228 719 5228 1178 
Q 5228 1641 5073 1905 
Q 4919 2169 4653 2169 
z
M 4653 2450 
Q 5147 2450 5437 2106 
Q 5728 1763 5728 1178 
Q 5728 594 5436 251 
Q 5144 -91 4653 -91 
Q 4153 -91 3862 251 
Q 3572 594 3572 1178 
Q 3572 1766 3864 2108 
Q 4156 2450 4653 2450 
z
M 4263 4750 
L 4738 4750 
L 1819 -91 
L 1344 -91 
L 4263 4750 
z
M 1428 4750 
Q 1922 4750 2215 4408 
Q 2509 4066 2509 3481 
Q 2509 2891 2217 2550 
Q 1925 2209 1428 2209 
Q 931 2209 642 2551 
Q 353 2894 353 3481 
Q 353 4063 643 4406 
Q 934 4750 1428 4750 
z
" transform="scale(0.015625)"/>
       <path id="DejaVuSerif-66" d="M 2753 4078 
L 2450 4078 
Q 2447 4313 2317 4434 
Q 2188 4556 1941 4556 
Q 1619 4556 1487 4379 
Q 1356 4203 1356 3750 
L 1356 3322 
L 2284 3322 
L 2284 2988 
L 1356 2988 
L 1356 331 
L 2094 331 
L 2094 0 
L 231 0 
L 231 331 
L 781 331 
L 781 2988 
L 231 2988 
L 231 3322 
L 781 3322 
L 781 3738 
Q 781 4294 1070 4578 
Q 1359 4863 1919 4863 
Q 2128 4863 2337 4825 
Q 2547 4788 2753 4709 
L 2753 4078 
z
" transform="scale(0.015625)"/>
       <path id="DejaVuSerif-52" d="M 3066 2316 
Q 3284 2256 3442 2114 
Q 3600 1972 3725 1716 
L 4403 331 
L 4972 331 
L 4972 0 
L 3872 0 
L 3144 1484 
Q 2934 1916 2759 2042 
Q 2584 2169 2278 2169 
L 1581 2169 
L 1581 331 
L 2241 331 
L 2241 0 
L 353 0 
L 353 331 
L 947 331 
L 947 4331 
L 353 4331 
L 353 4666 
L 2719 4666 
Q 3400 4666 3770 4341 
Q 4141 4016 4141 3419 
Q 4141 2938 3870 2661 
Q 3600 2384 3066 2316 
z
M 1581 2503 
L 2503 2503 
Q 2975 2503 3200 2726 
Q 3425 2950 3425 3419 
Q 3425 3888 3200 4109 
Q 2975 4331 2503 4331 
L 1581 4331 
L 1581 2503 
z
" transform="scale(0.015625)"/>
       <path id="DejaVuSerif-4c" d="M 353 0 
L 353 331 
L 947 331 
L 947 4331 
L 353 4331 
L 353 4666 
L 2175 4666 
L 2175 4331 
L 1581 4331 
L 1581 384 
L 3713 384 
L 3713 1166 
L 4097 1166 
L 4097 0 
L 353 0 
z
" transform="scale(0.015625)"/>
       <path id="DejaVuSerif-62" d="M 738 331 
L 738 4531 
L 184 4531 
L 184 4863 
L 1313 4863 
L 1313 2803 
Q 1481 3116 1742 3264 
Q 2003 3413 2388 3413 
Q 3000 3413 3387 2928 
Q 3775 2444 3775 1663 
Q 3775 881 3387 395 
Q 3000 -91 2388 -91 
Q 2003 -91 1742 57 
Q 1481 206 1313 519 
L 1313 0 
L 184 0 
L 184 331 
L 738 331 
z
M 1313 1497 
Q 1313 897 1542 583 
Q 1772 269 2209 269 
Q 2650 269 2876 622 
Q 3103 975 3103 1663 
Q 3103 2353 2876 2703 
Q 2650 3053 2209 3053 
Q 1772 3053 1542 2737 
Q 1313 2422 1313 1825 
L 1313 1497 
z
" transform="scale(0.015625)"/>
       <path id="DejaVuSerif-46" d="M 353 0 
L 353 331 
L 947 331 
L 947 4331 
L 353 4331 
L 353 4666 
L 4172 4666 
L 4172 3628 
L 3788 3628 
L 3788 4281 
L 1581 4281 
L 1581 2719 
L 3175 2719 
L 3175 3303 
L 3559 3303 
L 3559 1753 
L 3175 1753 
L 3175 2338 
L 1581 2338 
L 1581 331 
L 2328 331 
L 2328 0 
L 353 0 
z
" transform="scale(0.015625)"/>
       <path id="DejaVuSerif-6b" d="M 1831 0 
L 219 0 
L 219 331 
L 738 331 
L 738 4531 
L 184 4531 
L 184 4863 
L 1313 4863 
L 1313 1697 
L 2713 2988 
L 2234 2988 
L 2234 3322 
L 3738 3322 
L 3738 2988 
L 3169 2988 
L 2181 2075 
L 3444 331 
L 3922 331 
L 3922 0 
L 2284 0 
L 2284 331 
L 2759 331 
L 1766 1697 
L 1313 1275 
L 1313 331 
L 1831 331 
L 1831 0 
z
" transform="scale(0.015625)"/>
      </defs>
      <use xlink:href="#DejaVuSerif-25"/>
      <use xlink:href="#DejaVuSerif-20" transform="translate(95.019531 0)"/>
      <use xlink:href="#DejaVuSerif-6f" transform="translate(126.806641 0)"/>
      <use xlink:href="#DejaVuSerif-66" transform="translate(187.011719 0)"/>
      <use xlink:href="#DejaVuSerif-20" transform="translate(224.023438 0)"/>
      <use xlink:href="#DejaVuSerif-52" transform="translate(255.810547 0)"/>
      <use xlink:href="#DejaVuSerif-65" transform="translate(331.103516 0)"/>
      <use xlink:href="#DejaVuSerif-61" transform="translate(390.283203 0)"/>
      <use xlink:href="#DejaVuSerif-6c" transform="translate(449.902344 0)"/>
      <use xlink:href="#DejaVuSerif-20" transform="translate(481.884766 0)"/>
      <use xlink:href="#DejaVuSerif-53" transform="translate(513.671875 0)"/>
      <use xlink:href="#DejaVuSerif-70" transform="translate(582.177734 0)"/>
      <use xlink:href="#DejaVuSerif-65" transform="translate(646.191406 0)"/>
      <use xlink:href="#DejaVuSerif-65" transform="translate(705.371094 0)"/>
      <use xlink:href="#DejaVuSerif-63" transform="translate(764.550781 0)"/>
      <use xlink:href="#DejaVuSerif-68" transform="translate(820.556641 0)"/>
      <use xlink:href="#DejaVuSerif-20" transform="translate(884.960938 0)"/>
      <use xlink:href="#DejaVuSerif-4c" transform="translate(916.748047 0)"/>
      <use xlink:href="#DejaVuSerif-61" transform="translate(983.154297 0)"/>
      <use xlink:href="#DejaVuSerif-62" transform="translate(1042.773438 0)"/>
      <use xlink:href="#DejaVuSerif-65" transform="translate(1106.787109 0)"/>
      <use xlink:href="#DejaVuSerif-6c" transform="translate(1165.966797 0)"/>
      <use xlink:href="#DejaVuSerif-65" transform="translate(1197.949219 0)"/>
      <use xlink:href="#DejaVuSerif-64" transform="translate(1257.128906 0)"/>
      <use xlink:href="#DejaVuSerif-20" transform="translate(1321.142578 0)"/>
      <use xlink:href="#DejaVuSerif-61" transform="translate(1352.929688 0)"/>
      <use xlink:href="#DejaVuSerif-73" transform="translate(1412.548828 0)"/>
      <use xlink:href="#DejaVuSerif-20" transform="translate(1463.867188 0)"/>
      <use xlink:href="#DejaVuSerif-46" transform="translate(1495.654297 0)"/>
      <use xlink:href="#DejaVuSerif-61" transform="translate(1558.289062 0)"/>
      <use xlink:href="#DejaVuSerif-6b" transform="translate(1617.908203 0)"/>
      <use xlink:href="#DejaVuSerif-65" transform="translate(1678.503906 0)"/>
     </g>
    </g>
   </g>
   <g id="patch_11">
    <path d="M 52.50125 284.399281 
L 52.50125 37.632281 
" style="fill: none; stroke: #000000; stroke-width: 0.8; stroke-linejoin: miter; stroke-linecap: square"/>
   </g>
   <g id="patch_12">
    <path d="M 52.50125 284.399281 
L 707.44125 284.399281 
" style="fill: none; stroke: #000000; stroke-width: 0.8; stroke-linejoin: miter; stroke-linecap: square"/>
   </g>
   <g id="text_12">
    <!-- 0% -->
    <g transform="translate(103.025342 251.207136) scale(0.09 -0.09)">
     <defs>
      <path id="DejaVuSerif-Bold-30" d="M 2228 275 
Q 2603 275 2742 615 
Q 2881 956 2881 2328 
Q 2881 3691 2742 4037 
Q 2603 4384 2228 4384 
Q 1853 4384 1714 4043 
Q 1575 3703 1575 2328 
Q 1575 956 1714 615 
Q 1853 275 2228 275 
z
M 2228 -91 
Q 1294 -91 797 532 
Q 300 1156 300 2328 
Q 300 3500 797 4125 
Q 1294 4750 2228 4750 
Q 3159 4750 3656 4125 
Q 4153 3500 4153 2328 
Q 4153 1156 3656 532 
Q 3159 -91 2228 -91 
z
" transform="scale(0.015625)"/>
      <path id="DejaVuSerif-Bold-25" d="M 1381 4434 
Q 1181 4434 1093 4217 
Q 1006 4000 1006 3481 
Q 1006 2959 1093 2740 
Q 1181 2522 1381 2522 
Q 1584 2522 1671 2740 
Q 1759 2959 1759 3481 
Q 1759 4000 1671 4217 
Q 1584 4434 1381 4434 
z
M 1381 4750 
Q 1978 4750 2295 4423 
Q 2613 4097 2613 3481 
Q 2613 2866 2295 2537 
Q 1978 2209 1381 2209 
Q 788 2209 470 2537 
Q 153 2866 153 3481 
Q 153 4097 470 4423 
Q 788 4750 1381 4750 
z
M 4231 4750 
L 4769 4750 
L 1850 -91 
L 1313 -91 
L 4231 4750 
z
M 4697 2450 
Q 5294 2450 5609 2123 
Q 5925 1797 5925 1184 
Q 5925 569 5609 239 
Q 5294 -91 4697 -91 
Q 4103 -91 3786 239 
Q 3469 569 3469 1184 
Q 3469 1797 3786 2123 
Q 4103 2450 4697 2450 
z
M 4697 2138 
Q 4494 2138 4406 1920 
Q 4319 1703 4319 1184 
Q 4319 663 4408 444 
Q 4497 225 4697 225 
Q 4900 225 4987 444 
Q 5075 663 5075 1184 
Q 5075 1703 4987 1920 
Q 4900 2138 4697 2138 
z
" transform="scale(0.015625)"/>
     </defs>
     <use xlink:href="#DejaVuSerif-Bold-30"/>
     <use xlink:href="#DejaVuSerif-Bold-25" transform="translate(69.580078 0)"/>
    </g>
   </g>
   <g id="text_13">
    <!-- 0% -->
    <g transform="translate(159.346964 251.207136) scale(0.09 -0.09)">
     <use xlink:href="#DejaVuSerif-Bold-30"/>
     <use xlink:href="#DejaVuSerif-Bold-25" transform="translate(69.580078 0)"/>
    </g>
   </g>
   <g id="text_14">
    <!-- 79.5% -->
    <g transform="translate(256.115667 100.299624) scale(0.09 -0.09)">
     <defs>
      <path id="DejaVuSerif-Bold-37" d="M 3922 3872 
L 1997 0 
L 1363 0 
L 3238 3781 
L 934 3781 
L 934 3150 
L 506 3150 
L 506 4666 
L 3922 4666 
L 3922 3872 
z
" transform="scale(0.015625)"/>
      <path id="DejaVuSerif-Bold-39" d="M 2181 4384 
Q 1859 4384 1723 4111 
Q 1588 3838 1588 3163 
Q 1588 2488 1723 2214 
Q 1859 1941 2181 1941 
Q 2503 1941 2640 2214 
Q 2778 2488 2778 3163 
Q 2778 3838 2640 4111 
Q 2503 4384 2181 4384 
z
M 2878 1900 
Q 2672 1734 2420 1651 
Q 2169 1569 1875 1569 
Q 1163 1569 755 1986 
Q 347 2403 347 3138 
Q 347 3913 803 4331 
Q 1259 4750 2106 4750 
Q 3063 4750 3556 4172 
Q 4050 3594 4050 2478 
Q 4050 1206 3503 557 
Q 2956 -91 1881 -91 
Q 1600 -91 1278 -44 
Q 956 3 588 97 
L 588 922 
L 966 922 
Q 1044 603 1261 439 
Q 1478 275 1825 275 
Q 2375 275 2625 658 
Q 2875 1041 2878 1900 
z
" transform="scale(0.015625)"/>
      <path id="DejaVuSerif-Bold-2e" d="M 519 506 
Q 519 750 694 925 
Q 869 1100 1113 1100 
Q 1359 1100 1534 925 
Q 1709 750 1709 506 
Q 1709 259 1534 84 
Q 1359 -91 1113 -91 
Q 869 -91 694 84 
Q 519 259 519 506 
z
" transform="scale(0.015625)"/>
      <path id="DejaVuSerif-Bold-35" d="M 3609 4666 
L 3609 3847 
L 1113 3847 
L 1113 2822 
Q 1319 2981 1572 3062 
Q 1825 3144 2106 3144 
Q 2969 3144 3469 2708 
Q 3969 2272 3969 1522 
Q 3969 759 3469 334 
Q 2969 -91 2069 -91 
Q 1688 -91 1311 -28 
Q 934 34 525 166 
L 525 1184 
L 900 1184 
Q 919 725 1139 500 
Q 1359 275 1791 275 
Q 2250 275 2472 583 
Q 2694 891 2694 1522 
Q 2694 2144 2476 2451 
Q 2259 2759 1819 2759 
Q 1581 2759 1395 2661 
Q 1209 2563 1050 2356 
L 738 2356 
L 738 4666 
L 3609 4666 
z
" transform="scale(0.015625)"/>
     </defs>
     <use xlink:href="#DejaVuSerif-Bold-37"/>
     <use xlink:href="#DejaVuSerif-Bold-39" transform="translate(69.580078 0)"/>
     <use xlink:href="#DejaVuSerif-Bold-2e" transform="translate(139.160156 0)"/>
     <use xlink:href="#DejaVuSerif-Bold-35" transform="translate(173.974609 0)"/>
     <use xlink:href="#DejaVuSerif-Bold-25" transform="translate(243.554688 0)"/>
    </g>
   </g>
   <g id="text_15">
    <!-- 10.0% -->
    <g transform="translate(312.437289 232.225059) scale(0.09 -0.09)">
     <defs>
      <path id="DejaVuSerif-Bold-31" d="M 878 0 
L 878 378 
L 1753 378 
L 1753 4153 
L 781 3578 
L 781 4044 
L 1953 4750 
L 2938 4750 
L 2938 378 
L 3816 378 
L 3816 0 
L 878 0 
z
" transform="scale(0.015625)"/>
     </defs>
     <use xlink:href="#DejaVuSerif-Bold-31"/>
     <use xlink:href="#DejaVuSerif-Bold-30" transform="translate(69.580078 0)"/>
     <use xlink:href="#DejaVuSerif-Bold-2e" transform="translate(139.160156 0)"/>
     <use xlink:href="#DejaVuSerif-Bold-30" transform="translate(173.974609 0)"/>
     <use xlink:href="#DejaVuSerif-Bold-25" transform="translate(243.554688 0)"/>
    </g>
   </g>
   <g id="text_16">
    <!-- 100% -->
    <g transform="translate(418.601149 61.386366) scale(0.09 -0.09)">
     <use xlink:href="#DejaVuSerif-Bold-31"/>
     <use xlink:href="#DejaVuSerif-Bold-30" transform="translate(69.580078 0)"/>
     <use xlink:href="#DejaVuSerif-Bold-30" transform="translate(139.160156 0)"/>
     <use xlink:href="#DejaVuSerif-Bold-25" transform="translate(208.740234 0)"/>
    </g>
   </g>
   <g id="text_17">
    <!-- 0% -->
    <g transform="translate(481.184802 251.207136) scale(0.09 -0.09)">
     <use xlink:href="#DejaVuSerif-Bold-30"/>
     <use xlink:href="#DejaVuSerif-Bold-25" transform="translate(69.580078 0)"/>
    </g>
   </g>
   <g id="text_18">
    <!-- 99% -->
    <g transform="translate(582.651083 63.284574) scale(0.09 -0.09)">
     <use xlink:href="#DejaVuSerif-Bold-39"/>
     <use xlink:href="#DejaVuSerif-Bold-39" transform="translate(69.580078 0)"/>
     <use xlink:href="#DejaVuSerif-Bold-25" transform="translate(139.160156 0)"/>
    </g>
   </g>
   <g id="text_19">
    <!-- 0% -->
    <g transform="translate(642.10372 251.207136) scale(0.09 -0.09)">
     <use xlink:href="#DejaVuSerif-Bold-30"/>
     <use xlink:href="#DejaVuSerif-Bold-25" transform="translate(69.580078 0)"/>
    </g>
   </g>
   <g id="patch_13">
    <path d="M 60.13213 271.111827 
Q 379.969458 271.111827 697.570717 271.111827 
" style="fill: none; stroke: #3b1f2b; stroke-width: 2; stroke-linecap: round"/>
    <path d="M 693.170717 268.911827 
L 697.570717 271.111827 
L 693.170717 273.311827 
" style="fill: none; stroke: #3b1f2b; stroke-width: 2; stroke-linecap: round"/>
   </g>
   <g id="text_20">
    <!-- ← Less processing                More processing → -->
    <g style="fill: #3b1f2b" transform="translate(271.904453 278.704658) scale(0.09 -0.09)">
     <defs>
      <path id="DejaVuSerif-2190" d="M 4997 2322 
L 4997 1816 
L 972 1816 
L 1575 763 
L 1541 763 
L 238 2053 
L 238 2084 
L 1541 3375 
L 1575 3375 
L 972 2322 
L 4997 2322 
z
" transform="scale(0.015625)"/>
      <path id="DejaVuSerif-2192" d="M 366 2322 
L 4391 2322 
L 3788 3375 
L 3822 3375 
L 5125 2084 
L 5125 2053 
L 3822 763 
L 3788 763 
L 4391 1816 
L 366 1816 
L 366 2322 
z
" transform="scale(0.015625)"/>
     </defs>
     <use xlink:href="#DejaVuSerif-2190"/>
     <use xlink:href="#DejaVuSerif-20" transform="translate(83.789062 0)"/>
     <use xlink:href="#DejaVuSerif-4c" transform="translate(115.576172 0)"/>
     <use xlink:href="#DejaVuSerif-65" transform="translate(181.982422 0)"/>
     <use xlink:href="#DejaVuSerif-73" transform="translate(241.162109 0)"/>
     <use xlink:href="#DejaVuSerif-73" transform="translate(292.480469 0)"/>
     <use xlink:href="#DejaVuSerif-20" transform="translate(343.798828 0)"/>
     <use xlink:href="#DejaVuSerif-70" transform="translate(375.585938 0)"/>
     <use xlink:href="#DejaVuSerif-72" transform="translate(439.599609 0)"/>
     <use xlink:href="#DejaVuSerif-6f" transform="translate(487.402344 0)"/>
     <use xlink:href="#DejaVuSerif-63" transform="translate(547.607422 0)"/>
     <use xlink:href="#DejaVuSerif-65" transform="translate(603.613281 0)"/>
     <use xlink:href="#DejaVuSerif-73" transform="translate(662.792969 0)"/>
     <use xlink:href="#DejaVuSerif-73" transform="translate(714.111328 0)"/>
     <use xlink:href="#DejaVuSerif-69" transform="translate(765.429688 0)"/>
     <use xlink:href="#DejaVuSerif-6e" transform="translate(797.412109 0)"/>
     <use xlink:href="#DejaVuSerif-67" transform="translate(861.816406 0)"/>
     <use xlink:href="#DejaVuSerif-20" transform="translate(925.830078 0)"/>
     <use xlink:href="#DejaVuSerif-20" transform="translate(957.617188 0)"/>
     <use xlink:href="#DejaVuSerif-20" transform="translate(989.404297 0)"/>
     <use xlink:href="#DejaVuSerif-20" transform="translate(1021.191406 0)"/>
     <use xlink:href="#DejaVuSerif-20" transform="translate(1052.978516 0)"/>
     <use xlink:href="#DejaVuSerif-20" transform="translate(1084.765625 0)"/>
     <use xlink:href="#DejaVuSerif-20" transform="translate(1116.552734 0)"/>
     <use xlink:href="#DejaVuSerif-20" transform="translate(1148.339844 0)"/>
     <use xlink:href="#DejaVuSerif-20" transform="translate(1180.126953 0)"/>
     <use xlink:href="#DejaVuSerif-20" transform="translate(1211.914062 0)"/>
     <use xlink:href="#DejaVuSerif-20" transform="translate(1243.701172 0)"/>
     <use xlink:href="#DejaVuSerif-20" transform="translate(1275.488281 0)"/>
     <use xlink:href="#DejaVuSerif-20" transform="translate(1307.275391 0)"/>
     <use xlink:href="#DejaVuSerif-20" transform="translate(1339.0625 0)"/>
     <use xlink:href="#DejaVuSerif-20" transform="translate(1370.849609 0)"/>
     <use xlink:href="#DejaVuSerif-20" transform="translate(1402.636719 0)"/>
     <use xlink:href="#DejaVuSerif-4d" transform="translate(1434.423828 0)"/>
     <use xlink:href="#DejaVuSerif-6f" transform="translate(1536.816406 0)"/>
     <use xlink:href="#DejaVuSerif-72" transform="translate(1597.021484 0)"/>
     <use xlink:href="#DejaVuSerif-65" transform="translate(1644.824219 0)"/>
     <use xlink:href="#DejaVuSerif-20" transform="translate(1704.003906 0)"/>
     <use xlink:href="#DejaVuSerif-70" transform="translate(1735.791016 0)"/>
     <use xlink:href="#DejaVuSerif-72" transform="translate(1799.804688 0)"/>
     <use xlink:href="#DejaVuSerif-6f" transform="translate(1847.607422 0)"/>
     <use xlink:href="#DejaVuSerif-63" transform="translate(1907.8125 0)"/>
     <use xlink:href="#DejaVuSerif-65" transform="translate(1963.818359 0)"/>
     <use xlink:href="#DejaVuSerif-73" transform="translate(2022.998047 0)"/>
     <use xlink:href="#DejaVuSerif-73" transform="translate(2074.316406 0)"/>
     <use xlink:href="#DejaVuSerif-69" transform="translate(2125.634766 0)"/>
     <use xlink:href="#DejaVuSerif-6e" transform="translate(2157.617188 0)"/>
     <use xlink:href="#DejaVuSerif-67" transform="translate(2222.021484 0)"/>
     <use xlink:href="#DejaVuSerif-20" transform="translate(2286.035156 0)"/>
     <use xlink:href="#DejaVuSerif-2192" transform="translate(2317.822266 0)"/>
    </g>
   </g>
   <g id="text_21">
    <!-- The Processing Spectrum: Detector Sensitivity to Generative Processing -->
    <g transform="translate(156.908437 19.158281) scale(0.11 -0.11)">
     <defs>
      <path id="DejaVuSerif-Bold-54" d="M 1159 0 
L 1159 378 
L 1778 378 
L 1778 4238 
L 500 4238 
L 500 3500 
L 72 3500 
L 72 4666 
L 4697 4666 
L 4697 3500 
L 4275 3500 
L 4275 4238 
L 2988 4238 
L 2988 378 
L 3609 378 
L 3609 0 
L 1159 0 
z
" transform="scale(0.015625)"/>
      <path id="DejaVuSerif-Bold-68" d="M 219 0 
L 219 378 
L 691 378 
L 691 4488 
L 197 4488 
L 197 4863 
L 1797 4863 
L 1797 2853 
Q 1997 3150 2253 3281 
Q 2509 3413 2900 3413 
Q 3459 3413 3745 3083 
Q 4031 2753 4031 2113 
L 4031 378 
L 4506 378 
L 4506 0 
L 2522 0 
L 2522 378 
L 2925 378 
L 2925 2144 
Q 2925 2566 2817 2730 
Q 2709 2894 2444 2894 
Q 2109 2894 1953 2648 
Q 1797 2403 1797 1869 
L 1797 378 
L 2203 378 
L 2203 0 
L 219 0 
z
" transform="scale(0.015625)"/>
      <path id="DejaVuSerif-Bold-65" d="M 2566 1875 
Q 2566 2531 2444 2795 
Q 2322 3059 2028 3059 
Q 1744 3059 1620 2800 
Q 1497 2541 1497 1931 
L 1497 1875 
L 2566 1875 
z
M 3781 1503 
L 1497 1503 
L 1497 1478 
Q 1497 834 1690 548 
Q 1884 263 2316 263 
Q 2675 263 2897 453 
Q 3119 644 3181 1006 
L 3700 1006 
Q 3566 441 3166 175 
Q 2766 -91 2047 -91 
Q 1184 -91 723 364 
Q 263 819 263 1663 
Q 263 2488 734 2950 
Q 1206 3413 2047 3413 
Q 2872 3413 3312 2927 
Q 3753 2441 3781 1503 
z
" transform="scale(0.015625)"/>
      <path id="DejaVuSerif-Bold-20" transform="scale(0.015625)"/>
      <path id="DejaVuSerif-Bold-50" d="M 300 0 
L 300 378 
L 897 378 
L 897 4288 
L 300 4288 
L 300 4666 
L 2956 4666 
Q 3734 4666 4193 4295 
Q 4653 3925 4653 3303 
Q 4653 2678 4192 2304 
Q 3731 1931 2956 1931 
L 2100 1931 
L 2100 378 
L 2853 378 
L 2853 0 
L 300 0 
z
M 2100 2309 
L 2450 2309 
Q 2856 2309 3098 2579 
Q 3341 2850 3341 3303 
Q 3341 3753 3100 4020 
Q 2859 4288 2450 4288 
L 2100 4288 
L 2100 2309 
z
" transform="scale(0.015625)"/>
      <path id="DejaVuSerif-Bold-72" d="M 3438 3359 
L 3438 2369 
L 3084 2369 
Q 3066 2634 2941 2764 
Q 2816 2894 2578 2894 
Q 2216 2894 2006 2575 
Q 1797 2256 1797 1691 
L 1797 378 
L 2400 378 
L 2400 0 
L 219 0 
L 219 378 
L 691 378 
L 691 2944 
L 184 2944 
L 184 3322 
L 1797 3322 
L 1797 2731 
Q 1959 3078 2226 3245 
Q 2494 3413 2881 3413 
Q 2978 3413 3117 3398 
Q 3256 3384 3438 3359 
z
" transform="scale(0.015625)"/>
      <path id="DejaVuSerif-Bold-6f" d="M 2138 263 
Q 2488 263 2630 563 
Q 2772 863 2772 1663 
Q 2772 2463 2631 2761 
Q 2491 3059 2138 3059 
Q 1784 3059 1640 2757 
Q 1497 2456 1497 1663 
Q 1497 869 1640 566 
Q 1784 263 2138 263 
z
M 2138 -91 
Q 1259 -91 761 376 
Q 263 844 263 1663 
Q 263 2484 761 2948 
Q 1259 3413 2138 3413 
Q 3019 3413 3516 2948 
Q 4013 2484 4013 1663 
Q 4013 844 3514 376 
Q 3016 -91 2138 -91 
z
" transform="scale(0.015625)"/>
      <path id="DejaVuSerif-Bold-63" d="M 3609 1038 
Q 3491 469 3123 189 
Q 2756 -91 2125 -91 
Q 1238 -91 750 368 
Q 263 828 263 1663 
Q 263 2488 744 2950 
Q 1225 3413 2081 3413 
Q 2428 3413 2781 3347 
Q 3134 3281 3500 3150 
L 3500 2228 
L 3150 2228 
Q 3100 2650 2903 2854 
Q 2706 3059 2350 3059 
Q 1888 3059 1692 2746 
Q 1497 2434 1497 1663 
Q 1497 909 1687 586 
Q 1878 263 2309 263 
Q 2644 263 2845 463 
Q 3047 663 3091 1038 
L 3609 1038 
z
" transform="scale(0.015625)"/>
      <path id="DejaVuSerif-Bold-73" d="M 300 97 
L 300 1025 
L 653 1025 
Q 697 653 931 458 
Q 1166 263 1569 263 
Q 1906 263 2086 380 
Q 2266 497 2266 716 
Q 2266 916 2152 1025 
Q 2038 1134 1709 1216 
L 1253 1331 
Q 738 1459 506 1698 
Q 275 1938 275 2344 
Q 275 2884 650 3148 
Q 1025 3413 1806 3413 
Q 2100 3413 2433 3364 
Q 2766 3316 3169 3213 
L 3169 2375 
L 2816 2375 
Q 2788 2716 2573 2887 
Q 2359 3059 1959 3059 
Q 1622 3059 1448 2951 
Q 1275 2844 1275 2638 
Q 1275 2469 1375 2372 
Q 1475 2275 1734 2209 
L 2188 2094 
Q 2841 1928 3091 1684 
Q 3341 1441 3341 1006 
Q 3341 444 2939 176 
Q 2538 -91 1691 -91 
Q 1381 -91 1034 -44 
Q 688 3 300 97 
z
" transform="scale(0.015625)"/>
      <path id="DejaVuSerif-Bold-69" d="M 588 4263 
Q 588 4516 763 4689 
Q 938 4863 1191 4863 
Q 1438 4863 1611 4689 
Q 1784 4516 1784 4263 
Q 1784 4016 1611 3842 
Q 1438 3669 1191 3669 
Q 938 3669 763 3841 
Q 588 4013 588 4263 
z
M 1797 378 
L 2272 378 
L 2272 0 
L 219 0 
L 219 378 
L 691 378 
L 691 2944 
L 219 2944 
L 219 3322 
L 1797 3322 
L 1797 378 
z
" transform="scale(0.015625)"/>
      <path id="DejaVuSerif-Bold-6e" d="M 219 0 
L 219 378 
L 691 378 
L 691 2944 
L 219 2944 
L 219 3322 
L 1797 3322 
L 1797 2853 
Q 1997 3150 2253 3281 
Q 2509 3413 2900 3413 
Q 3459 3413 3745 3083 
Q 4031 2753 4031 2113 
L 4031 378 
L 4506 378 
L 4506 0 
L 2522 0 
L 2522 378 
L 2925 378 
L 2925 2144 
Q 2925 2566 2817 2730 
Q 2709 2894 2444 2894 
Q 2109 2894 1953 2648 
Q 1797 2403 1797 1869 
L 1797 378 
L 2203 378 
L 2203 0 
L 219 0 
z
" transform="scale(0.015625)"/>
      <path id="DejaVuSerif-Bold-67" d="M 3853 2944 
L 3853 44 
Q 3853 -656 3354 -1039 
Q 2856 -1422 1947 -1422 
Q 1616 -1422 1275 -1370 
Q 934 -1319 575 -1216 
L 575 -422 
L 928 -422 
Q 975 -750 1192 -909 
Q 1409 -1069 1813 -1069 
Q 2325 -1069 2536 -823 
Q 2747 -578 2747 44 
L 2747 422 
Q 2606 163 2367 36 
Q 2128 -91 1778 -91 
Q 1072 -91 667 378 
Q 263 847 263 1663 
Q 263 2481 667 2947 
Q 1072 3413 1778 3413 
Q 2128 3413 2367 3286 
Q 2606 3159 2747 2900 
L 2747 3322 
L 4325 3322 
L 4325 2944 
L 3853 2944 
z
M 2747 1825 
Q 2747 2406 2597 2665 
Q 2447 2925 2119 2925 
Q 1775 2925 1636 2651 
Q 1497 2378 1497 1663 
Q 1497 947 1637 672 
Q 1778 397 2119 397 
Q 2447 397 2597 656 
Q 2747 916 2747 1497 
L 2747 1825 
z
" transform="scale(0.015625)"/>
      <path id="DejaVuSerif-Bold-53" d="M 494 225 
L 494 1331 
L 891 1331 
Q 981 806 1318 547 
Q 1656 288 2253 288 
Q 2738 288 2991 472 
Q 3244 656 3244 1013 
Q 3244 1294 3072 1450 
Q 2900 1606 2363 1741 
L 1663 1913 
Q 978 2088 700 2398 
Q 422 2709 422 3284 
Q 422 3978 883 4364 
Q 1344 4750 2175 4750 
Q 2584 4750 3026 4681 
Q 3469 4613 3944 4475 
L 3944 3444 
L 3547 3444 
Q 3456 3925 3150 4148 
Q 2844 4372 2278 4372 
Q 1816 4372 1580 4211 
Q 1344 4050 1344 3731 
Q 1344 3441 1506 3289 
Q 1669 3138 2303 2975 
L 3003 2803 
Q 3653 2641 3945 2297 
Q 4238 1953 4238 1350 
Q 4238 644 3750 276 
Q 3263 -91 2316 -91 
Q 1859 -91 1409 -12 
Q 959 66 494 225 
z
" transform="scale(0.015625)"/>
      <path id="DejaVuSerif-Bold-70" d="M 1728 1825 
L 1728 1497 
Q 1728 916 1876 656 
Q 2025 397 2356 397 
Q 2697 397 2836 672 
Q 2975 947 2975 1663 
Q 2975 2378 2836 2651 
Q 2697 2925 2356 2925 
Q 2025 2925 1876 2665 
Q 1728 2406 1728 1825 
z
M 622 2944 
L 147 2944 
L 147 3322 
L 1728 3322 
L 1728 2900 
Q 1869 3159 2106 3286 
Q 2344 3413 2694 3413 
Q 3403 3413 3811 2945 
Q 4219 2478 4219 1663 
Q 4219 847 3811 378 
Q 3403 -91 2694 -91 
Q 2344 -91 2106 36 
Q 1869 163 1728 422 
L 1728 -953 
L 2241 -953 
L 2241 -1331 
L 147 -1331 
L 147 -953 
L 622 -953 
L 622 2944 
z
" transform="scale(0.015625)"/>
      <path id="DejaVuSerif-Bold-74" d="M 634 2944 
L 153 2944 
L 153 3322 
L 634 3322 
L 634 4353 
L 1741 4353 
L 1741 3322 
L 2663 3322 
L 2663 2944 
L 1741 2944 
L 1741 909 
Q 1741 475 1809 369 
Q 1878 263 2059 263 
Q 2259 263 2356 397 
Q 2453 531 2459 813 
L 2925 813 
Q 2897 313 2651 111 
Q 2406 -91 1806 -91 
Q 1122 -91 878 123 
Q 634 338 634 909 
L 634 2944 
z
" transform="scale(0.015625)"/>
      <path id="DejaVuSerif-Bold-75" d="M 3963 3322 
L 3963 378 
L 4434 378 
L 4434 0 
L 2853 0 
L 2853 469 
Q 2656 172 2400 40 
Q 2144 -91 1753 -91 
Q 1194 -91 908 239 
Q 622 569 622 1209 
L 622 2944 
L 147 2944 
L 147 3322 
L 1728 3322 
L 1728 1381 
Q 1728 763 1831 595 
Q 1934 428 2209 428 
Q 2544 428 2698 675 
Q 2853 922 2853 1459 
L 2853 2944 
L 2450 2944 
L 2450 3322 
L 3963 3322 
z
" transform="scale(0.015625)"/>
      <path id="DejaVuSerif-Bold-6d" d="M 3884 2778 
Q 4116 3109 4384 3261 
Q 4653 3413 5013 3413 
Q 5584 3413 5867 3089 
Q 6150 2766 6150 2113 
L 6150 378 
L 6625 378 
L 6625 0 
L 4647 0 
L 4647 378 
L 5044 378 
L 5044 1947 
Q 5044 2569 4948 2731 
Q 4853 2894 4594 2894 
Q 4300 2894 4137 2667 
Q 3975 2441 3975 2022 
L 3975 378 
L 4372 378 
L 4372 0 
L 2472 0 
L 2472 378 
L 2869 378 
L 2869 1947 
Q 2869 2569 2772 2731 
Q 2675 2894 2419 2894 
Q 2122 2894 1959 2667 
Q 1797 2441 1797 2022 
L 1797 378 
L 2194 378 
L 2194 0 
L 219 0 
L 219 378 
L 691 378 
L 691 2944 
L 219 2944 
L 219 3322 
L 1797 3322 
L 1797 2853 
Q 1991 3144 2241 3278 
Q 2491 3413 2834 3413 
Q 3241 3413 3494 3258 
Q 3747 3103 3884 2778 
z
" transform="scale(0.015625)"/>
      <path id="DejaVuSerif-Bold-3a" d="M 588 2541 
Q 588 2788 761 2963 
Q 934 3138 1178 3138 
Q 1422 3138 1597 2961 
Q 1772 2784 1772 2541 
Q 1772 2297 1598 2125 
Q 1425 1953 1178 1953 
Q 931 1953 759 2125 
Q 588 2297 588 2541 
z
M 588 506 
Q 588 750 761 925 
Q 934 1100 1178 1100 
Q 1422 1100 1597 925 
Q 1772 750 1772 506 
Q 1772 259 1597 84 
Q 1422 -91 1178 -91 
Q 934 -91 761 84 
Q 588 259 588 506 
z
" transform="scale(0.015625)"/>
      <path id="DejaVuSerif-Bold-44" d="M 2100 378 
L 2534 378 
Q 3266 378 3605 847 
Q 3944 1316 3944 2338 
Q 3944 3353 3606 3820 
Q 3269 4288 2534 4288 
L 2100 4288 
L 2100 378 
z
M 300 0 
L 300 378 
L 897 378 
L 897 4288 
L 300 4288 
L 300 4666 
L 2694 4666 
Q 3950 4666 4615 4066 
Q 5281 3466 5281 2338 
Q 5281 1203 4614 601 
Q 3947 0 2694 0 
L 300 0 
z
" transform="scale(0.015625)"/>
      <path id="DejaVuSerif-Bold-76" d="M 1428 0 
L 250 2944 
L -116 2944 
L -116 3322 
L 1791 3322 
L 1791 2944 
L 1388 2944 
L 2228 844 
L 3066 2944 
L 2631 2944 
L 2631 3322 
L 3878 3322 
L 3878 2944 
L 3494 2944 
L 2316 0 
L 1428 0 
z
" transform="scale(0.015625)"/>
      <path id="DejaVuSerif-Bold-79" d="M 1997 -750 
Q 1847 -1116 1634 -1269 
Q 1422 -1422 1063 -1422 
Q 909 -1422 721 -1387 
Q 534 -1353 313 -1288 
L 313 -594 
L 666 -597 
Q 675 -838 779 -953 
Q 884 -1069 1094 -1069 
Q 1297 -1069 1422 -958 
Q 1547 -847 1672 -538 
L 1722 -422 
L 275 2944 
L -84 2944 
L -84 3322 
L 1831 3322 
L 1831 2944 
L 1434 2944 
L 2278 978 
L 3066 2944 
L 2625 2944 
L 2625 3322 
L 3872 3322 
L 3872 2944 
L 3469 2944 
L 1997 -750 
z
" transform="scale(0.015625)"/>
      <path id="DejaVuSerif-Bold-47" d="M 4403 3200 
Q 4263 3819 3934 4095 
Q 3606 4372 3009 4372 
Q 2284 4372 1945 3880 
Q 1606 3388 1606 2328 
Q 1606 1278 1931 783 
Q 2256 288 2944 288 
Q 3206 288 3431 347 
Q 3656 406 3841 525 
L 3841 1806 
L 3278 1806 
L 3278 2181 
L 4959 2181 
L 4959 391 
Q 4434 147 3911 28 
Q 3388 -91 2841 -91 
Q 1641 -91 955 556 
Q 269 1203 269 2328 
Q 269 3456 955 4103 
Q 1641 4750 2841 4750 
Q 3341 4750 3825 4650 
Q 4309 4550 4800 4347 
L 4800 3200 
L 4403 3200 
z
" transform="scale(0.015625)"/>
      <path id="DejaVuSerif-Bold-61" d="M 3525 2041 
L 3525 378 
L 4000 378 
L 4000 0 
L 2419 0 
L 2419 422 
Q 2200 159 1931 34 
Q 1663 -91 1319 -91 
Q 809 -91 536 182 
Q 263 456 263 966 
Q 263 1525 655 1803 
Q 1047 2081 1838 2081 
L 2419 2081 
L 2419 2278 
Q 2419 2681 2228 2873 
Q 2038 3066 1638 3066 
Q 1306 3066 1126 2930 
Q 947 2794 872 2484 
L 519 2484 
L 519 3200 
Q 816 3306 1134 3359 
Q 1453 3413 1806 3413 
Q 2697 3413 3111 3081 
Q 3525 2750 3525 2041 
z
M 2419 1044 
L 2419 1709 
L 2003 1709 
Q 1694 1709 1528 1540 
Q 1363 1372 1363 1056 
Q 1363 741 1483 584 
Q 1603 428 1850 428 
Q 2106 428 2262 597 
Q 2419 766 2419 1044 
z
" transform="scale(0.015625)"/>
     </defs>
     <use xlink:href="#DejaVuSerif-Bold-54"/>
     <use xlink:href="#DejaVuSerif-Bold-68" transform="translate(74.414062 0)"/>
     <use xlink:href="#DejaVuSerif-Bold-65" transform="translate(147.119141 0)"/>
     <use xlink:href="#DejaVuSerif-Bold-20" transform="translate(210.742188 0)"/>
     <use xlink:href="#DejaVuSerif-Bold-50" transform="translate(245.556641 0)"/>
     <use xlink:href="#DejaVuSerif-Bold-72" transform="translate(320.751953 0)"/>
     <use xlink:href="#DejaVuSerif-Bold-6f" transform="translate(373.4375 0)"/>
     <use xlink:href="#DejaVuSerif-Bold-63" transform="translate(440.136719 0)"/>
     <use xlink:href="#DejaVuSerif-Bold-65" transform="translate(501.025391 0)"/>
     <use xlink:href="#DejaVuSerif-Bold-73" transform="translate(564.648438 0)"/>
     <use xlink:href="#DejaVuSerif-Bold-73" transform="translate(620.947266 0)"/>
     <use xlink:href="#DejaVuSerif-Bold-69" transform="translate(677.246094 0)"/>
     <use xlink:href="#DejaVuSerif-Bold-6e" transform="translate(715.234375 0)"/>
     <use xlink:href="#DejaVuSerif-Bold-67" transform="translate(787.939453 0)"/>
     <use xlink:href="#DejaVuSerif-Bold-20" transform="translate(857.861328 0)"/>
     <use xlink:href="#DejaVuSerif-Bold-53" transform="translate(892.675781 0)"/>
     <use xlink:href="#DejaVuSerif-Bold-70" transform="translate(964.892578 0)"/>
     <use xlink:href="#DejaVuSerif-Bold-65" transform="translate(1034.814453 0)"/>
     <use xlink:href="#DejaVuSerif-Bold-63" transform="translate(1098.4375 0)"/>
     <use xlink:href="#DejaVuSerif-Bold-74" transform="translate(1159.326172 0)"/>
     <use xlink:href="#DejaVuSerif-Bold-72" transform="translate(1205.517578 0)"/>
     <use xlink:href="#DejaVuSerif-Bold-75" transform="translate(1258.203125 0)"/>
     <use xlink:href="#DejaVuSerif-Bold-6d" transform="translate(1330.908203 0)"/>
     <use xlink:href="#DejaVuSerif-Bold-3a" transform="translate(1436.71875 0)"/>
     <use xlink:href="#DejaVuSerif-Bold-20" transform="translate(1473.632812 0)"/>
     <use xlink:href="#DejaVuSerif-Bold-44" transform="translate(1508.447266 0)"/>
     <use xlink:href="#DejaVuSerif-Bold-65" transform="translate(1595.166016 0)"/>
     <use xlink:href="#DejaVuSerif-Bold-74" transform="translate(1658.789062 0)"/>
     <use xlink:href="#DejaVuSerif-Bold-65" transform="translate(1704.980469 0)"/>
     <use xlink:href="#DejaVuSerif-Bold-63" transform="translate(1768.603516 0)"/>
     <use xlink:href="#DejaVuSerif-Bold-74" transform="translate(1829.492188 0)"/>
     <use xlink:href="#DejaVuSerif-Bold-6f" transform="translate(1875.683594 0)"/>
     <use xlink:href="#DejaVuSerif-Bold-72" transform="translate(1942.382812 0)"/>
     <use xlink:href="#DejaVuSerif-Bold-20" transform="translate(1995.068359 0)"/>
     <use xlink:href="#DejaVuSerif-Bold-53" transform="translate(2029.882812 0)"/>
     <use xlink:href="#DejaVuSerif-Bold-65" transform="translate(2102.099609 0)"/>
     <use xlink:href="#DejaVuSerif-Bold-6e" transform="translate(2165.722656 0)"/>
     <use xlink:href="#DejaVuSerif-Bold-73" transform="translate(2238.427734 0)"/>
     <use xlink:href="#DejaVuSerif-Bold-69" transform="translate(2294.726562 0)"/>
     <use xlink:href="#DejaVuSerif-Bold-74" transform="translate(2332.714844 0)"/>
     <use xlink:href="#DejaVuSerif-Bold-69" transform="translate(2378.90625 0)"/>
     <use xlink:href="#DejaVuSerif-Bold-76" transform="translate(2416.894531 0)"/>
     <use xlink:href="#DejaVuSerif-Bold-69" transform="translate(2475 0)"/>
     <use xlink:href="#DejaVuSerif-Bold-74" transform="translate(2512.988281 0)"/>
     <use xlink:href="#DejaVuSerif-Bold-79" transform="translate(2559.179688 0)"/>
     <use xlink:href="#DejaVuSerif-Bold-20" transform="translate(2617.285156 0)"/>
     <use xlink:href="#DejaVuSerif-Bold-74" transform="translate(2652.099609 0)"/>
     <use xlink:href="#DejaVuSerif-Bold-6f" transform="translate(2698.291016 0)"/>
     <use xlink:href="#DejaVuSerif-Bold-20" transform="translate(2764.990234 0)"/>
     <use xlink:href="#DejaVuSerif-Bold-47" transform="translate(2799.804688 0)"/>
     <use xlink:href="#DejaVuSerif-Bold-65" transform="translate(2885.205078 0)"/>
     <use xlink:href="#DejaVuSerif-Bold-6e" transform="translate(2948.828125 0)"/>
     <use xlink:href="#DejaVuSerif-Bold-65" transform="translate(3021.533203 0)"/>
     <use xlink:href="#DejaVuSerif-Bold-72" transform="translate(3085.15625 0)"/>
     <use xlink:href="#DejaVuSerif-Bold-61" transform="translate(3137.841797 0)"/>
     <use xlink:href="#DejaVuSerif-Bold-74" transform="translate(3202.636719 0)"/>
     <use xlink:href="#DejaVuSerif-Bold-69" transform="translate(3248.828125 0)"/>
     <use xlink:href="#DejaVuSerif-Bold-76" transform="translate(3286.816406 0)"/>
     <use xlink:href="#DejaVuSerif-Bold-65" transform="translate(3344.921875 0)"/>
     <use xlink:href="#DejaVuSerif-Bold-20" transform="translate(3408.544922 0)"/>
     <use xlink:href="#DejaVuSerif-Bold-50" transform="translate(3443.359375 0)"/>
     <use xlink:href="#DejaVuSerif-Bold-72" transform="translate(3518.554688 0)"/>
     <use xlink:href="#DejaVuSerif-Bold-6f" transform="translate(3571.240234 0)"/>
     <use xlink:href="#DejaVuSerif-Bold-63" transform="translate(3637.939453 0)"/>
     <use xlink:href="#DejaVuSerif-Bold-65" transform="translate(3698.828125 0)"/>
     <use xlink:href="#DejaVuSerif-Bold-73" transform="translate(3762.451172 0)"/>
     <use xlink:href="#DejaVuSerif-Bold-73" transform="translate(3818.75 0)"/>
     <use xlink:href="#DejaVuSerif-Bold-69" transform="translate(3875.048828 0)"/>
     <use xlink:href="#DejaVuSerif-Bold-6e" transform="translate(3913.037109 0)"/>
     <use xlink:href="#DejaVuSerif-Bold-67" transform="translate(3985.742188 0)"/>
    </g>
    <!-- (Applied to genuine human speech — all labels should be "Real") -->
    <g transform="translate(179.409453 31.632281) scale(0.11 -0.11)">
     <defs>
      <path id="DejaVuSerif-Bold-28" d="M 2694 -997 
Q 1641 -606 1122 122 
Q 603 850 603 1931 
Q 603 3013 1115 3731 
Q 1628 4450 2694 4863 
L 2694 4488 
Q 2200 4188 1983 3598 
Q 1766 3009 1766 1931 
Q 1766 856 1983 267 
Q 2200 -322 2694 -622 
L 2694 -997 
z
" transform="scale(0.015625)"/>
      <path id="DejaVuSerif-Bold-41" d="M -50 0 
L -50 378 
L 331 378 
L 2088 4666 
L 2834 4666 
L 4594 378 
L 5038 378 
L 5038 0 
L 2853 0 
L 2853 378 
L 3309 378 
L 2925 1331 
L 1172 1331 
L 781 378 
L 1338 378 
L 1338 0 
L -50 0 
z
M 1325 1709 
L 2772 1709 
L 2053 3494 
L 1325 1709 
z
" transform="scale(0.015625)"/>
      <path id="DejaVuSerif-Bold-6c" d="M 1797 378 
L 2272 378 
L 2272 0 
L 219 0 
L 219 378 
L 691 378 
L 691 4488 
L 219 4488 
L 219 4863 
L 1797 4863 
L 1797 378 
z
" transform="scale(0.015625)"/>
      <path id="DejaVuSerif-Bold-64" d="M 2747 1497 
L 2747 1825 
Q 2747 2406 2597 2665 
Q 2447 2925 2119 2925 
Q 1775 2925 1636 2651 
Q 1497 2378 1497 1663 
Q 1497 947 1637 672 
Q 1778 397 2119 397 
Q 2447 397 2597 656 
Q 2747 916 2747 1497 
z
M 3853 378 
L 4325 378 
L 4325 0 
L 2747 0 
L 2747 422 
Q 2606 163 2367 36 
Q 2128 -91 1778 -91 
Q 1072 -91 667 378 
Q 263 847 263 1663 
Q 263 2481 667 2947 
Q 1072 3413 1778 3413 
Q 2128 3413 2367 3286 
Q 2606 3159 2747 2900 
L 2747 4488 
L 2272 4488 
L 2272 4863 
L 3853 4863 
L 3853 378 
z
" transform="scale(0.015625)"/>
      <path id="DejaVuSerif-Bold-2014" d="M 344 2075 
L 6056 2075 
L 6056 1325 
L 344 1325 
L 344 2075 
z
" transform="scale(0.015625)"/>
      <path id="DejaVuSerif-Bold-62" d="M 622 378 
L 622 4488 
L 147 4488 
L 147 4863 
L 1728 4863 
L 1728 2900 
Q 1869 3159 2106 3286 
Q 2344 3413 2694 3413 
Q 3403 3413 3811 2945 
Q 4219 2478 4219 1663 
Q 4219 847 3811 378 
Q 3403 -91 2694 -91 
Q 2344 -91 2106 36 
Q 1869 163 1728 422 
L 1728 0 
L 147 0 
L 147 378 
L 622 378 
z
M 1728 1497 
Q 1728 916 1876 656 
Q 2025 397 2356 397 
Q 2697 397 2836 672 
Q 2975 947 2975 1663 
Q 2975 2378 2836 2651 
Q 2697 2925 2356 2925 
Q 2025 2925 1876 2665 
Q 1728 2406 1728 1825 
L 1728 1497 
z
" transform="scale(0.015625)"/>
      <path id="DejaVuSerif-Bold-22" d="M 1350 4666 
L 1350 2931 
L 609 2931 
L 609 4666 
L 1350 4666 
z
M 2725 4666 
L 2725 2931 
L 1984 2931 
L 1984 4666 
L 2725 4666 
z
" transform="scale(0.015625)"/>
      <path id="DejaVuSerif-Bold-52" d="M 3397 2278 
Q 3675 2238 3865 2094 
Q 4056 1950 4197 1678 
L 4878 378 
L 5356 378 
L 5356 0 
L 3822 0 
L 3078 1409 
Q 2863 1847 2711 1967 
Q 2559 2088 2291 2088 
L 2100 2088 
L 2100 378 
L 2700 378 
L 2700 0 
L 300 0 
L 300 378 
L 897 378 
L 897 4288 
L 300 4288 
L 300 4666 
L 2963 4666 
Q 3775 4666 4217 4339 
Q 4659 4013 4659 3413 
Q 4659 2925 4345 2642 
Q 4031 2359 3397 2278 
z
M 2100 2463 
L 2509 2463 
Q 2947 2463 3183 2700 
Q 3419 2938 3419 3378 
Q 3419 3819 3183 4053 
Q 2947 4288 2509 4288 
L 2100 4288 
L 2100 2463 
z
" transform="scale(0.015625)"/>
      <path id="DejaVuSerif-Bold-29" d="M 325 -997 
L 325 -622 
Q 819 -322 1036 267 
Q 1253 856 1253 1931 
Q 1253 3009 1036 3598 
Q 819 4188 325 4488 
L 325 4863 
Q 1391 4450 1905 3731 
Q 2419 3013 2419 1931 
Q 2419 850 1898 122 
Q 1378 -606 325 -997 
z
" transform="scale(0.015625)"/>
     </defs>
     <use xlink:href="#DejaVuSerif-Bold-28"/>
     <use xlink:href="#DejaVuSerif-Bold-41" transform="translate(47.314453 0)"/>
     <use xlink:href="#DejaVuSerif-Bold-70" transform="translate(124.902344 0)"/>
     <use xlink:href="#DejaVuSerif-Bold-70" transform="translate(194.824219 0)"/>
     <use xlink:href="#DejaVuSerif-Bold-6c" transform="translate(264.746094 0)"/>
     <use xlink:href="#DejaVuSerif-Bold-69" transform="translate(302.734375 0)"/>
     <use xlink:href="#DejaVuSerif-Bold-65" transform="translate(340.722656 0)"/>
     <use xlink:href="#DejaVuSerif-Bold-64" transform="translate(404.345703 0)"/>
     <use xlink:href="#DejaVuSerif-Bold-20" transform="translate(474.267578 0)"/>
     <use xlink:href="#DejaVuSerif-Bold-74" transform="translate(509.082031 0)"/>
     <use xlink:href="#DejaVuSerif-Bold-6f" transform="translate(555.273438 0)"/>
     <use xlink:href="#DejaVuSerif-Bold-20" transform="translate(621.972656 0)"/>
     <use xlink:href="#DejaVuSerif-Bold-67" transform="translate(656.787109 0)"/>
     <use xlink:href="#DejaVuSerif-Bold-65" transform="translate(726.708984 0)"/>
     <use xlink:href="#DejaVuSerif-Bold-6e" transform="translate(790.332031 0)"/>
     <use xlink:href="#DejaVuSerif-Bold-75" transform="translate(863.037109 0)"/>
     <use xlink:href="#DejaVuSerif-Bold-69" transform="translate(935.742188 0)"/>
     <use xlink:href="#DejaVuSerif-Bold-6e" transform="translate(973.730469 0)"/>
     <use xlink:href="#DejaVuSerif-Bold-65" transform="translate(1046.435547 0)"/>
     <use xlink:href="#DejaVuSerif-Bold-20" transform="translate(1110.058594 0)"/>
     <use xlink:href="#DejaVuSerif-Bold-68" transform="translate(1144.873047 0)"/>
     <use xlink:href="#DejaVuSerif-Bold-75" transform="translate(1217.578125 0)"/>
     <use xlink:href="#DejaVuSerif-Bold-6d" transform="translate(1290.283203 0)"/>
     <use xlink:href="#DejaVuSerif-Bold-61" transform="translate(1396.09375 0)"/>
     <use xlink:href="#DejaVuSerif-Bold-6e" transform="translate(1460.888672 0)"/>
     <use xlink:href="#DejaVuSerif-Bold-20" transform="translate(1533.59375 0)"/>
     <use xlink:href="#DejaVuSerif-Bold-73" transform="translate(1568.408203 0)"/>
     <use xlink:href="#DejaVuSerif-Bold-70" transform="translate(1624.707031 0)"/>
     <use xlink:href="#DejaVuSerif-Bold-65" transform="translate(1694.628906 0)"/>
     <use xlink:href="#DejaVuSerif-Bold-65" transform="translate(1758.251953 0)"/>
     <use xlink:href="#DejaVuSerif-Bold-63" transform="translate(1821.875 0)"/>
     <use xlink:href="#DejaVuSerif-Bold-68" transform="translate(1882.763672 0)"/>
     <use xlink:href="#DejaVuSerif-Bold-20" transform="translate(1955.46875 0)"/>
     <use xlink:href="#DejaVuSerif-Bold-2014" transform="translate(1990.283203 0)"/>
     <use xlink:href="#DejaVuSerif-Bold-20" transform="translate(2090.283203 0)"/>
     <use xlink:href="#DejaVuSerif-Bold-61" transform="translate(2125.097656 0)"/>
     <use xlink:href="#DejaVuSerif-Bold-6c" transform="translate(2189.892578 0)"/>
     <use xlink:href="#DejaVuSerif-Bold-6c" transform="translate(2227.880859 0)"/>
     <use xlink:href="#DejaVuSerif-Bold-20" transform="translate(2265.869141 0)"/>
     <use xlink:href="#DejaVuSerif-Bold-6c" transform="translate(2300.683594 0)"/>
     <use xlink:href="#DejaVuSerif-Bold-61" transform="translate(2338.671875 0)"/>
     <use xlink:href="#DejaVuSerif-Bold-62" transform="translate(2403.466797 0)"/>
     <use xlink:href="#DejaVuSerif-Bold-65" transform="translate(2473.388672 0)"/>
     <use xlink:href="#DejaVuSerif-Bold-6c" transform="translate(2537.011719 0)"/>
     <use xlink:href="#DejaVuSerif-Bold-73" transform="translate(2575 0)"/>
     <use xlink:href="#DejaVuSerif-Bold-20" transform="translate(2631.298828 0)"/>
     <use xlink:href="#DejaVuSerif-Bold-73" transform="translate(2666.113281 0)"/>
     <use xlink:href="#DejaVuSerif-Bold-68" transform="translate(2722.412109 0)"/>
     <use xlink:href="#DejaVuSerif-Bold-6f" transform="translate(2795.117188 0)"/>
     <use xlink:href="#DejaVuSerif-Bold-75" transform="translate(2861.816406 0)"/>
     <use xlink:href="#DejaVuSerif-Bold-6c" transform="translate(2934.521484 0)"/>
     <use xlink:href="#DejaVuSerif-Bold-64" transform="translate(2972.509766 0)"/>
     <use xlink:href="#DejaVuSerif-Bold-20" transform="translate(3042.431641 0)"/>
     <use xlink:href="#DejaVuSerif-Bold-62" transform="translate(3077.246094 0)"/>
     <use xlink:href="#DejaVuSerif-Bold-65" transform="translate(3147.167969 0)"/>
     <use xlink:href="#DejaVuSerif-Bold-20" transform="translate(3210.791016 0)"/>
     <use xlink:href="#DejaVuSerif-Bold-22" transform="translate(3245.605469 0)"/>
     <use xlink:href="#DejaVuSerif-Bold-52" transform="translate(3297.705078 0)"/>
     <use xlink:href="#DejaVuSerif-Bold-65" transform="translate(3380.810547 0)"/>
     <use xlink:href="#DejaVuSerif-Bold-61" transform="translate(3444.433594 0)"/>
     <use xlink:href="#DejaVuSerif-Bold-6c" transform="translate(3509.228516 0)"/>
     <use xlink:href="#DejaVuSerif-Bold-22" transform="translate(3547.216797 0)"/>
     <use xlink:href="#DejaVuSerif-Bold-29" transform="translate(3599.316406 0)"/>
    </g>
   </g>
   <g id="legend_1">
    <g id="patch_14">
     <path d="M 61.50125 54.230719 
L 81.50125 54.230719 
L 81.50125 47.230719 
L 61.50125 47.230719 
z
" style="fill: #c73e1d; opacity: 0.85"/>
    </g>
    <g id="text_22">
     <!-- DF-Arena Binary (→ Fake %) -->
     <g transform="translate(89.50125 54.230719) scale(0.1 -0.1)">
      <defs>
       <path id="DejaVuSerif-44" d="M 1581 331 
L 2163 331 
Q 3072 331 3558 850 
Q 4044 1369 4044 2338 
Q 4044 3306 3559 3818 
Q 3075 4331 2163 4331 
L 1581 4331 
L 1581 331 
z
M 353 0 
L 353 331 
L 947 331 
L 947 4331 
L 353 4331 
L 353 4666 
L 2209 4666 
Q 3416 4666 4089 4050 
Q 4763 3434 4763 2338 
Q 4763 1238 4088 619 
Q 3413 0 2209 0 
L 353 0 
z
" transform="scale(0.015625)"/>
       <path id="DejaVuSerif-2d" d="M 281 1959 
L 1881 1959 
L 1881 1472 
L 281 1472 
L 281 1959 
z
" transform="scale(0.015625)"/>
       <path id="DejaVuSerif-41" d="M 1281 1691 
L 2994 1691 
L 2138 3909 
L 1281 1691 
z
M -38 0 
L -38 331 
L 372 331 
L 2034 4666 
L 2559 4666 
L 4225 331 
L 4684 331 
L 4684 0 
L 2988 0 
L 2988 331 
L 3506 331 
L 3116 1356 
L 1153 1356 
L 763 331 
L 1275 331 
L 1275 0 
L -38 0 
z
" transform="scale(0.015625)"/>
       <path id="DejaVuSerif-42" d="M 1581 331 
L 2516 331 
Q 3078 331 3337 575 
Q 3597 819 3597 1350 
Q 3597 1878 3339 2120 
Q 3081 2363 2516 2363 
L 1581 2363 
L 1581 331 
z
M 1581 2694 
L 2375 2694 
Q 2888 2694 3123 2891 
Q 3359 3088 3359 3513 
Q 3359 3941 3123 4136 
Q 2888 4331 2375 4331 
L 1581 4331 
L 1581 2694 
z
M 353 0 
L 353 331 
L 947 331 
L 947 4331 
L 353 4331 
L 353 4666 
L 2656 4666 
Q 3363 4666 3720 4377 
Q 4078 4088 4078 3513 
Q 4078 3097 3829 2850 
Q 3581 2603 3103 2547 
Q 3697 2472 4005 2167 
Q 4313 1863 4313 1350 
Q 4313 656 3875 328 
Q 3438 0 2509 0 
L 353 0 
z
" transform="scale(0.015625)"/>
      </defs>
      <use xlink:href="#DejaVuSerif-44"/>
      <use xlink:href="#DejaVuSerif-46" transform="translate(80.175781 0)"/>
      <use xlink:href="#DejaVuSerif-2d" transform="translate(145.060547 0)"/>
      <use xlink:href="#DejaVuSerif-41" transform="translate(178.849609 0)"/>
      <use xlink:href="#DejaVuSerif-72" transform="translate(251.066406 0)"/>
      <use xlink:href="#DejaVuSerif-65" transform="translate(298.869141 0)"/>
      <use xlink:href="#DejaVuSerif-6e" transform="translate(358.048828 0)"/>
      <use xlink:href="#DejaVuSerif-61" transform="translate(422.453125 0)"/>
      <use xlink:href="#DejaVuSerif-20" transform="translate(482.072266 0)"/>
      <use xlink:href="#DejaVuSerif-42" transform="translate(513.859375 0)"/>
      <use xlink:href="#DejaVuSerif-69" transform="translate(587.345703 0)"/>
      <use xlink:href="#DejaVuSerif-6e" transform="translate(619.328125 0)"/>
      <use xlink:href="#DejaVuSerif-61" transform="translate(683.732422 0)"/>
      <use xlink:href="#DejaVuSerif-72" transform="translate(743.351562 0)"/>
      <use xlink:href="#DejaVuSerif-79" transform="translate(791.154297 0)"/>
      <use xlink:href="#DejaVuSerif-20" transform="translate(847.648438 0)"/>
      <use xlink:href="#DejaVuSerif-28" transform="translate(879.435547 0)"/>
      <use xlink:href="#DejaVuSerif-2192" transform="translate(918.449219 0)"/>
      <use xlink:href="#DejaVuSerif-20" transform="translate(1002.238281 0)"/>
      <use xlink:href="#DejaVuSerif-46" transform="translate(1034.025391 0)"/>
      <use xlink:href="#DejaVuSerif-61" transform="translate(1096.660156 0)"/>
      <use xlink:href="#DejaVuSerif-6b" transform="translate(1156.279297 0)"/>
      <use xlink:href="#DejaVuSerif-65" transform="translate(1216.875 0)"/>
      <use xlink:href="#DejaVuSerif-20" transform="translate(1276.054688 0)"/>
      <use xlink:href="#DejaVuSerif-25" transform="translate(1307.841797 0)"/>
      <use xlink:href="#DejaVuSerif-29" transform="translate(1402.861328 0)"/>
     </g>
    </g>
    <g id="patch_15">
     <path d="M 61.50125 69.051031 
L 81.50125 69.051031 
L 81.50125 62.051031 
L 61.50125 62.051031 
z
" style="fill: #2e86ab; opacity: 0.85"/>
    </g>
    <g id="text_23">
     <!-- MLP Binary (→ Fake %) -->
     <g transform="translate(89.50125 69.051031) scale(0.1 -0.1)">
      <defs>
       <path id="DejaVuSerif-50" d="M 1581 2375 
L 2406 2375 
Q 2872 2375 3115 2626 
Q 3359 2878 3359 3353 
Q 3359 3831 3115 4081 
Q 2872 4331 2406 4331 
L 1581 4331 
L 1581 2375 
z
M 353 0 
L 353 331 
L 947 331 
L 947 4331 
L 353 4331 
L 353 4666 
L 2559 4666 
Q 3259 4666 3668 4311 
Q 4078 3956 4078 3353 
Q 4078 2753 3668 2397 
Q 3259 2041 2559 2041 
L 1581 2041 
L 1581 331 
L 2303 331 
L 2303 0 
L 353 0 
z
" transform="scale(0.015625)"/>
      </defs>
      <use xlink:href="#DejaVuSerif-4d"/>
      <use xlink:href="#DejaVuSerif-4c" transform="translate(102.392578 0)"/>
      <use xlink:href="#DejaVuSerif-50" transform="translate(168.798828 0)"/>
      <use xlink:href="#DejaVuSerif-20" transform="translate(236.083984 0)"/>
      <use xlink:href="#DejaVuSerif-42" transform="translate(267.871094 0)"/>
      <use xlink:href="#DejaVuSerif-69" transform="translate(341.357422 0)"/>
      <use xlink:href="#DejaVuSerif-6e" transform="translate(373.339844 0)"/>
      <use xlink:href="#DejaVuSerif-61" transform="translate(437.744141 0)"/>
      <use xlink:href="#DejaVuSerif-72" transform="translate(497.363281 0)"/>
      <use xlink:href="#DejaVuSerif-79" transform="translate(545.166016 0)"/>
      <use xlink:href="#DejaVuSerif-20" transform="translate(601.660156 0)"/>
      <use xlink:href="#DejaVuSerif-28" transform="translate(633.447266 0)"/>
      <use xlink:href="#DejaVuSerif-2192" transform="translate(672.460938 0)"/>
      <use xlink:href="#DejaVuSerif-20" transform="translate(756.25 0)"/>
      <use xlink:href="#DejaVuSerif-46" transform="translate(788.037109 0)"/>
      <use xlink:href="#DejaVuSerif-61" transform="translate(850.671875 0)"/>
      <use xlink:href="#DejaVuSerif-6b" transform="translate(910.291016 0)"/>
      <use xlink:href="#DejaVuSerif-65" transform="translate(970.886719 0)"/>
      <use xlink:href="#DejaVuSerif-20" transform="translate(1030.066406 0)"/>
      <use xlink:href="#DejaVuSerif-25" transform="translate(1061.853516 0)"/>
      <use xlink:href="#DejaVuSerif-29" transform="translate(1156.873047 0)"/>
     </g>
    </g>
   </g>
  </g>
 </g>
 <defs>
  <clipPath id="p498b566a76">
   <rect x="52.50125" y="37.632281" width="654.94" height="246.767"/>
  </clipPath>
 </defs>
</svg>
